<svg id="Layer_1" data-name="Layer 1" xmlns="http://www.w3.org/2000/svg" viewBox="0 0 101.98 81.79"><defs><style>.cls-1{fill:#fdb737;}.cls-2{fill:#ef3f29;}</style></defs><title>Artboard 7</title><path class="cls-1" d="M13.64,74.32a1.5,1.5,0,0,1-1.5-1.5V55a1.5,1.5,0,0,1,3,0V72.82A1.5,1.5,0,0,1,13.64,74.32Z"/><circle class="cls-1" cx="13.64" cy="46.34" r="2.23"/><circle class="cls-1" cx="36.94" cy="46.34" r="2.23"/><circle class="cls-1" cx="36.94" cy="55.06" r="1.99"/><path class="cls-1" d="M38.78,63.63a1.84,1.84,0,1,1-1.84-1.84,1.84,1.84,0,0,1,1.84,1.84"/><path class="cls-1" d="M25.46,65.52A1.5,1.5,0,0,1,24,64V45.74a1.5,1.5,0,0,1,3,0V64A1.5,1.5,0,0,1,25.46,65.52Z"/><path class="cls-1" d="M2.34,66.26a1.5,1.5,0,0,1-1.5-1.5V54.93a1.5,1.5,0,1,1,3,0v9.83A1.5,1.5,0,0,1,2.34,66.26Z"/><circle class="cls-1" cx="2.34" cy="46.34" r="2.23"/><circle class="cls-2" cx="87.46" cy="80.44" r="1.35"/><path class="cls-2" d="M87.46,66.38a1.5,1.5,0,0,1-1.5-1.5V45.62a1.5,1.5,0,1,1,3,0V64.88A1.5,1.5,0,0,1,87.46,66.38Z"/><path class="cls-2" d="M74.84,56.41a1.5,1.5,0,0,1-1.5-1.5V45.69a1.5,1.5,0,0,1,3,0v9.22A1.5,1.5,0,0,1,74.84,56.41Z"/><circle class="cls-2" cx="75.1" cy="63.63" r="1.84"/><path class="cls-2" d="M49.58,66.38a1.5,1.5,0,0,1-1.5-1.5V54.55a1.5,1.5,0,0,1,3,0V64.88A1.5,1.5,0,0,1,49.58,66.38Z"/><circle class="cls-2" cx="49.58" cy="72.84" r="1.63"/><circle class="cls-2" cx="49.58" cy="46.34" r="2.23"/><circle class="cls-2" cx="49.58" cy="80.33" r="1.35"/><path class="cls-2" d="M62.22,66.38a1.5,1.5,0,0,1-1.5-1.5V54.55a1.5,1.5,0,0,1,3,0V64.88A1.5,1.5,0,0,1,62.22,66.38Z"/><circle class="cls-2" cx="62.22" cy="46.34" r="2.23"/><circle class="cls-2" cx="87.46" cy="72.84" r="1.63"/><circle class="cls-2" cx="99.75" cy="46.38" r="2.23"/><circle class="cls-2" cx="99.75" cy="55.06" r="1.99"/><path class="cls-2" d="M101.43,63.63a1.84,1.84,0,1,1-1.84-1.84,1.84,1.84,0,0,1,1.84,1.84"/><circle class="cls-1" cx="13.64" cy="80.33" r="1.35"/><path class="cls-1" d="M87.46,28.24a1.5,1.5,0,0,1-1.5-1.5V9a1.5,1.5,0,0,1,3,0V26.74A1.5,1.5,0,0,1,87.46,28.24Z"/><circle class="cls-1" cx="87.46" cy="35.41" r="2.23"/><circle class="cls-1" cx="62.22" cy="35.45" r="2.23"/><circle class="cls-1" cx="62.22" cy="26.91" r="1.99"/><path class="cls-1" d="M60.38,18.16A1.84,1.84,0,1,1,62.22,20a1.84,1.84,0,0,1-1.84-1.84"/><path class="cls-1" d="M74.84,37.55a1.5,1.5,0,0,1-1.5-1.5V17.77a1.5,1.5,0,0,1,3,0V36A1.5,1.5,0,0,1,74.84,37.55Z"/><path class="cls-1" d="M99.75,28.36a1.5,1.5,0,0,1-1.5-1.5V17a1.5,1.5,0,0,1,3,0v9.84A1.5,1.5,0,0,1,99.75,28.36Z"/><circle class="cls-1" cx="99.75" cy="35.44" r="2.23"/><circle class="cls-2" cx="13.69" cy="1.35" r="1.35"/><path class="cls-2" d="M13.69,37.67a1.5,1.5,0,0,1-1.5-1.5V16.9a1.5,1.5,0,0,1,3,0V36.17A1.5,1.5,0,0,1,13.69,37.67Z"/><path class="cls-2" d="M25.61,37.6a1.5,1.5,0,0,1-1.5-1.5V26.88a1.5,1.5,0,0,1,3,0V36.1A1.5,1.5,0,0,1,25.61,37.6Z"/><circle class="cls-2" cx="25.61" cy="18.16" r="1.84"/><path class="cls-2" d="M49.58,29.17a1.5,1.5,0,0,1-1.5-1.5V17.34a1.5,1.5,0,1,1,3,0V27.67A1.5,1.5,0,0,1,49.58,29.17Z"/><circle class="cls-2" cx="49.86" cy="8.94" r="1.63"/><circle class="cls-2" cx="49.58" cy="35.45" r="2.23"/><circle class="cls-2" cx="49.86" cy="1.46" r="1.35"/><path class="cls-2" d="M36.94,29.17a1.5,1.5,0,0,1-1.5-1.5V17.34a1.5,1.5,0,0,1,3,0V27.67A1.5,1.5,0,0,1,36.94,29.17Z"/><circle class="cls-2" cx="36.94" cy="35.45" r="2.23"/><circle class="cls-2" cx="13.69" cy="8.94" r="1.63"/><circle class="cls-2" cx="2.23" cy="35.41" r="2.23"/><circle class="cls-2" cx="2.23" cy="26.73" r="1.99"/><path class="cls-2" d="M.54,18.16A1.84,1.84,0,1,1,2.39,20,1.84,1.84,0,0,1,.54,18.16"/><circle class="cls-1" cx="87.46" cy="1.35" r="1.35"/></svg>