<svg id="Layer_1" data-name="Layer 1" xmlns="http://www.w3.org/2000/svg" viewBox="0 0 147.6 99.6"><defs><style>.cls-1{fill:#48bdac;}</style></defs><title>Artboard 9</title><path class="cls-1" d="M109.75,65.67a1.84,1.84,0,1,1,1.84-1.84,1.84,1.84,0,0,1-1.84,1.84"/><path class="cls-1" d="M23.92,90.7a1.5,1.5,0,0,1-1.5-1.5V54.76a1.5,1.5,0,0,1,3,0V89.2A1.5,1.5,0,0,1,23.92,90.7Z"/><path class="cls-1" d="M47.29,73.6a1.5,1.5,0,0,1-1.5-1.5V54.68a1.5,1.5,0,0,1,3,0V72.1A1.5,1.5,0,0,1,47.29,73.6Z"/><path class="cls-1" d="M59.36,81.16a1.5,1.5,0,0,1-1.5-1.5v-7.3a1.5,1.5,0,0,1,3,0v7.3A1.5,1.5,0,0,1,59.36,81.16Z"/><path class="cls-1" d="M97.43,73.6a1.5,1.5,0,0,1-1.5-1.5V54.68a1.5,1.5,0,1,1,3,0V72.1A1.5,1.5,0,0,1,97.43,73.6Z"/><path class="cls-1" d="M72.46,73.07a1.5,1.5,0,0,1-1.5-1.5V54.68a1.5,1.5,0,0,1,3,0V71.57A1.5,1.5,0,0,1,72.46,73.07Z"/><path class="cls-1" d="M84.62,52.88a2.23,2.23,0,1,1-2.23,2.23,2.23,2.23,0,0,1,2.23-2.23"/><path class="cls-1" d="M35.63,73.52a1.5,1.5,0,0,1-1.5-1.5V54.76a1.5,1.5,0,0,1,3,0V72A1.5,1.5,0,0,1,35.63,73.52Z"/><path class="cls-1" d="M59.36,52.88a2.23,2.23,0,1,1-2.23,2.23,2.23,2.23,0,0,1,2.23-2.23"/><circle class="cls-1" cx="59.36" cy="64.31" r="1.84"/><circle class="cls-1" cx="72.46" cy="79.66" r="1.63"/><circle class="cls-1" cx="84.62" cy="63.65" r="1.84"/><path class="cls-1" d="M109.75,52.88a2.23,2.23,0,1,1-2.23,2.23,2.23,2.23,0,0,1,2.23-2.23"/><path class="cls-1" d="M135,52.88a2.23,2.23,0,1,1-2.23,2.23A2.23,2.23,0,0,1,135,52.88"/><circle class="cls-1" cx="134.99" cy="63.83" r="1.99"/><path class="cls-1" d="M136.84,72.78A1.84,1.84,0,1,1,135,70.94a1.84,1.84,0,0,1,1.84,1.84"/><path class="cls-1" d="M122.65,52.88a2.23,2.23,0,1,1-2.23,2.23,2.23,2.23,0,0,1,2.23-2.23"/><path class="cls-1" d="M12.22,65.94a1.5,1.5,0,0,1-1.5-1.5V54.76a1.5,1.5,0,0,1,3,0v9.68A1.5,1.5,0,0,1,12.22,65.94Z"/><path class="cls-1" d="M12.22,71.36a1.84,1.84,0,1,1-1.84,1.84,1.84,1.84,0,0,1,1.84-1.84"/><path class="cls-1" d="M12.22,90.7a1.5,1.5,0,0,1-1.5-1.5V82a1.5,1.5,0,0,1,3,0V89.2A1.5,1.5,0,0,1,12.22,90.7Z"/><circle class="cls-1" cx="12.22" cy="98.25" r="1.35"/><path class="cls-1" d="M35.62,34.11A1.84,1.84,0,1,1,33.78,36a1.84,1.84,0,0,1,1.84-1.84"/><path class="cls-1" d="M122.65,46.34a1.5,1.5,0,0,1-1.5-1.5V10.4a1.5,1.5,0,1,1,3,0V44.84A1.5,1.5,0,0,1,122.65,46.34Z"/><path class="cls-1" d="M97.73,46.69a1.5,1.5,0,0,1-1.5-1.5V27.77a1.5,1.5,0,0,1,3,0V45.19A1.5,1.5,0,0,1,97.73,46.69Z"/><path class="cls-1" d="M84.62,28.73a1.5,1.5,0,0,1-1.5-1.5v-7.3a1.5,1.5,0,0,1,3,0v7.3A1.5,1.5,0,0,1,84.62,28.73Z"/><path class="cls-1" d="M47.29,46.69a1.5,1.5,0,0,1-1.5-1.5V27.77a1.5,1.5,0,0,1,3,0V45.19A1.5,1.5,0,0,1,47.29,46.69Z"/><path class="cls-1" d="M72.46,46.42a1.5,1.5,0,0,1-1.5-1.5V28a1.5,1.5,0,0,1,3,0V44.92A1.5,1.5,0,0,1,72.46,46.42Z"/><path class="cls-1" d="M59.36,47a2.23,2.23,0,1,1,2.23-2.23A2.23,2.23,0,0,1,59.36,47"/><path class="cls-1" d="M109.75,46.8a1.5,1.5,0,0,1-1.5-1.5V28a1.5,1.5,0,1,1,3,0V45.3A1.5,1.5,0,0,1,109.75,46.8Z"/><path class="cls-1" d="M84.62,46.72a2.23,2.23,0,1,1,2.23-2.23,2.23,2.23,0,0,1-2.23,2.23"/><circle class="cls-1" cx="84.62" cy="35.29" r="1.84"/><circle class="cls-1" cx="72.46" cy="19.94" r="1.63"/><circle class="cls-1" cx="59.36" cy="36.21" r="1.84"/><path class="cls-1" d="M35.62,46.72a2.23,2.23,0,1,1,2.23-2.23,2.23,2.23,0,0,1-2.23,2.23"/><path class="cls-1" d="M12.61,46.72a2.23,2.23,0,1,1,2.23-2.23,2.23,2.23,0,0,1-2.23,2.23"/><circle class="cls-1" cx="12.61" cy="35.77" r="1.99"/><path class="cls-1" d="M10.76,26.82a1.84,1.84,0,1,1,1.84,1.84,1.84,1.84,0,0,1-1.84-1.84"/><path class="cls-1" d="M23.92,46.72a2.23,2.23,0,1,1,2.23-2.23,2.23,2.23,0,0,1-2.23,2.23"/><path class="cls-1" d="M135,46.34a1.5,1.5,0,0,1-1.5-1.5V35.16a1.5,1.5,0,0,1,3,0v9.68A1.5,1.5,0,0,1,135,46.34Z"/><path class="cls-1" d="M135,28.24a1.84,1.84,0,1,1,1.84-1.84A1.84,1.84,0,0,1,135,28.24"/><path class="cls-1" d="M135,19.14a1.5,1.5,0,0,1-1.5-1.5V10.4a1.5,1.5,0,1,1,3,0v7.24A1.5,1.5,0,0,1,135,19.14Z"/><circle class="cls-1" cx="134.99" cy="1.35" r="1.35"/></svg>