<svg id="Layer_1" data-name="Layer 1" xmlns="http://www.w3.org/2000/svg" viewBox="0 0 134.34 63.41"><defs><style>.cls-1{fill:#231f20;}.cls-2{fill:#ef3f29;}</style></defs><title>Artboard 6</title><path class="cls-1" d="M5.05,30.11A17,17,0,0,1,0,17.51,17,17,0,0,1,5.06,5.05,16.94,16.94,0,0,1,17.55,0,19,19,0,0,1,30.47,4.69L25.78,9.82A13,13,0,0,0,17.55,7a10.32,10.32,0,0,0-7.63,3A10.22,10.22,0,0,0,7,17.46,10.54,10.54,0,0,0,10,25.24a10.38,10.38,0,0,0,7.64,2.88,12.6,12.6,0,0,0,8.18-2.79l4.69,5.13a19,19,0,0,1-12.91,4.69A17.1,17.1,0,0,1,5.05,30.11Z"/><path class="cls-1" d="M30.47,63.39,44.53,28.23h7l14,35.13-7.48,0L56,58H40.08L38,63.39ZM48.23,37.61,42.89,51H53.44Z"/><path class="cls-1" d="M79,28.25V56.84H97.7v6.56H71.92V28.25Z"/><path class="cls-1" d="M115.59,28.25V56.84h18.75v6.56H108.56V28.25Z"/><circle class="cls-2" cx="48.04" cy="18.41" r="4.5"/><circle class="cls-2" cx="92.08" cy="18.41" r="4.5"/><circle class="cls-2" cx="127.75" cy="18.41" r="4.5"/><circle class="cls-1" cx="59.07" cy="22.28" r="3.87"/><circle class="cls-1" cx="68.34" cy="18.41" r="2.74"/><circle class="cls-1" cx="75.21" cy="22.28" r="1.86"/><circle class="cls-1" cx="82.07" cy="18.41" r="2.74"/><circle class="cls-1" cx="103.08" cy="10.66" r="3.87"/><circle class="cls-1" cx="110.96" cy="14.54" r="1.86"/><circle class="cls-1" cx="118.03" cy="18.41" r="2.74"/></svg>