<svg id="Layer_1" data-name="Layer 1" xmlns="http://www.w3.org/2000/svg" viewBox="0 0 162.4 81.17"><defs><style>.cls-1{fill:#231f20;}.cls-2{fill:#46b86d;}.cls-3{fill:#ef3f29;}.cls-4{fill:#fdb737;}.cls-5{fill:#48bdac;}</style></defs><title>Artboard 4</title><path class="cls-1" d="M60.53,73.7A1.5,1.5,0,0,1,59,72.2V54.43a1.5,1.5,0,0,1,3,0V72.2A1.5,1.5,0,0,1,60.53,73.7Z"/><circle class="cls-1" cx="60.53" cy="45.73" r="2.23"/><circle class="cls-1" cx="83.83" cy="45.73" r="2.23"/><circle class="cls-1" cx="83.83" cy="54.44" r="1.99"/><path class="cls-1" d="M85.67,63a1.84,1.84,0,1,1-1.84-1.84A1.84,1.84,0,0,1,85.67,63"/><path class="cls-1" d="M72.35,64.9a1.5,1.5,0,0,1-1.5-1.5V45.12a1.5,1.5,0,1,1,3,0V63.4A1.5,1.5,0,0,1,72.35,64.9Z"/><path class="cls-1" d="M49.23,65.64a1.5,1.5,0,0,1-1.5-1.5V54.31a1.5,1.5,0,1,1,3,0v9.83A1.5,1.5,0,0,1,49.23,65.64Z"/><circle class="cls-1" cx="49.23" cy="45.73" r="2.23"/><circle class="cls-1" cx="134.35" cy="79.82" r="1.35"/><path class="cls-1" d="M134.35,65.77a1.5,1.5,0,0,1-1.5-1.5V45a1.5,1.5,0,1,1,3,0V64.27A1.5,1.5,0,0,1,134.35,65.77Z"/><path class="cls-1" d="M121.73,55.79a1.5,1.5,0,0,1-1.5-1.5V45.07a1.5,1.5,0,1,1,3,0v9.22A1.5,1.5,0,0,1,121.73,55.79Z"/><circle class="cls-1" cx="121.99" cy="63.01" r="1.84"/><path class="cls-1" d="M96.47,65.77a1.5,1.5,0,0,1-1.5-1.5V53.94a1.5,1.5,0,1,1,3,0V64.27A1.5,1.5,0,0,1,96.47,65.77Z"/><circle class="cls-1" cx="96.47" cy="72.23" r="1.63"/><circle class="cls-1" cx="96.47" cy="45.72" r="2.23"/><circle class="cls-1" cx="96.47" cy="79.71" r="1.35"/><path class="cls-1" d="M109.11,65.77a1.5,1.5,0,0,1-1.5-1.5V53.94a1.5,1.5,0,0,1,3,0V64.27A1.5,1.5,0,0,1,109.11,65.77Z"/><circle class="cls-1" cx="109.11" cy="45.72" r="2.23"/><circle class="cls-1" cx="134.35" cy="72.23" r="1.63"/><circle class="cls-1" cx="146.64" cy="45.76" r="2.23"/><circle class="cls-1" cx="146.64" cy="54.44" r="1.99"/><path class="cls-1" d="M148.32,63a1.84,1.84,0,1,1-1.84-1.84A1.84,1.84,0,0,1,148.32,63"/><circle class="cls-1" cx="60.53" cy="79.71" r="1.35"/><path class="cls-1" d="M5.05,30.11A17,17,0,0,1,0,17.51,17,17,0,0,1,5.06,5.05,16.94,16.94,0,0,1,17.55,0,19,19,0,0,1,30.47,4.69L25.78,9.82A13,13,0,0,0,17.55,7a10.32,10.32,0,0,0-7.63,3A10.22,10.22,0,0,0,7,17.46,10.54,10.54,0,0,0,10,25.24a10.38,10.38,0,0,0,7.64,2.88,12.6,12.6,0,0,0,8.18-2.79l4.69,5.13a19,19,0,0,1-12.91,4.69A17.1,17.1,0,0,1,5.05,30.11Z"/><path class="cls-1" d="M42.4,35.16,56.46,0h7l14,35.13-7.48,0-2.11-5.39H52L49.9,35.16ZM60.17,9.38,54.82,22.74H65.37Z"/><path class="cls-1" d="M96.93,0V28.59h18.75v6.56H89.9V0Z"/><path class="cls-1" d="M134.81,0V28.59h18.75v6.56H127.78V0Z"/><circle class="cls-2" cx="159.66" cy="33.86" r="2.74"/><circle class="cls-3" cx="121.73" cy="33.86" r="2.74"/><circle class="cls-4" cx="83.8" cy="33.86" r="2.74"/><circle class="cls-5" cx="36.52" cy="33.86" r="2.74"/></svg>