<svg id="Layer_1" data-name="Layer 1" xmlns="http://www.w3.org/2000/svg" viewBox="0 0 224.41 57.68"><defs><style>.cls-1{fill:#231f20;}</style></defs><title>Artboard 7</title><path class="cls-1" d="M77.67,41.09a.84.84,0,0,1-.6.65c-.29.09-.48,0-.45-.31a1,1,0,0,1,.56-.72A.34.34,0,0,1,77.67,41.09Z"/><path class="cls-1" d="M75.72,42.56a7.05,7.05,0,0,1-.31,1.18c-.14.38-.22.47-.18.19a6.22,6.22,0,0,1,.3-1.2C75.66,42.36,75.75,42.29,75.72,42.56Z"/><path class="cls-1" d="M74.81,46c0,.3-.09,1-.15,1.48s-.11.66-.1.35.09-1,.17-1.45S74.83,45.69,74.81,46Z"/><path class="cls-1" d="M74.26,50.08a12.17,12.17,0,0,1-.14,1.51c-.08.48-.17.56-.17.21a9.3,9.3,0,0,1,.18-1.44C74.21,49.9,74.26,49.75,74.26,50.08Z"/><path class="cls-1" d="M73.39,53.59a2.69,2.69,0,0,1-.29,1.23c-.18.29-.37.18-.38-.18a2.26,2.26,0,0,1,.35-1.11C73.26,53.25,73.39,53.24,73.39,53.59Z"/><path class="cls-1" d="M71.55,55.26a.53.53,0,0,1-.61.57,1.07,1.07,0,0,1-.65-.94c0-.36.3-.44.65-.32A.76.76,0,0,1,71.55,55.26Z"/><path class="cls-1" d="M68.58,53.31c0,.36-.32.29-.72-.27a4.12,4.12,0,0,1-.76-1.75c0-.35.34-.11.75.44A3.5,3.5,0,0,1,68.58,53.31Z"/><path class="cls-1" d="M65.21,48.21c0,.33-.35,0-.79-.77a6.39,6.39,0,0,1-.79-2c0-.31.36.1.8.86A5.76,5.76,0,0,1,65.21,48.21Z"/><path class="cls-1" d="M61.7,41.93c0,.28-.36-.09-.8-.85a5.81,5.81,0,0,1-.77-1.85c0-.26.37.14.8.87A5.48,5.48,0,0,1,61.7,41.93Z"/><path class="cls-1" d="M58.28,36.4c0,.24-.35,0-.75-.45a2.78,2.78,0,0,1-.7-1.27c0-.24.34-.07.74.4A2.89,2.89,0,0,1,58.28,36.4Z"/><path class="cls-1" d="M55.19,33.56c0,.25-.29.45-.63.48s-.63-.16-.62-.42.31-.49.65-.53A.51.51,0,0,1,55.19,33.56Z"/><path class="cls-1" d="M52.36,34.4a1.76,1.76,0,0,1-.67,1c-.37.29-.67.3-.66,0a1.74,1.74,0,0,1,.69-1C52.09,34.2,52.37,34.15,52.36,34.4Z"/><path class="cls-1" d="M49.38,37.08a2.81,2.81,0,0,1-.69,1.28c-.38.42-.69.5-.68.22a2.61,2.61,0,0,1,.71-1.2C49.1,37,49.39,36.82,49.38,37.08Z"/><path class="cls-1" d="M46.32,40.49a2.86,2.86,0,0,1-.7,1.35c-.38.42-.68.45-.67.14a2.55,2.55,0,0,1,.72-1.23C46,40.34,46.34,40.2,46.32,40.49Z"/><path class="cls-1" d="M43.3,43.57a1.9,1.9,0,0,1-.68,1.15c-.37.28-.66.16-.64-.16a1.61,1.61,0,0,1,.69-1C43,43.29,43.31,43.25,43.3,43.57Z"/><path class="cls-1" d="M40.41,45.26a.71.71,0,0,1-.63.66.68.68,0,0,1-.58-.71c0-.31.29-.42.63-.4S40.42,44.94,40.41,45.26Z"/><path class="cls-1" d="M37.88,44.12c0,.32-.25.34-.51-.1a3.38,3.38,0,0,1-.45-1.47c0-.32.24-.12.51.31A2.63,2.63,0,0,1,37.88,44.12Z"/><path class="cls-1" d="M35.86,40.05c0,.31-.2.09-.43-.56A7.21,7.21,0,0,1,35,37.7c0-.29.21.06.44.7A5.86,5.86,0,0,1,35.86,40.05Z"/><path class="cls-1" d="M34.06,34.7c0,.27-.18,0-.41-.67a8,8,0,0,1-.41-1.7c0-.26.2.1.42.75A6.58,6.58,0,0,1,34.06,34.7Z"/><path class="cls-1" d="M32.19,29.75c0,.24-.19.07-.45-.39a3.73,3.73,0,0,1-.49-1.26c0-.24.22-.06.48.4A3.42,3.42,0,0,1,32.19,29.75Z"/><path class="cls-1" d="M30,26.87c0,.24-.25.38-.58.34s-.61-.22-.61-.47a.51.51,0,0,1,.61-.44A.67.67,0,0,1,30,26.87Z"/><path class="cls-1" d="M27.29,28.16a5.32,5.32,0,0,1-.6,1.55c-.33.63-.59,1-.59.72a5.51,5.51,0,0,1,.6-1.62C27,28.18,27.29,27.91,27.29,28.16Z"/><path class="cls-1" d="M24.67,34.17a13.86,13.86,0,0,1-.58,2.28c-.32,1-.58,1.55-.58,1.3a13.32,13.32,0,0,1,.58-2.22C24.42,34.53,24.68,33.92,24.67,34.17Z"/><path class="cls-1" d="M22.1,42.37a14.69,14.69,0,0,1-.58,2.43c-.32,1-.58,1.55-.58,1.27a13.75,13.75,0,0,1,.58-2.25C21.84,42.8,22.1,42.1,22.1,42.37Z"/><path class="cls-1" d="M19.51,50.15a7.61,7.61,0,0,1-.59,2c-.33.74-.59,1-.59.67a6.45,6.45,0,0,1,.59-1.69C19.25,50.38,19.51,49.87,19.51,50.15Z"/><path class="cls-1" d="M16.87,54.88a1.19,1.19,0,0,1-.61.94c-.34.12-.61-.22-.61-.49s.27-.39.61-.51S16.87,54.6,16.87,54.88Z"/><path class="cls-1" d="M14.27,54.48c0,.27-.24.28-.53-.15a3.39,3.39,0,0,1-.5-1.39c0-.27.22,0,.5.43A2.64,2.64,0,0,1,14.27,54.48Z"/><path class="cls-1" d="M12.08,50.28c0,.27-.21,0-.45-.71a8.63,8.63,0,0,1-.44-1.87c0-.28.19.15.44.87A8,8,0,0,1,12.08,50.28Z"/><path class="cls-1" d="M10.13,44.3c0,.29-.19-.06-.43-.81a10.13,10.13,0,0,1-.44-1.94c0-.3.18.1.43.87A9.83,9.83,0,0,1,10.13,44.3Z"/><path class="cls-1" d="M8.15,38.49c0,.31-.2.08-.46-.49a5.24,5.24,0,0,1-.5-1.55c0-.31.2-.13.47.43A5.42,5.42,0,0,1,8.15,38.49Z"/><path class="cls-1" d="M5.9,34.8c0,.31-.24.38-.56.25a.88.88,0,0,1-.6-.7.41.41,0,0,1,.58-.41A1.06,1.06,0,0,1,5.9,34.8Z"/><path class="cls-1" d="M78.29,39.52a3.17,3.17,0,0,1-.75.36c-.28.11-.4.14-.28,0a2.49,2.49,0,0,1,.72-.42C78.26,39.37,78.41,39.41,78.29,39.52Z"/><path class="cls-1" d="M76.33,41a4.2,4.2,0,0,0-.48.87c-.15.36-.18.54-.08.38s.3-.56.47-.9S76.44,40.84,76.33,41Z"/><path class="cls-1" d="M75.24,44.06a8.06,8.06,0,0,0-.3,1.2c-.09.47-.11.66-.05.45s.21-.74.31-1.18S75.32,43.87,75.24,44.06Z"/><path class="cls-1" d="M74.46,47.73c0,.26-.15.86-.25,1.3s-.18.54-.15.25A9,9,0,0,1,74.34,48C74.46,47.63,74.5,47.47,74.46,47.73Z"/><path class="cls-1" d="M73.42,50.91A2.6,2.6,0,0,1,73.08,52c-.19.28-.37.18-.37-.15a2,2,0,0,1,.39-1C73.3,50.6,73.43,50.59,73.42,50.91Z"/><path class="cls-1" d="M71.54,52.51c0,.34-.26.66-.61.54a1.14,1.14,0,0,1-.66-.94c0-.34.3-.41.66-.29A.77.77,0,0,1,71.54,52.51Z"/><path class="cls-1" d="M68.58,50.6c0,.31-.33.21-.73-.32a3.54,3.54,0,0,1-.73-1.53c0-.28.35,0,.75.45A2.92,2.92,0,0,1,68.58,50.6Z"/><path class="cls-1" d="M65.27,46c0,.23-.37-.13-.8-.85a5.41,5.41,0,0,1-.74-1.66c0-.18.38.25.8.92A4.59,4.59,0,0,1,65.27,46Z"/><path class="cls-1" d="M61.84,40.35c0,.12-.39-.34-.82-1a5.57,5.57,0,0,1-.71-1.39c0-.08.4.39.82,1A4.62,4.62,0,0,1,61.84,40.35Z"/><path class="cls-1" d="M58.49,35.36a4.2,4.2,0,0,1-.79-.8,4.72,4.72,0,0,1-.64-.8,4.74,4.74,0,0,1,.78.74A3.1,3.1,0,0,1,58.49,35.36Z"/><path class="cls-1" d="M55.42,32.65a1.76,1.76,0,0,0-.7-.06,1.73,1.73,0,0,0-.55.12,5.38,5.38,0,0,0,.71-.07A1.54,1.54,0,0,1,55.42,32.65Z"/><path class="cls-1" d="M52.59,33.46a5,5,0,0,0-.73.5,5.54,5.54,0,0,0-.59.46,8,8,0,0,0,.75-.49C52.38,33.68,52.63,33.46,52.59,33.46Z"/><path class="cls-1" d="M49.62,35.9s-.39.42-.76.8a3.19,3.19,0,0,1-.6.55c.05-.07.4-.39.78-.75A7.72,7.72,0,0,0,49.62,35.9Z"/><path class="cls-1" d="M46.6,38.95a6.84,6.84,0,0,1-.77.92c-.38.38-.64.54-.58.42a5.62,5.62,0,0,1,.78-.83C46.4,39.09,46.66,38.85,46.6,38.95Z"/><path class="cls-1" d="M43.61,41.72a2.72,2.72,0,0,1-.76.81c-.36.26-.61.27-.55.1a2.4,2.4,0,0,1,.77-.69C43.43,41.7,43.67,41.57,43.61,41.72Z"/><path class="cls-1" d="M40.72,43.32a.81.81,0,0,1-.73.45c-.33,0-.54-.32-.48-.5s.37-.18.71-.15S40.79,43.14,40.72,43.32Z"/><path class="cls-1" d="M38.2,42.2c-.06.17-.33.05-.59-.36a2,2,0,0,1-.38-1.11c.05-.15.32.14.59.53S38.26,42,38.2,42.2Z"/><path class="cls-1" d="M36.11,38.41c0,.11-.27-.23-.51-.85a4.35,4.35,0,0,1-.35-1.31c0-.08.27.37.51,1A3.25,3.25,0,0,1,36.11,38.41Z"/><path class="cls-1" d="M34.22,33.49a3.47,3.47,0,0,1-.47-1,7.71,7.71,0,0,1-.38-1.17,7,7,0,0,1,.49,1.06A4.57,4.57,0,0,1,34.22,33.49Z"/><path class="cls-1" d="M32.26,28.93l-.5-.84a5.29,5.29,0,0,0-.47-.71s.25.4.52.82S32.28,28.95,32.26,28.93Z"/><path class="cls-1" d="M30,26.19a1.07,1.07,0,0,0-.59-.26c-.33-.07-.6.05-.59.11s.3,0,.62.1S30,26.24,30,26.19Z"/><path class="cls-1" d="M27.34,27.45a3.79,3.79,0,0,0-.61,1,8.54,8.54,0,0,0-.58,1.26,9.06,9.06,0,0,0,.61-1.08A9.59,9.59,0,0,0,27.34,27.45Z"/><path class="cls-1" d="M24.71,33.36s-.27.74-.6,1.71-.58,1.77-.57,1.79.27-.73.6-1.7S24.72,33.39,24.71,33.36Z"/><path class="cls-1" d="M22.12,41.38s-.27.88-.59,1.89S20.95,45,21,45s.27-.75.59-1.75S22.12,41.39,22.12,41.38Z"/><path class="cls-1" d="M19.52,49s-.27.76-.59,1.49a6.36,6.36,0,0,1-.59,1.12s.27-.51.6-1.23S19.52,49,19.52,49Z"/><path class="cls-1" d="M16.87,53.66a1.34,1.34,0,0,1-.61.5.61.61,0,0,1-.61,0,4.19,4.19,0,0,0,.61-.12A6,6,0,0,0,16.87,53.66Z"/><path class="cls-1" d="M14.27,53.29s-.24-.15-.52-.58a5,5,0,0,1-.51-1c0-.05.22.39.5.83S14.27,53.24,14.27,53.29Z"/><path class="cls-1" d="M12.06,49a6.59,6.59,0,0,1-.45-1.13c-.25-.73-.46-1.46-.47-1.55s.18.52.44,1.27S12,48.89,12.06,49Z"/><path class="cls-1" d="M10,42.76a9,9,0,0,1-.42-1.21c-.25-.78-.46-1.53-.48-1.65a10.17,10.17,0,0,1,.42,1.23C9.81,41.94,10,42.65,10,42.76Z"/><path class="cls-1" d="M8,36.73c0,.14-.17-.25-.44-.83A10.55,10.55,0,0,1,7,34.63c0-.15.18.15.45.74A10,10,0,0,1,8,36.73Z"/><path class="cls-1" d="M5.75,32.95c0,.16-.2.11-.52,0s-.61-.25-.64-.42.21-.3.54-.18A1.12,1.12,0,0,1,5.75,32.95Z"/><path class="cls-1" d="M79.54,39.13a3.29,3.29,0,0,0-.88.12c-.29.09-.36.2-.19.18a6.22,6.22,0,0,0,.84-.2C79.61,39.17,79.72,39.13,79.54,39.13Z"/><path class="cls-1" d="M77.44,40.32a1.42,1.42,0,0,0-.62.6c-.18.3-.2.5-.06.43a2.62,2.62,0,0,0,.61-.63C77.56,40.44,77.6,40.28,77.44,40.32Z"/><path class="cls-1" d="M76.05,42.85a3.21,3.21,0,0,0-.45.93c-.13.39-.16.58-.06.42s.3-.57.45-.93S76.17,42.74,76.05,42.85Z"/><path class="cls-1" d="M74.92,45.87c-.07.21-.23.71-.37,1.08s-.23.45-.18.2a5.2,5.2,0,0,1,.39-1C74.93,45.77,75,45.65,74.92,45.87Z"/><path class="cls-1" d="M73.58,48.47a2,2,0,0,1-.41,1c-.21.24-.4.13-.39-.19a1.48,1.48,0,0,1,.45-.92C73.46,48.15,73.6,48.18,73.58,48.47Z"/><path class="cls-1" d="M71.54,49.79c0,.34-.26.65-.61.54a1,1,0,0,1-.65-.87c0-.32.3-.43.65-.34A.73.73,0,0,1,71.54,49.79Z"/><path class="cls-1" d="M68.62,48.21c0,.28-.33.21-.72-.24a2.7,2.7,0,0,1-.7-1.28c0-.23.34-.05.73.34A2.16,2.16,0,0,1,68.62,48.21Z"/><path class="cls-1" d="M65.42,44.43c0,.16-.37-.16-.79-.76a4.23,4.23,0,0,1-.7-1.29c0-.1.39.28.79.81A3.28,3.28,0,0,1,65.42,44.43Z"/><path class="cls-1" d="M62.11,39.81a5.43,5.43,0,0,1-.82-1,10.92,10.92,0,0,1-.66-1s.41.48.82,1A4.27,4.27,0,0,1,62.11,39.81Z"/><path class="cls-1" d="M58.87,35.72a7,7,0,0,0-.81-.92c-.39-.38-.65-.54-.59-.39a4.2,4.2,0,0,0,.8.85C58.66,35.6,58.93,35.82,58.87,35.72Z"/><path class="cls-1" d="M55.86,33.5a.76.76,0,0,0-.74-.38c-.34,0-.58.24-.51.42s.4.28.75.24S55.93,33.68,55.86,33.5Z"/><path class="cls-1" d="M53,34.16c-.07-.16-.41-.11-.77.13s-.6.53-.53.66.42.07.78-.14S53.12,34.32,53,34.16Z"/><path class="cls-1" d="M50.13,36.16c-.07-.1-.43.1-.8.42s-.61.62-.54.68.44-.11.81-.4S50.2,36.26,50.13,36.16Z"/><path class="cls-1" d="M47.16,38.66a2.69,2.69,0,0,0-.81.57c-.37.32-.6.54-.52.52a3.68,3.68,0,0,0,.82-.52C47,39,47.24,38.68,47.16,38.66Z"/><path class="cls-1" d="M44.21,40.94c-.09.05-.45.32-.81.54s-.58.29-.49.22.45-.25.81-.45A2.65,2.65,0,0,0,44.21,40.94Z"/><path class="cls-1" d="M41.35,42.24a1.17,1.17,0,0,1-.78.28c-.33,0-.52-.23-.43-.32s.43-.06.76,0S41.44,42.15,41.35,42.24Z"/><path class="cls-1" d="M38.79,41.28c-.09.07-.39-.1-.66-.47s-.44-.76-.36-.8.37.26.66.6S38.87,41.21,38.79,41.28Z"/><path class="cls-1" d="M36.59,38a2.88,2.88,0,0,1-.58-.94,2.86,2.86,0,0,1-.35-.92,8.33,8.33,0,0,1,.58,1C36.5,37.66,36.66,38,36.59,38Z"/><path class="cls-1" d="M34.54,33.77,34,32.62c-.25-.54-.43-.87-.39-.73A11.06,11.06,0,0,0,34.17,33Z"/><path class="cls-1" d="M32.45,29.83a3.54,3.54,0,0,0-.54-1.06c-.28-.38-.49-.49-.47-.28a2.7,2.7,0,0,0,.56,1C32.28,29.86,32.48,30,32.45,29.83Z"/><path class="cls-1" d="M30.11,27.47a.76.76,0,0,0-.61-.61.5.5,0,0,0-.58.48c0,.25.3.37.63.42S30.12,27.72,30.11,27.47Z"/><path class="cls-1" d="M27.43,28.72c0-.24-.29,0-.62.58a4.66,4.66,0,0,0-.57,1.57c0,.23.29-.13.62-.72A4,4,0,0,0,27.43,28.72Z"/><path class="cls-1" d="M24.78,34.41c0-.21-.28.37-.61,1.31a11.62,11.62,0,0,0-.57,2.07c0,.2.28-.41.61-1.34A10.58,10.58,0,0,0,24.78,34.41Z"/><path class="cls-1" d="M22.16,42.17c0-.17-.27.52-.6,1.5a14.83,14.83,0,0,0-.58,2c0,.16.27-.44.6-1.41A13,13,0,0,0,22.16,42.17Z"/><path class="cls-1" d="M19.54,49.52c0-.14-.27.43-.6,1.14A9.06,9.06,0,0,0,18.34,52c0,.12.27-.23.6-.92A7.49,7.49,0,0,0,19.54,49.52Z"/><path class="cls-1" d="M16.87,54c0-.11-.27.07-.61.19s-.61.14-.61.25.27.26.61.14A1,1,0,0,0,16.87,54Z"/><path class="cls-1" d="M14.25,53.56a4.79,4.79,0,0,0-.53-.89c-.29-.46-.52-.87-.53-.79A4.22,4.22,0,0,0,13.71,53C14,53.47,14.25,53.66,14.25,53.56Z"/><path class="cls-1" d="M12,49a14.44,14.44,0,0,0-.45-1.45,12.74,12.74,0,0,0-.5-1.38,12,12,0,0,0,.45,1.56A6,6,0,0,0,12,49Z"/><path class="cls-1" d="M9.88,42.42a13.42,13.42,0,0,0-.42-1.51,14.77,14.77,0,0,0-.52-1.51,13.73,13.73,0,0,0,.42,1.5A13.49,13.49,0,0,0,9.88,42.42Z"/><path class="cls-1" d="M7.77,36.06A7.1,7.1,0,0,0,7.34,35a12.37,12.37,0,0,0-.58-1.14c0-.05.16.35.44,1S7.74,36,7.77,36.06Z"/><path class="cls-1" d="M5.45,32c0,.07-.17-.08-.5-.21s-.63-.18-.67-.26.19-.15.51,0A1.84,1.84,0,0,1,5.45,32Z"/><path class="cls-1" d="M81.13,39.38a2.75,2.75,0,0,0-1,0c-.31.06-.38.17-.18.2a4.16,4.16,0,0,0,.91-.06C81.22,39.47,81.33,39.43,81.13,39.38Z"/><path class="cls-1" d="M78.82,40.18a1.32,1.32,0,0,0-.73.39c-.22.22-.26.39-.1.36a2.68,2.68,0,0,0,.71-.43C78.94,40.3,79,40.18,78.82,40.18Z"/><path class="cls-1" d="M77.07,42a2.87,2.87,0,0,0-.57.7c-.18.3-.24.43-.13.3l.56-.71C77.14,42.07,77.2,41.94,77.07,42Z"/><path class="cls-1" d="M75.52,44.26a6,6,0,0,1-.48.87c-.19.28-.31.3-.25.07a2.38,2.38,0,0,1,.49-.84C75.5,44.12,75.6,44.07,75.52,44.26Z"/><path class="cls-1" d="M73.8,46.17a1.38,1.38,0,0,1-.49.86c-.25.17-.45,0-.44-.29a1.05,1.05,0,0,1,.52-.8C73.66,45.8,73.84,45.88,73.8,46.17Z"/><path class="cls-1" d="M71.55,47.07a.54.54,0,0,1-.62.57.84.84,0,0,1-.63-.77c0-.32.29-.48.64-.44A.66.66,0,0,1,71.55,47.07Z"/><path class="cls-1" d="M68.69,46c0,.27-.32.26-.7-.07a1.84,1.84,0,0,1-.67-1c0-.21.34-.13.71.15A1.46,1.46,0,0,1,68.69,46Z"/><path class="cls-1" d="M65.61,43.25c0,.14-.36-.11-.76-.56a2.92,2.92,0,0,1-.66-1c0-.07.38.2.76.59S65.64,43.11,65.61,43.25Z"/><path class="cls-1" d="M62.46,39.84a11.25,11.25,0,0,1-.8-.84c-.39-.44-.67-.71-.62-.62a10.08,10.08,0,0,0,.79.81A4.85,4.85,0,0,1,62.46,39.84Z"/><path class="cls-1" d="M59.35,36.83a3.05,3.05,0,0,0-.8-.84c-.37-.28-.62-.3-.55-.09a2.08,2.08,0,0,0,.79.76C59.16,36.9,59.41,37,59.35,36.83Z"/><path class="cls-1" d="M56.43,35.3a.78.78,0,0,0-.75-.49c-.34,0-.56.27-.49.52a.75.75,0,0,0,.76.4C56.28,35.72,56.5,35.55,56.43,35.3Z"/><path class="cls-1" d="M53.64,35.76c-.08-.22-.42-.28-.78-.11s-.58.48-.5.68.43.22.79.07S53.72,36,53.64,35.76Z"/><path class="cls-1" d="M50.77,37.21c-.08-.15-.44-.08-.81.16s-.59.54-.5.65.45,0,.81-.17S50.85,37.36,50.77,37.21Z"/><path class="cls-1" d="M47.86,39.06c-.09-.07-.46.08-.82.33s-.58.45-.48.48a1.86,1.86,0,0,0,.82-.31C47.74,39.36,48,39.13,47.86,39.06Z"/><path class="cls-1" d="M45,40.73a5.66,5.66,0,0,0-.82.34l-.46.2c.1,0,.47-.16.82-.29S45.07,40.72,45,40.73Z"/><path class="cls-1" d="M42.15,41.64a1.86,1.86,0,0,1-.81.17c-.34,0-.52-.14-.41-.2a2.75,2.75,0,0,1,.79,0C42.06,41.56,42.26,41.58,42.15,41.64Z"/><path class="cls-1" d="M39.53,40.92c-.1,0-.42-.13-.71-.43s-.46-.58-.37-.58a2.91,2.91,0,0,1,.7.52C39.45,40.69,39.63,40.88,39.53,40.92Z"/><path class="cls-1" d="M37.19,38.3a5.06,5.06,0,0,1-.64-.87,4.54,4.54,0,0,1-.37-.64c.07.1.35.51.63.91S37.26,38.35,37.19,38.3Z"/><path class="cls-1" d="M35,34.85a9.15,9.15,0,0,0-.59-1.1c-.27-.45-.46-.63-.41-.43a4.39,4.39,0,0,0,.59,1.08C34.84,34.8,35,35,35,34.85Z"/><path class="cls-1" d="M32.71,31.67a2.46,2.46,0,0,0-.58-1.06c-.29-.31-.51-.29-.49,0a1.86,1.86,0,0,0,.59,1C32.53,31.87,32.74,31.92,32.71,31.67Z"/><path class="cls-1" d="M30.25,29.82a.78.78,0,0,0-.63-.71.6.6,0,0,0-.58.65.62.62,0,0,0,.64.54C30,30.32,30.27,30.14,30.25,29.82Z"/><path class="cls-1" d="M27.55,31c0-.32-.3-.21-.63.37a4.32,4.32,0,0,0-.58,1.68c0,.3.29,0,.63-.55A3.55,3.55,0,0,0,27.55,31Z"/><path class="cls-1" d="M24.87,36.48c0-.28-.29.18-.62,1.09a9.69,9.69,0,0,0-.58,2.15c0,.27.29-.27.62-1.15A8.76,8.76,0,0,0,24.87,36.48Z"/><path class="cls-1" d="M22.22,43.91c0-.24-.28.35-.61,1.28A11.28,11.28,0,0,0,21,47.27c0,.22.28-.31.61-1.23A10.4,10.4,0,0,0,22.22,43.91Z"/><path class="cls-1" d="M19.56,51c0-.2-.27.26-.61.94a6.23,6.23,0,0,0-.6,1.47c0,.19.27-.11.61-.77A6,6,0,0,0,19.56,51Z"/><path class="cls-1" d="M16.87,55.23c0-.17-.27-.08-.61,0s-.61.19-.61.36.27.36.61.26A.94.94,0,0,0,16.87,55.23Z"/><path class="cls-1" d="M14.23,54.62a3.85,3.85,0,0,0-.54-1.07c-.3-.49-.54-.88-.55-.74a4.14,4.14,0,0,0,.53,1.27C14,54.59,14.22,54.78,14.23,54.62Z"/><path class="cls-1" d="M11.87,49.72a11,11,0,0,0-.47-1.65,6.14,6.14,0,0,0-.52-1.37,10.55,10.55,0,0,0,.47,1.73C11.62,49.28,11.86,49.83,11.87,49.72Z"/><path class="cls-1" d="M9.68,42.75A10.8,10.8,0,0,0,9.24,41a7.87,7.87,0,0,0-.55-1.51,11,11,0,0,0,.44,1.67A8.19,8.19,0,0,0,9.68,42.75Z"/><path class="cls-1" d="M7.47,36A5.33,5.33,0,0,0,7,34.72a5.33,5.33,0,0,0-.6-1.13,7.21,7.21,0,0,0,.45,1.11A9.86,9.86,0,0,0,7.47,36Z"/><path class="cls-1" d="M5.07,31.66a1.48,1.48,0,0,0-.49-.33c-.33-.15-.64-.17-.69-.21s.18-.09.51.07A3.48,3.48,0,0,1,5.07,31.66Z"/><path class="cls-1" d="M82.77,39.73a5.56,5.56,0,0,0-1-.05c-.33,0-.42.09-.23.1s.59,0,.93,0S83,39.76,82.77,39.73Z"/><path class="cls-1" d="M80.24,40.12a2.7,2.7,0,0,0-.8.27c-.26.14-.34.24-.19.18l.77-.32C80.31,40.15,80.41,40.1,80.24,40.12Z"/><path class="cls-1" d="M78.12,41.27l-.66.54c-.23.2-.34.25-.23.1a2.52,2.52,0,0,1,.65-.56C78.14,41.2,78.25,41.17,78.12,41.27Z"/><path class="cls-1" d="M76.15,42.69a2,2,0,0,1-.57.7c-.24.19-.4.13-.35-.11a1.24,1.24,0,0,1,.57-.69C76.07,42.45,76.22,42.49,76.15,42.69Z"/><path class="cls-1" d="M74,43.89a1,1,0,0,1-.55.73c-.28.11-.51-.09-.5-.4a.79.79,0,0,1,.57-.69C73.86,43.44,74.07,43.6,74,43.89Z"/><path class="cls-1" d="M71.56,44.35a.61.61,0,0,1-.62.61.68.68,0,0,1-.62-.66.59.59,0,0,1,.62-.55A.6.6,0,0,1,71.56,44.35Z"/><path class="cls-1" d="M68.76,43.84c0,.27-.31.35-.67.14s-.65-.58-.64-.81.32-.26.68-.1A1,1,0,0,1,68.76,43.84Z"/><path class="cls-1" d="M65.81,42.13c0,.15-.35,0-.72-.27s-.66-.61-.62-.69.36,0,.72.27S65.84,42,65.81,42.13Z"/><path class="cls-1" d="M62.81,40a6.23,6.23,0,0,1-.76-.54c-.38-.29-.64-.45-.59-.38a6,6,0,0,0,.75.5A2.4,2.4,0,0,1,62.81,40Z"/><path class="cls-1" d="M59.84,38.07a2,2,0,0,0-.77-.6c-.36-.18-.6-.12-.53.06a1.35,1.35,0,0,0,.75.51C59.65,38.17,59.9,38.2,59.84,38.07Z"/><path class="cls-1" d="M57,37.25a.8.8,0,0,0-.74-.41c-.34,0-.56.21-.49.43s.4.36.74.37S57.08,37.47,57,37.25Z"/><path class="cls-1" d="M54.25,37.49c-.07-.19-.42-.29-.77-.18s-.57.36-.5.52.42.2.76.12S54.33,37.68,54.25,37.49Z"/><path class="cls-1" d="M51.44,38.38c-.08-.13-.43-.11-.79,0s-.57.38-.49.47.43,0,.78-.08S51.51,38.51,51.44,38.38Z"/><path class="cls-1" d="M48.59,39.56a1.61,1.61,0,0,0-.8.2c-.35.16-.57.3-.48.31a3.43,3.43,0,0,0,.8-.21C48.46,39.74,48.68,39.61,48.59,39.56Z"/><path class="cls-1" d="M45.76,40.61l-.81.25c-.35.1-.55.13-.45.07a4.34,4.34,0,0,1,.8-.23C45.64,40.62,45.85,40.58,45.76,40.61Z"/><path class="cls-1" d="M43,41.12a2,2,0,0,1-.8.14c-.34,0-.53-.08-.43-.16a2.2,2.2,0,0,1,.79-.14C42.88,40.93,43.07,41,43,41.12Z"/><path class="cls-1" d="M40.3,40.63a1.13,1.13,0,0,1-.74-.28c-.31-.22-.49-.44-.4-.45a2.18,2.18,0,0,1,.72.33C40.2,40.41,40.39,40.58,40.3,40.63Z"/><path class="cls-1" d="M37.8,38.69a4.34,4.34,0,0,1-.67-.67l-.41-.48c.06.07.36.37.66.67S37.88,38.72,37.8,38.69Z"/><path class="cls-1" d="M35.4,36.06a5.1,5.1,0,0,0-.63-.88c-.29-.34-.5-.46-.46-.28a2.65,2.65,0,0,0,.63.83C35.25,36,35.45,36.19,35.4,36.06Z"/><path class="cls-1" d="M33,33.65a1.73,1.73,0,0,0-.61-.87c-.31-.23-.54-.16-.52.09a1.28,1.28,0,0,0,.62.77C32.77,33.85,33,33.87,33,33.65Z"/><path class="cls-1" d="M30.4,32.34a.69.69,0,0,0-.64-.6.6.6,0,0,0-.59.61c0,.29.3.45.65.45S30.41,32.62,30.4,32.34Z"/><path class="cls-1" d="M27.67,33.54c0-.28-.3-.19-.63.36a4,4,0,0,0-.58,1.58c0,.27.3-.05.63-.58A3.19,3.19,0,0,0,27.67,33.54Z"/><path class="cls-1" d="M25,38.71c0-.25-.29.19-.62,1.06a9.12,9.12,0,0,0-.59,2c0,.23.29-.31.62-1.16A8.11,8.11,0,0,0,25,38.71Z"/><path class="cls-1" d="M22.28,45.8c0-.21-.28.35-.62,1.25a10.79,10.79,0,0,0-.59,2c0,.19.28-.35.62-1.23A9.77,9.77,0,0,0,22.28,45.8Z"/><path class="cls-1" d="M19.59,52.53c0-.17-.28.27-.61.91a6.08,6.08,0,0,0-.6,1.38c0,.16.28-.16.61-.78A5.66,5.66,0,0,0,19.59,52.53Z"/><path class="cls-1" d="M16.88,56.58c0-.15-.27-.06-.61,0s-.62.16-.62.3.28.3.62.21S16.88,56.72,16.88,56.58Z"/><path class="cls-1" d="M14.2,55.81a4.87,4.87,0,0,0-.56-1.1c-.31-.53-.56-1-.56-.84a4.87,4.87,0,0,0,.55,1.27C13.94,55.69,14.2,55.94,14.2,55.81Z"/><path class="cls-1" d="M11.77,50.57a13.87,13.87,0,0,0-.49-1.71,9.07,9.07,0,0,0-.55-1.49,13.16,13.16,0,0,0,.49,1.77A6.31,6.31,0,0,0,11.77,50.57Z"/><path class="cls-1" d="M9.47,43.17A13.41,13.41,0,0,0,9,41.4a11,11,0,0,0-.57-1.63,14.53,14.53,0,0,0,.47,1.71A13.22,13.22,0,0,0,9.47,43.17Z"/><path class="cls-1" d="M7.16,36a6.75,6.75,0,0,0-.46-1.31,7.58,7.58,0,0,0-.62-1.22s.17.42.48,1.14S7.12,36,7.16,36Z"/><path class="cls-1" d="M4.69,31.36A2.51,2.51,0,0,0,4.18,31c-.33-.17-.65-.2-.7-.26s.19-.12.53.06A2.81,2.81,0,0,1,4.69,31.36Z"/><path class="cls-1" d="M84.18,39.64a3.43,3.43,0,0,1-.92.05c-.34,0-.48,0-.34-.1a2.23,2.23,0,0,1,.87-.13C84.14,39.48,84.32,39.58,84.18,39.64Z"/><path class="cls-1" d="M81.48,39.71a3.24,3.24,0,0,1-.8.26c-.3.07-.44.06-.32-.06a1.61,1.61,0,0,1,.77-.32C81.45,39.55,81.61,39.62,81.48,39.71Z"/><path class="cls-1" d="M79,40.25a1.6,1.6,0,0,1-.7.46c-.28.11-.44,0-.36-.14a1,1,0,0,1,.68-.49C79,40,79.13,40.09,79,40.25Z"/><path class="cls-1" d="M76.67,40.95a1,1,0,0,1-.62.6c-.29.1-.49,0-.45-.31a.81.81,0,0,1,.62-.61C76.52,40.57,76.73,40.71,76.67,40.95Z"/><path class="cls-1" d="M74.24,41.51a.73.73,0,0,1-.6.65.49.49,0,0,1-.56-.52.66.66,0,0,1,.61-.63A.48.48,0,0,1,74.24,41.51Z"/><path class="cls-1" d="M71.56,41.62a.66.66,0,0,1-.62.64.58.58,0,0,1-.61-.58.67.67,0,0,1,.61-.64A.57.57,0,0,1,71.56,41.62Z"/><path class="cls-1" d="M68.81,41.54c0,.3-.29.47-.64.37a.8.8,0,0,1-.62-.66c0-.26.3-.42.65-.36A.71.71,0,0,1,68.81,41.54Z"/><path class="cls-1" d="M66,40.75c0,.2-.32.22-.68.06s-.63-.4-.61-.54.33-.19.68-.09S66,40.55,66,40.75Z"/><path class="cls-1" d="M63.11,39.68c0,.08-.35,0-.71-.16s-.61-.26-.57-.29a1.87,1.87,0,0,1,.7.1C62.88,39.43,63.15,39.6,63.11,39.68Z"/><path class="cls-1" d="M60.27,38.78a3.47,3.47,0,0,0-.72-.24c-.35-.08-.59,0-.54,0a2.07,2.07,0,0,0,.71.14A3.4,3.4,0,0,0,60.27,38.78Z"/><path class="cls-1" d="M57.51,38.54c-.05-.09-.37-.14-.71-.16s-.57.09-.51.17.37.12.7.14S57.56,38.63,57.51,38.54Z"/><path class="cls-1" d="M54.78,38.61a1.12,1.12,0,0,0-.73-.08c-.34.05-.57.17-.52.22a2.08,2.08,0,0,0,.72,0C54.59,38.71,54.83,38.67,54.78,38.61Z"/><path class="cls-1" d="M52,39a2.55,2.55,0,0,0-.74.09,2,2,0,0,0-.51.16c.06,0,.39-.1.73-.16S52.06,39,52,39Z"/><path class="cls-1" d="M49.22,39.59a4.29,4.29,0,0,1-.75.22c-.35.08-.57.11-.5,0a1.74,1.74,0,0,1,.74-.26C49,39.53,49.28,39.54,49.22,39.59Z"/><path class="cls-1" d="M46.43,40.1a1.41,1.41,0,0,1-.76.27c-.34,0-.56,0-.48-.14a1.11,1.11,0,0,1,.75-.29C46.28,39.91,46.51,40,46.43,40.1Z"/><path class="cls-1" d="M43.68,40.26c-.07.14-.41.18-.75.21s-.56-.08-.48-.23a1.09,1.09,0,0,1,.75-.3C43.55,39.92,43.76,40.12,43.68,40.26Z"/><path class="cls-1" d="M41,40c-.07.12-.4.11-.73,0s-.53-.36-.46-.46.38-.08.71.05S41,39.85,41,40Z"/><path class="cls-1" d="M38.34,38.61c-.06.06-.36-.1-.68-.35s-.53-.45-.48-.48a1.61,1.61,0,0,1,.67.31C38.17,38.3,38.39,38.54,38.34,38.61Z"/><path class="cls-1" d="M35.77,36.72s-.33-.27-.64-.52-.54-.37-.51-.31a5.22,5.22,0,0,0,.64.44A3.12,3.12,0,0,1,35.77,36.72Z"/><path class="cls-1" d="M33.19,35a1.52,1.52,0,0,0-.63-.52c-.32-.16-.58-.13-.56,0s.3.26.63.4S33.21,35.08,33.19,35Z"/><path class="cls-1" d="M30.52,34.12c0-.14-.3-.32-.64-.31s-.61.22-.6.36.29.17.64.15S30.53,34.25,30.52,34.12Z"/><path class="cls-1" d="M27.77,35.29c0-.14-.3,0-.63.56a4.14,4.14,0,0,0-.59,1.29c0,.13.29-.31.63-.82A3.69,3.69,0,0,0,27.77,35.29Z"/><path class="cls-1" d="M25,40.24c0-.11-.29.39-.63,1.22a11.39,11.39,0,0,0-.6,1.74,7.55,7.55,0,0,0,.62-1.37A10.92,10.92,0,0,0,25,40.24Z"/><path class="cls-1" d="M22.33,47a7.69,7.69,0,0,0-.62,1.39,17.77,17.77,0,0,0-.6,1.68,11.57,11.57,0,0,0,.62-1.43A15.08,15.08,0,0,0,22.33,47Z"/><path class="cls-1" d="M19.61,53.47A10.14,10.14,0,0,0,19,54.54c-.34.61-.61,1.09-.61,1.12a6.5,6.5,0,0,0,.62-1A9.69,9.69,0,0,0,19.61,53.47Z"/><path class="cls-1" d="M16.88,57.33s-.28.12-.62.21-.62.07-.62.09a1,1,0,0,0,.62,0A1.44,1.44,0,0,0,16.88,57.33Z"/><path class="cls-1" d="M14.18,56.45s-.26-.41-.57-1S13,54.4,13,54.4s.25.55.56,1.12A6.67,6.67,0,0,0,14.18,56.45Z"/><path class="cls-1" d="M11.68,50.93s-.23-.71-.52-1.63-.55-1.71-.56-1.74.22.72.52,1.66S11.67,50.91,11.68,50.93Z"/><path class="cls-1" d="M9.29,43.15c0,.05-.2-.74-.49-1.72s-.55-1.79-.58-1.86.2.63.5,1.63S9.27,43.09,9.29,43.15Z"/><path class="cls-1" d="M6.89,35.58c0,.1-.19-.52-.5-1.25S5.8,33,5.77,32.91a4.33,4.33,0,0,1,.51,1C6.59,34.7,6.86,35.49,6.89,35.58Z"/><path class="cls-1" d="M4.35,30.7c0,.12-.2-.08-.53-.27s-.65-.27-.68-.39.22-.25.55-.06A1.77,1.77,0,0,1,4.35,30.7Z"/><path class="cls-1" d="M85.06,38.57c-.07.22-.43.33-.78.31s-.55-.16-.48-.37a.76.76,0,0,1,.73-.4C84.88,38.13,85.13,38.35,85.06,38.57Z"/><path class="cls-1" d="M82.3,38.51c-.07.22-.41.37-.74.39s-.53-.12-.47-.35a.74.74,0,0,1,.7-.45C82.12,38.09,82.36,38.3,82.3,38.51Z"/><path class="cls-1" d="M79.62,38.63a.75.75,0,0,1-.68.49c-.32,0-.54-.14-.51-.41a.68.68,0,0,1,.66-.54C79.43,38.16,79.67,38.38,79.62,38.63Z"/><path class="cls-1" d="M77,38.8a.69.69,0,0,1-.63.59.49.49,0,0,1-.56-.52.64.64,0,0,1,.62-.61A.53.53,0,0,1,77,38.8Z"/><ellipse class="cls-1" cx="73.7" cy="38.93" rx="0.61" ry="0.62" transform="translate(-0.27 0.52) rotate(-0.4)"/><path class="cls-1" d="M71.56,38.89a.67.67,0,0,1-.62.65.56.56,0,0,1-.61-.58.66.66,0,0,1,.61-.66A.6.6,0,0,1,71.56,38.89Z"/><path class="cls-1" d="M68.83,39a.57.57,0,0,1-.62.57.65.65,0,0,1-.62-.62.6.6,0,0,1,.62-.59A.64.64,0,0,1,68.83,39Z"/><path class="cls-1" d="M66.08,38.8c0,.29-.29.47-.64.41s-.61-.28-.6-.53a.57.57,0,0,1,.63-.46A.62.62,0,0,1,66.08,38.8Z"/><path class="cls-1" d="M63.31,38.53c0,.22-.31.32-.66.27s-.6-.19-.59-.38.31-.36.65-.35S63.33,38.32,63.31,38.53Z"/><path class="cls-1" d="M60.55,38.33c0,.15-.32.21-.67.2s-.59-.08-.57-.22S59.63,38,60,38,60.58,38.18,60.55,38.33Z"/><path class="cls-1" d="M57.82,38.37c0,.14-.32.26-.66.24s-.59-.09-.56-.24.31-.32.65-.3S57.85,38.23,57.82,38.37Z"/><path class="cls-1" d="M55.1,38.35c0,.15-.33.22-.67.23s-.59-.05-.57-.21.31-.34.65-.34S55.12,38.21,55.1,38.35Z"/><path class="cls-1" d="M52.36,38.43c0,.17-.33.29-.67.32s-.59-.06-.56-.25.32-.4.66-.41S52.38,38.26,52.36,38.43Z"/><path class="cls-1" d="M49.61,38.58c0,.21-.34.37-.68.4s-.58-.1-.55-.34a.68.68,0,0,1,.66-.47C49.38,38.16,49.64,38.37,49.61,38.58Z"/><path class="cls-1" d="M46.87,38.7c0,.25-.35.43-.69.44s-.58-.16-.55-.42a.66.66,0,0,1,.67-.5C46.64,38.21,46.9,38.45,46.87,38.7Z"/><path class="cls-1" d="M44.13,38.69c0,.26-.34.37-.68.4s-.59-.16-.55-.42a.68.68,0,0,1,.67-.5A.51.51,0,0,1,44.13,38.69Z"/><path class="cls-1" d="M41.39,38.47c0,.26-.34.37-.68.26s-.57-.38-.54-.63.32-.39.66-.29A.71.71,0,0,1,41.39,38.47Z"/><path class="cls-1" d="M38.68,37.49c0,.23-.33.24-.66.06s-.57-.45-.55-.65.31-.29.64-.13S38.71,37.26,38.68,37.49Z"/><path class="cls-1" d="M36,36.13c0,.18-.3.12-.63-.05s-.59-.39-.57-.55.29-.21.62-.06S36,36,36,36.13Z"/><path class="cls-1" d="M33.31,34.89c0,.13-.29.08-.62,0s-.6-.23-.6-.35.28-.22.62-.11S33.32,34.76,33.31,34.89Z"/><path class="cls-1" d="M30.59,34.26c0,.12-.29.14-.63.15s-.61,0-.61-.1S29.63,34,30,34,30.59,34.14,30.59,34.26Z"/><path class="cls-1" d="M27.84,35.42a5.18,5.18,0,0,1-.63,1c-.34.5-.61.95-.61.82a4.58,4.58,0,0,1,.62-1.28C27.57,35.44,27.85,35.29,27.84,35.42Z"/><path class="cls-1" d="M25.1,40.21a12.36,12.36,0,0,1-.62,1.59c-.34.8-.61,1.42-.61,1.27a10.36,10.36,0,0,1,.62-1.78C24.83,40.51,25.1,40.07,25.1,40.21Z"/><path class="cls-1" d="M22.36,46.79a11.23,11.23,0,0,1-.62,1.74c-.34.83-.61,1.4-.61,1.23A10.27,10.27,0,0,1,21.75,48C22.09,47.13,22.36,46.64,22.36,46.79Z"/><path class="cls-1" d="M19.62,53a5.16,5.16,0,0,1-.62,1.4c-.34.59-.62.9-.62.72A4.91,4.91,0,0,1,19,53.79C19.35,53.2,19.62,52.85,19.62,53Z"/><path class="cls-1" d="M16.88,56.78c0,.18-.28.47-.62.56s-.62-.08-.62-.25.28-.31.62-.4S16.88,56.6,16.88,56.78Z"/><path class="cls-1" d="M14.17,55.88c0,.17-.27-.09-.59-.67A5.19,5.19,0,0,1,13,53.76c0-.18.26.21.58.8A5.09,5.09,0,0,1,14.17,55.88Z"/><path class="cls-1" d="M11.63,50.17c0,.19-.24-.43-.55-1.39a15.62,15.62,0,0,1-.56-2.1c0-.2.24.42.55,1.39A15.61,15.61,0,0,1,11.63,50.17Z"/><path class="cls-1" d="M9.17,42.11c0,.21-.23-.49-.53-1.51a19.48,19.48,0,0,1-.57-2.19c0-.23.23.36.54,1.39A18.59,18.59,0,0,1,9.17,42.11Z"/><path class="cls-1" d="M6.71,34.28c0,.24-.22-.3-.53-1.06a9.58,9.58,0,0,1-.6-1.7c0-.25.23.05.55.82A9.84,9.84,0,0,1,6.71,34.28Z"/><path class="cls-1" d="M4.13,29.25c0,.25-.23.12-.57-.06s-.63-.36-.65-.6a.37.37,0,0,1,.59-.3A1.51,1.51,0,0,1,4.13,29.25Z"/><path class="cls-1" d="M85.23,36.28a.59.59,0,0,1-.62.5.58.58,0,0,1-.6-.51c0-.26.29-.43.62-.42S85.23,36,85.23,36.28Z"/><path class="cls-1" d="M82.5,36.27a.6.6,0,0,1-.62.51.58.58,0,0,1-.61-.5c0-.26.28-.42.63-.43S82.51,36,82.5,36.27Z"/><path class="cls-1" d="M79.76,36.28a.59.59,0,0,1-.62.5.58.58,0,0,1-.62-.49c0-.24.27-.41.62-.41S79.76,36,79.76,36.28Z"/><path class="cls-1" d="M77,36.31a.57.57,0,0,1-.61.48.6.6,0,0,1-.63-.47c0-.23.26-.38.6-.39S77,36.08,77,36.31Z"/><path class="cls-1" d="M74.27,36.33c0,.23-.26.47-.6.47a.6.6,0,0,1-.63-.47c0-.23.25-.37.59-.37S74.26,36.1,74.27,36.33Z"/><path class="cls-1" d="M71.54,36.32c0,.23-.26.47-.6.48a.58.58,0,0,1-.63-.44c0-.22.25-.36.6-.39S71.53,36.09,71.54,36.32Z"/><path class="cls-1" d="M68.8,36.39c0,.22-.26.44-.6.44a.6.6,0,0,1-.63-.46c0-.23.25-.37.59-.36S68.79,36.16,68.8,36.39Z"/><path class="cls-1" d="M66.07,36.31a.55.55,0,0,1-.6.48.61.61,0,0,1-.62-.54c0-.28.26-.45.6-.42S66.07,36.06,66.07,36.31Z"/><path class="cls-1" d="M63.35,36.18a.59.59,0,0,1-.61.56.63.63,0,0,1-.61-.62.53.53,0,0,1,.61-.53A.64.64,0,0,1,63.35,36.18Z"/><path class="cls-1" d="M60.62,36.08a.62.62,0,1,1-1.23,0,.61.61,0,0,1,.62-.63A.63.63,0,0,1,60.62,36.08Z"/><path class="cls-1" d="M57.89,36.12a.62.62,0,1,1-1.23,0,.59.59,0,0,1,.61-.6A.61.61,0,0,1,57.89,36.12Z"/><path class="cls-1" d="M55.15,36.11a.61.61,0,1,1-.61-.61A.61.61,0,0,1,55.15,36.11Z"/><path class="cls-1" d="M52.42,36.14a.62.62,0,0,1-.61.61.6.6,0,0,1-.61-.58.62.62,0,0,1,.61-.59A.57.57,0,0,1,52.42,36.14Z"/><path class="cls-1" d="M49.68,36.2a.6.6,0,0,1-.61.57.59.59,0,0,1-.61-.54.59.59,0,0,1,.61-.54A.55.55,0,0,1,49.68,36.2Z"/><path class="cls-1" d="M47,36.26a.62.62,0,0,1-1.23,0,.56.56,0,0,1,.61-.49A.55.55,0,0,1,47,36.26Z"/><path class="cls-1" d="M44.22,36.24a.58.58,0,0,1-.61.53.6.6,0,0,1-.61-.56c0-.28.28-.47.61-.48A.56.56,0,0,1,44.22,36.24Z"/><path class="cls-1" d="M41.49,36a.44.44,0,0,1-.61.38.86.86,0,0,1-.61-.73c0-.29.27-.4.61-.31A.78.78,0,0,1,41.49,36Z"/><path class="cls-1" d="M38.76,35.08c0,.29-.27.44-.61.29a1,1,0,0,1-.61-.82c0-.3.27-.39.61-.24A1,1,0,0,1,38.76,35.08Z"/><path class="cls-1" d="M36,33.87c0,.3-.27.45-.61.3a1,1,0,0,1-.61-.84c0-.31.27-.43.61-.27A1,1,0,0,1,36,33.87Z"/><path class="cls-1" d="M33.32,32.75c0,.31-.27.49-.61.39a.86.86,0,0,1-.61-.76c0-.32.27-.49.61-.39A.87.87,0,0,1,33.32,32.75Z"/><path class="cls-1" d="M30.59,32.13a.62.62,0,0,1-1.23,0,.62.62,0,0,1,1.23,0Z"/><path class="cls-1" d="M27.85,33.22a3.24,3.24,0,0,1-.62,1.42c-.34.5-.62.7-.62.38a3.72,3.72,0,0,1,.62-1.55C27.58,33,27.85,32.9,27.85,33.22Z"/><path class="cls-1" d="M25.11,38a7.58,7.58,0,0,1-.62,2c-.34.79-.62,1.2-.62.91a8.05,8.05,0,0,1,.62-2C24.84,38.12,25.11,37.72,25.11,38Z"/><path class="cls-1" d="M22.37,44.64a8.65,8.65,0,0,1-.62,2c-.34.82-.62,1.22-.62,1a8.88,8.88,0,0,1,.62-1.9C22.09,44.9,22.37,44.38,22.37,44.64Z"/><path class="cls-1" d="M19.62,50.91A5,5,0,0,1,19,52.49c-.34.59-.62.76-.62.54A4.54,4.54,0,0,1,19,51.69C19.34,51.1,19.62,50.68,19.62,50.91Z"/><path class="cls-1" d="M16.88,54.65a.94.94,0,0,1-.62.73.5.5,0,0,1-.61-.43c0-.22.27-.3.61-.37S16.88,54.44,16.88,54.65Z"/><path class="cls-1" d="M14.19,53.8c0,.22-.27.09-.59-.5A5.3,5.3,0,0,1,13,51.68c0-.22.26.24.58.82A4.51,4.51,0,0,1,14.19,53.8Z"/><path class="cls-1" d="M11.63,48c0,.23-.25-.28-.56-1.26a14.12,14.12,0,0,1-.56-2.29c0-.24.25.45.56,1.44A14.28,14.28,0,0,1,11.63,48Z"/><path class="cls-1" d="M9.14,39.83c0,.25-.24-.36-.55-1.4A16.06,16.06,0,0,1,8,36c0-.26.24.38.55,1.44A16.41,16.41,0,0,1,9.14,39.83Z"/><path class="cls-1" d="M6.65,31.85c0,.28-.25-.17-.56-.95a8.12,8.12,0,0,1-.58-1.85c0-.28.25.06.56.84A8.63,8.63,0,0,1,6.65,31.85Z"/><path class="cls-1" d="M4.08,26.79c0,.28-.26.25-.59.08s-.61-.41-.62-.69a.38.38,0,0,1,.59-.33A1.31,1.31,0,0,1,4.08,26.79Z"/><path class="cls-1" d="M85.3,34.91c0,.1-.29.19-.63.19s-.6-.11-.59-.2.3-.15.64-.14S85.31,34.81,85.3,34.91Z"/><path class="cls-1" d="M82.56,34.91c0,.09-.29.19-.64.2S81.3,35,81.31,35s.29-.14.64-.15S82.57,34.83,82.56,34.91Z"/><path class="cls-1" d="M79.76,35c0,.07-.28.17-.63.19s-.63-.05-.64-.12.28-.11.63-.13S79.76,35,79.76,35Z"/><path class="cls-1" d="M76.94,35.2c0,.05-.26.14-.61.15a1.3,1.3,0,0,1-.66-.09s.25-.06.6-.09S76.93,35.14,76.94,35.2Z"/><path class="cls-1" d="M74.13,35.32s-.24.1-.58.11a1.81,1.81,0,0,1-.66-.08,2,2,0,0,1,.58,0A2.65,2.65,0,0,1,74.13,35.32Z"/><path class="cls-1" d="M71.39,35.34s-.23.09-.57.12a1.55,1.55,0,0,1-.66-.06s.23,0,.57,0A3.16,3.16,0,0,1,71.39,35.34Z"/><path class="cls-1" d="M68.66,35.33c0,.05-.23.1-.57.07s-.62-.17-.65-.25.23-.06.56,0A2,2,0,0,1,68.66,35.33Z"/><path class="cls-1" d="M66,34.81c0,.13-.24.2-.57.13s-.61-.28-.63-.45.24-.19.57-.09S66,34.68,66,34.81Z"/><path class="cls-1" d="M63.3,34.09c0,.22-.25.35-.59.29a.73.73,0,0,1-.62-.59c0-.26.26-.38.59-.27S63.29,33.87,63.3,34.09Z"/><path class="cls-1" d="M60.61,33.5A.52.52,0,0,1,60,34a.66.66,0,0,1-.61-.63.51.51,0,0,1,.61-.51A.71.71,0,0,1,60.61,33.5Z"/><path class="cls-1" d="M57.89,33.37a.63.63,0,0,1-.62.64.64.64,0,0,1-.61-.63.59.59,0,0,1,.61-.59A.6.6,0,0,1,57.89,33.37Z"/><path class="cls-1" d="M55.15,33.4a.64.64,0,0,1-.61.62.56.56,0,0,1-.61-.54.67.67,0,0,1,.61-.63A.55.55,0,0,1,55.15,33.4Z"/><path class="cls-1" d="M52.42,33.64a.66.66,0,0,1-.61.6.51.51,0,0,1-.61-.44.68.68,0,0,1,.61-.59A.48.48,0,0,1,52.42,33.64Z"/><path class="cls-1" d="M49.68,34a.63.63,0,0,1-.61.52c-.34,0-.61-.14-.61-.37s.28-.44.61-.5S49.68,33.74,49.68,34Z"/><path class="cls-1" d="M47,34.29c0,.21-.28.41-.61.42s-.61-.15-.61-.35S46,34,46.34,34,47,34.08,47,34.29Z"/><path class="cls-1" d="M44.22,34.38c0,.19-.28.32-.61.33s-.61-.18-.61-.36.28-.3.61-.31S44.22,34.19,44.22,34.38Z"/><path class="cls-1" d="M41.49,34.1c0,.19-.27.3-.61.19s-.61-.38-.61-.58.27-.24.61-.13S41.49,33.91,41.49,34.1Z"/><path class="cls-1" d="M38.76,33.09c0,.21-.27.27-.61.11a1,1,0,0,1-.61-.7c0-.22.27-.24.61-.07S38.76,32.88,38.76,33.09Z"/><path class="cls-1" d="M36,31.73c0,.23-.27.3-.61.13a1,1,0,0,1-.61-.74c0-.24.27-.29.61-.12A1.06,1.06,0,0,1,36,31.73Z"/><path class="cls-1" d="M33.31,30.48c0,.25-.27.37-.61.26a.83.83,0,0,1-.61-.66c0-.26.27-.39.61-.27A.87.87,0,0,1,33.31,30.48Z"/><path class="cls-1" d="M30.59,29.8c0,.27-.27.46-.61.46s-.62-.2-.62-.46a.63.63,0,0,1,1.23,0Z"/><path class="cls-1" d="M27.85,30.91a3.47,3.47,0,0,1-.61,1.31c-.34.52-.62.83-.62.59a4.22,4.22,0,0,1,.62-1.48C27.57,30.8,27.85,30.66,27.85,30.91Z"/><path class="cls-1" d="M25.11,36a9.68,9.68,0,0,1-.62,1.86c-.34.84-.62,1.4-.62,1.23a11.44,11.44,0,0,1,.62-1.89C24.83,36.35,25.11,35.83,25.11,36Z"/><path class="cls-1" d="M22.36,43.12A13.17,13.17,0,0,1,21.75,45a6.44,6.44,0,0,1-.62,1.36c0-.09.28-.84.62-1.75A7,7,0,0,1,22.36,43.12Z"/><path class="cls-1" d="M19.62,49.84A9,9,0,0,1,19,51.15a5,5,0,0,1-.62.95s.28-.45.62-1.09S19.62,49.78,19.62,49.84Z"/><path class="cls-1" d="M16.88,53.8a1.42,1.42,0,0,1-.62.32,1.12,1.12,0,0,1-.61,0,1.43,1.43,0,0,0,.61,0A1.94,1.94,0,0,0,16.88,53.8Z"/><path class="cls-1" d="M14.19,52.93a4.91,4.91,0,0,1-.59-.9A11.17,11.17,0,0,1,13,50.75s.26.6.58,1.21A9.56,9.56,0,0,0,14.19,52.93Z"/><path class="cls-1" d="M11.61,47s-.25-.65-.56-1.66-.57-1.95-.57-2,.24.79.56,1.82S11.61,46.95,11.61,47Z"/><path class="cls-1" d="M9.1,38.5c0,.09-.24-.7-.55-1.77S8,34.7,8,34.6s.23.69.55,1.78S9.09,38.42,9.1,38.5Z"/><path class="cls-1" d="M6.58,30.26A7,7,0,0,1,6,29a15.43,15.43,0,0,1-.6-1.62c0-.14.23.32.55,1.12A14.83,14.83,0,0,1,6.58,30.26Z"/><path class="cls-1" d="M4,25.06c0,.16-.24,0-.57-.16s-.62-.29-.63-.45.24-.3.58-.13A1.36,1.36,0,0,1,4,25.06Z"/><path class="cls-1" d="M85.42,34.56h0Z"/><path class="cls-1" d="M82.64,34.65a6.13,6.13,0,0,0-.66,0,3,3,0,0,0-.63.07,2.55,2.55,0,0,0,.66,0A3.39,3.39,0,0,0,82.64,34.65Z"/><path class="cls-1" d="M79.75,34.93a1.9,1.9,0,0,0-.65,0,1.7,1.7,0,0,0-.67.14s.28.06.65,0A1.84,1.84,0,0,0,79.75,34.93Z"/><path class="cls-1" d="M76.82,35.28c0-.06-.26-.06-.62,0s-.67.1-.69.17.25.11.62.06A1.37,1.37,0,0,0,76.82,35.28Z"/><path class="cls-1" d="M73.93,35.57c0-.08-.23-.11-.58-.1s-.66.08-.69.17.22.16.58.14S73.9,35.65,73.93,35.57Z"/><path class="cls-1" d="M71.13,35.68c0-.1-.21-.14-.55-.13s-.64,0-.68.12.21.21.55.21S71.1,35.77,71.13,35.68Z"/><path class="cls-1" d="M68.43,35.35s-.21-.14-.54-.25-.62-.22-.65-.22a1.78,1.78,0,0,0,.54.32C68.1,35.35,68.4,35.4,68.43,35.35Z"/><path class="cls-1" d="M65.8,34.13c0,.05-.22,0-.55-.19a1.44,1.44,0,0,1-.62-.5c0-.1.22,0,.54.22A4.2,4.2,0,0,1,65.8,34.13Z"/><path class="cls-1" d="M63.2,32.56c0,.17-.24.17-.56,0s-.6-.46-.61-.68.24-.23.56,0S63.18,32.39,63.2,32.56Z"/><path class="cls-1" d="M60.57,31.21c0,.27-.26.4-.59.31a.8.8,0,0,1-.61-.7c0-.31.26-.48.59-.35A.94.94,0,0,1,60.57,31.21Z"/><path class="cls-1" d="M57.89,30.65a.62.62,0,1,1-.62-.6A.61.61,0,0,1,57.89,30.65Z"/><path class="cls-1" d="M55.15,30.8a.71.71,0,0,1-.61.66.49.49,0,0,1-.61-.44.76.76,0,0,1,.61-.68A.48.48,0,0,1,55.15,30.8Z"/><path class="cls-1" d="M52.42,31.38a.76.76,0,0,1-.61.64c-.34.08-.61-.05-.61-.3s.28-.53.61-.64S52.42,31.11,52.42,31.38Z"/><path class="cls-1" d="M49.68,32.14c0,.21-.28.46-.61.54s-.61,0-.61-.21.28-.42.61-.52S49.68,31.93,49.68,32.14Z"/><path class="cls-1" d="M47,32.82c0,.16-.28.35-.61.4s-.61,0-.61-.19.28-.3.61-.36S47,32.66,47,32.82Z"/><path class="cls-1" d="M44.22,33.13c0,.13-.28.22-.61.23s-.61-.13-.61-.25.28-.19.61-.2S44.22,33,44.22,33.13Z"/><path class="cls-1" d="M41.49,32.82c0,.14-.27.18-.61.06s-.61-.36-.61-.51.27-.13.61,0S41.49,32.68,41.49,32.82Z"/><path class="cls-1" d="M38.76,31.64c0,.16-.27.15-.61,0s-.61-.49-.61-.66.27-.14.61.06S38.76,31.48,38.76,31.64Z"/><path class="cls-1" d="M36,30.06c0,.19-.27.19-.61,0s-.61-.5-.61-.7.27-.2.61,0S36,29.87,36,30.06Z"/><path class="cls-1" d="M33.31,28.6c0,.22-.27.28-.61.15s-.61-.4-.62-.62.27-.32.61-.18S33.31,28.39,33.31,28.6Z"/><path class="cls-1" d="M30.58,27.8c0,.23-.27.4-.61.39s-.62-.16-.62-.39a.57.57,0,0,1,.61-.47C30.3,27.34,30.58,27.56,30.58,27.8Z"/><path class="cls-1" d="M27.84,29.07a4.25,4.25,0,0,1-.61,1.31c-.34.57-.62,1-.62.8a5.34,5.34,0,0,1,.61-1.51C27.57,29.07,27.84,28.86,27.84,29.07Z"/><path class="cls-1" d="M25.1,34.71a14.54,14.54,0,0,1-.62,1.87,10.25,10.25,0,0,1-.62,1.52,19.47,19.47,0,0,1,.62-1.93A5.17,5.17,0,0,1,25.1,34.71Z"/><path class="cls-1" d="M22.36,42.5s-.28.88-.62,1.83S21.13,46,21.13,46s.28-.76.62-1.76S22.36,42.46,22.36,42.5Z"/><path class="cls-1" d="M19.62,49.88c0-.05-.28.55-.62,1.23a12.15,12.15,0,0,0-.62,1.27c0,.08.28-.31.62-1A12.5,12.5,0,0,0,19.62,49.88Z"/><path class="cls-1" d="M16.88,54.28c0-.11-.28,0-.62.12s-.61.11-.61.23.27.31.61.21A1,1,0,0,0,16.88,54.28Z"/><path class="cls-1" d="M14.18,53.39a8.05,8.05,0,0,0-.59-1.19A6.75,6.75,0,0,0,13,51.1a7.3,7.3,0,0,0,.58,1.47C13.91,53.21,14.18,53.5,14.18,53.39Z"/><path class="cls-1" d="M11.57,47.15c0-.07-.25-.91-.56-2s-.58-1.93-.59-1.89.24,1,.56,2.09A12.81,12.81,0,0,0,11.57,47.15Z"/><path class="cls-1" d="M9,38.25s-.23-.94-.55-2.06-.58-2-.6-2,.23.89.55,2S9,38.27,9,38.25Z"/><path class="cls-1" d="M6.45,29.62s-.23-.68-.55-1.5-.6-1.46-.62-1.52.23.49.55,1.33S6.43,29.57,6.45,29.62Z"/><path class="cls-1" d="M3.83,24.14c0,.08-.23-.15-.56-.33s-.63-.23-.65-.32.23-.18.57,0A1.82,1.82,0,0,1,3.83,24.14Z"/><path class="cls-1" d="M85.57,34.74a1.88,1.88,0,0,0-.65,0c-.34,0-.62.06-.6.09a2,2,0,0,0,.66,0C85.33,34.79,85.59,34.77,85.57,34.74Z"/><ellipse class="cls-1" cx="82.06" cy="35.02" rx="0.67" ry="0.09" transform="translate(-4.09 11.8) rotate(-8.03)"/><path class="cls-1" d="M79.73,35.4c0-.07-.3-.08-.67,0s-.69.18-.7.27.29.09.68,0S79.73,35.47,79.73,35.4Z"/><path class="cls-1" d="M76.68,36c0-.1-.27-.12-.64-.06s-.69.19-.72.3.26.14.64.07S76.67,36.07,76.68,36Z"/><path class="cls-1" d="M73.68,36.45c0-.12-.24-.18-.6-.15s-.68.16-.71.29.23.21.59.16S73.65,36.57,73.68,36.45Z"/><path class="cls-1" d="M70.82,36.67c0-.14-.21-.23-.54-.26s-.64,0-.68.13.2.31.53.35S70.78,36.81,70.82,36.67Z"/><path class="cls-1" d="M68.15,35.91c0-.08-.2-.28-.52-.49S67,35.06,67,35.1s.2.3.52.54S68.12,36,68.15,35.91Z"/><path class="cls-1" d="M65.59,33.86l-.52-.46a3.19,3.19,0,0,1-.61-.67c0-.08.21.14.52.48Z"/><path class="cls-1" d="M63.07,31.31c0,.15-.23,0-.54-.24a1.72,1.72,0,0,1-.59-.85c0-.2.23-.12.55.21A2.49,2.49,0,0,1,63.07,31.31Z"/><path class="cls-1" d="M60.52,29.08c0,.26-.25.31-.57.13a1.09,1.09,0,0,1-.6-.82c0-.3.26-.41.58-.2A1.35,1.35,0,0,1,60.52,29.08Z"/><path class="cls-1" d="M57.88,28a.6.6,0,0,1-.61.59.58.58,0,0,1-.61-.57.66.66,0,0,1,.61-.65A.62.62,0,0,1,57.88,28Z"/><path class="cls-1" d="M55.15,28.26a.83.83,0,0,1-.61.73c-.34.09-.61-.05-.61-.35a.91.91,0,0,1,.61-.76C54.88,27.77,55.15,27.94,55.15,28.26Z"/><path class="cls-1" d="M52.42,29.23a.94.94,0,0,1-.61.72c-.34.14-.61.06-.61-.17A1,1,0,0,1,51.8,29C52.14,28.88,52.42,29,52.42,29.23Z"/><path class="cls-1" d="M49.68,30.48c0,.2-.28.48-.61.62s-.61.1-.61-.08.28-.45.61-.61S49.68,30.27,49.68,30.48Z"/><path class="cls-1" d="M47,31.6c0,.15-.28.35-.61.44s-.61,0-.61-.08.28-.3.61-.41S47,31.45,47,31.6Z"/><path class="cls-1" d="M44.22,32.2c0,.11-.28.21-.61.22S43,32.3,43,32.19s.28-.16.61-.15S44.22,32.09,44.22,32.2Z"/><path class="cls-1" d="M41.48,31.83c0,.12-.27.12-.61,0s-.61-.38-.61-.51.27-.09.61.07S41.48,31.71,41.48,31.83Z"/><path class="cls-1" d="M38.76,30.44c0,.14-.27.09-.61-.12s-.61-.52-.61-.68.27-.09.61.14S38.76,30.3,38.76,30.44Z"/><path class="cls-1" d="M36,28.62c0,.17-.27.13-.61-.08s-.61-.54-.61-.73.27-.16.61.07S36,28.44,36,28.62Z"/><path class="cls-1" d="M33.3,26.93c0,.2-.27.23-.61.08s-.61-.42-.62-.64.27-.28.61-.12S33.3,26.72,33.3,26.93Z"/><path class="cls-1" d="M30.57,26c0,.22-.27.36-.61.35s-.62-.12-.62-.34a.58.58,0,0,1,.61-.48C30.29,25.5,30.57,25.73,30.57,26Z"/><path class="cls-1" d="M27.83,27.45a5.42,5.42,0,0,1-.61,1.4c-.34.64-.62,1.13-.62,1a6.79,6.79,0,0,1,.61-1.62C27.56,27.52,27.83,27.25,27.83,27.45Z"/><path class="cls-1" d="M25.1,33.74c0,.11-.27,1-.61,2s-.62,1.82-.62,1.75.27-1,.61-2.08A8.53,8.53,0,0,1,25.1,33.74Z"/><path class="cls-1" d="M22.36,42.33s-.27.9-.62,1.95-.62,1.9-.62,1.93.28-.8.62-1.9S22.36,42.32,22.36,42.33Z"/><path class="cls-1" d="M19.62,50.48a10.38,10.38,0,0,0-.62,1.3,10.63,10.63,0,0,0-.62,1.48c0,.12.28-.32.62-1.11A12.49,12.49,0,0,0,19.62,50.48Z"/><path class="cls-1" d="M16.88,55.42c0-.16-.28,0-.62.09s-.61.18-.61.35.27.38.61.24A1.08,1.08,0,0,0,16.88,55.42Z"/><path class="cls-1" d="M14.16,54.51a6.86,6.86,0,0,0-.6-1.35c-.33-.67-.6-1.22-.6-1.09a7.29,7.29,0,0,0,.59,1.61C13.89,54.37,14.16,54.67,14.16,54.51Z"/><path class="cls-1" d="M11.52,47.91c0-.11-.25-1-.57-2.14a18.13,18.13,0,0,0-.6-1.91c0,.08.25,1.11.57,2.25A9.94,9.94,0,0,0,11.52,47.91Z"/><path class="cls-1" d="M8.91,38.54s-.24-1.06-.56-2.24-.6-2.09-.61-2.07.24,1,.56,2.19S8.9,38.59,8.91,38.54Z"/><path class="cls-1" d="M6.3,29.45s-.23-.78-.56-1.66-.61-1.51-.63-1.54.23.56.56,1.46S6.28,29.43,6.3,29.45Z"/><path class="cls-1" d="M3.65,23.64c0,.05-.23-.23-.56-.43s-.63-.23-.66-.3.23-.13.57.08A2.37,2.37,0,0,1,3.65,23.64Z"/><path class="cls-1" d="M85.72,34.91s-.31,0-.66,0a4.17,4.17,0,0,0-.61.07l.67-.06C85.47,34.9,85.73,34.91,85.72,34.91Z"/><path class="cls-1" d="M82.81,35.22a3.66,3.66,0,0,0-.7.08,2.53,2.53,0,0,0-.68.18,4.43,4.43,0,0,0,.71-.13C82.53,35.28,82.82,35.23,82.81,35.22Z"/><path class="cls-1" d="M79.71,35.87A1.79,1.79,0,0,0,79,36a2,2,0,0,0-.72.26s.31,0,.7-.12A2.9,2.9,0,0,0,79.71,35.87Z"/><path class="cls-1" d="M76.55,36.66c0-.06-.29-.05-.67,0a1.58,1.58,0,0,0-.74.3c0,.07.28,0,.67-.06A1.94,1.94,0,0,0,76.55,36.66Z"/><path class="cls-1" d="M73.44,37.33c0-.08-.25-.11-.62-.06s-.69.18-.72.27.24.11.61,0S73.41,37.42,73.44,37.33Z"/><path class="cls-1" d="M70.51,37.67c0-.1-.21-.17-.55-.24s-.63-.1-.66,0,.2.27.53.35S70.48,37.77,70.51,37.67Z"/><path class="cls-1" d="M67.88,36.47s-.2-.3-.51-.6a4.88,4.88,0,0,0-.62-.55,2.94,2.94,0,0,0,.51.65C67.57,36.31,67.85,36.52,67.88,36.47Z"/><path class="cls-1" d="M65.39,33.59a6.52,6.52,0,0,1-.51-.64,4.83,4.83,0,0,1-.59-.92c0-.1.21.19.51.65S65.36,33.54,65.39,33.59Z"/><path class="cls-1" d="M62.95,30.07c0,.17-.22,0-.53-.43a2.75,2.75,0,0,1-.58-1.08c0-.22.23-.06.53.39A3.89,3.89,0,0,1,62.95,30.07Z"/><path class="cls-1" d="M60.47,26.95c0,.27-.24.24-.56,0a1.51,1.51,0,0,1-.58-1c0-.31.25-.37.57-.07A1.91,1.91,0,0,1,60.47,26.95Z"/><path class="cls-1" d="M57.88,25.27a.58.58,0,0,1-.61.56.54.54,0,0,1-.61-.54.71.71,0,0,1,.61-.69A.64.64,0,0,1,57.88,25.27Z"/><path class="cls-1" d="M55.15,25.72a1,1,0,0,1-.61.81c-.34.14-.61,0-.61-.27a1.09,1.09,0,0,1,.61-.85C54.88,25.25,55.15,25.4,55.15,25.72Z"/><path class="cls-1" d="M52.42,27.09a1.19,1.19,0,0,1-.61.84c-.34.2-.61.17-.61-.08A1.32,1.32,0,0,1,51.8,27C52.14,26.77,52.42,26.82,52.42,27.09Z"/><path class="cls-1" d="M49.68,28.81c0,.21-.28.55-.61.74s-.61.2-.61,0,.28-.52.61-.74S49.68,28.59,49.68,28.81Z"/><path class="cls-1" d="M47,30.37c0,.16-.28.41-.61.55s-.61.11-.61,0,.28-.37.61-.52S47,30.21,47,30.37Z"/><path class="cls-1" d="M44.22,31.27c0,.13-.28.28-.61.28S43,31.4,43,31.27s.28-.19.61-.18S44.22,31.14,44.22,31.27Z"/><path class="cls-1" d="M41.48,30.84c0,.14-.27.13-.61,0s-.61-.43-.61-.58.27-.1.61.07S41.48,30.7,41.48,30.84Z"/><path class="cls-1" d="M38.75,29.25c0,.16-.27.09-.61-.15s-.61-.59-.61-.76.27-.1.61.16S38.75,29.09,38.75,29.25Z"/><path class="cls-1" d="M36,27.18c0,.19-.27.13-.61-.12a1.42,1.42,0,0,1-.62-.8c0-.2.27-.17.61.09A1.55,1.55,0,0,1,36,27.18Z"/><path class="cls-1" d="M33.29,25.25c0,.22-.27.22-.61.05s-.62-.47-.62-.7.27-.29.61-.11A1.15,1.15,0,0,1,33.29,25.25Z"/><path class="cls-1" d="M30.56,24.12c0,.23-.27.37-.61.35s-.62-.09-.62-.32a.6.6,0,0,1,.61-.54A.63.63,0,0,1,30.56,24.12Z"/><path class="cls-1" d="M27.83,25.84a6.52,6.52,0,0,1-.61,1.54c-.34.71-.62,1.26-.62,1.08a8,8,0,0,1,.61-1.79C27.55,25.92,27.83,25.63,27.83,25.84Z"/><path class="cls-1" d="M25.09,32.76c0,.14-.27,1.09-.61,2.2s-.62,2-.62,1.9.27-1.16.61-2.31A8.54,8.54,0,0,1,25.09,32.76Z"/><path class="cls-1" d="M22.35,42.16s-.27,1-.61,2.17-.62,2.07-.62,2.07.27-.94.61-2.14S22.35,42.12,22.35,42.16Z"/><path class="cls-1" d="M19.61,51.08c0-.05-.28.67-.62,1.5s-.62,1.48-.62,1.57A5.6,5.6,0,0,0,19,52.83C19.34,52,19.61,51.13,19.61,51.08Z"/><path class="cls-1" d="M16.88,56.57c0-.11-.28.07-.61.22s-.62.19-.62.32.28.29.62.12A1.25,1.25,0,0,0,16.88,56.57Z"/><path class="cls-1" d="M14.15,55.64a10,10,0,0,0-.6-1.36,7.63,7.63,0,0,0-.61-1.22,9.17,9.17,0,0,0,.6,1.59C13.88,55.38,14.15,55.75,14.15,55.64Z"/><path class="cls-1" d="M11.47,48.67c0-.07-.26-1-.59-2.19s-.6-2.11-.61-2.07.25,1.08.58,2.27A18.82,18.82,0,0,0,11.47,48.67Z"/><path class="cls-1" d="M8.81,38.83s-.24-1.06-.57-2.3-.61-2.21-.62-2.22.24,1,.57,2.22S8.8,38.85,8.81,38.83Z"/><path class="cls-1" d="M6.16,29.28s-.24-.78-.57-1.71S5,26,5,25.9s.24.53.57,1.48S6.14,29.23,6.16,29.28Z"/><path class="cls-1" d="M3.47,23.13c0,.08-.23-.22-.57-.44s-.63-.28-.66-.37.24-.17.58.06A2.23,2.23,0,0,1,3.47,23.13Z"/><path class="cls-1" d="M85.84,34.57c0,.1-.3.15-.66.18s-.64,0-.63-.08.32-.24.67-.27S85.85,34.47,85.84,34.57Z"/><path class="cls-1" d="M82.89,35c0,.09-.33.2-.71.28s-.7.13-.7,0,.33-.26.72-.36S82.9,34.86,82.89,35Z"/><path class="cls-1" d="M79.7,35.77c0,.07-.32.19-.73.31s-.74.19-.74.13.32-.25.73-.37S79.7,35.7,79.7,35.77Z"/><path class="cls-1" d="M76.43,36.74c0,.05-.3.16-.7.27a2.16,2.16,0,0,1-.75.14,1.58,1.58,0,0,1,.7-.32C76.08,36.72,76.42,36.69,76.43,36.74Z"/><path class="cls-1" d="M73.23,37.58a1.84,1.84,0,0,1-.65.17,2.89,2.89,0,0,1-.72.09,1.49,1.49,0,0,1,.64-.21A1.89,1.89,0,0,1,73.23,37.58Z"/><path class="cls-1" d="M70.26,38s-.23,0-.56-.06a2.49,2.49,0,0,1-.64-.27,4.37,4.37,0,0,1,.55.17C69.93,38,70.23,38,70.26,38Z"/><path class="cls-1" d="M67.65,36.5a3.37,3.37,0,0,1-.52-.58,5.17,5.17,0,0,1-.59-.86c0-.08.21.2.51.62S67.62,36.44,67.65,36.5Z"/><path class="cls-1" d="M65.21,32.91c0,.13-.21-.19-.5-.71A5.2,5.2,0,0,1,64.15,31c0-.17.21.14.51.7A7.82,7.82,0,0,1,65.21,32.91Z"/><path class="cls-1" d="M62.85,28.54c0,.22-.22,0-.52-.54a3.89,3.89,0,0,1-.55-1.34c0-.26.23-.06.52.47A4.94,4.94,0,0,1,62.85,28.54Z"/><path class="cls-1" d="M60.44,24.66c0,.3-.24.22-.55-.11a2,2,0,0,1-.57-1.13c0-.32.25-.36.56,0A2.46,2.46,0,0,1,60.44,24.66Z"/><path class="cls-1" d="M57.88,22.56c0,.34-.27.51-.61.55a.52.52,0,0,1-.61-.51.74.74,0,0,1,.61-.72C57.61,21.84,57.88,22.22,57.88,22.56Z"/><path class="cls-1" d="M55.15,23.12a1.14,1.14,0,0,1-.61.89c-.34.18-.61.1-.61-.22a1.27,1.27,0,0,1,.61-.95C54.88,22.65,55.15,22.79,55.15,23.12Z"/><path class="cls-1" d="M52.42,24.82a1.47,1.47,0,0,1-.61,1c-.34.25-.61.25-.61,0a1.62,1.62,0,0,1,.61-1C52.14,24.5,52.42,24.53,52.42,24.82Z"/><path class="cls-1" d="M49.68,27a1.44,1.44,0,0,1-.61.9c-.34.25-.61.27-.61,0a1.55,1.55,0,0,1,.61-.9C49.41,26.73,49.68,26.71,49.68,27Z"/><path class="cls-1" d="M47,28.9c0,.21-.28.53-.61.7s-.61.14-.61-.05.28-.49.61-.68S47,28.69,47,28.9Z"/><path class="cls-1" d="M44.22,30c0,.19-.28.41-.61.4S43,30.22,43,30s.28-.3.61-.29S44.22,29.84,44.22,30Z"/><path class="cls-1" d="M41.48,29.55c0,.19-.28.21-.61,0s-.61-.51-.61-.7.28-.19.61,0S41.48,29.36,41.48,29.55Z"/><path class="cls-1" d="M38.75,27.79c0,.21-.27.15-.61-.12a1.58,1.58,0,0,1-.61-.89c0-.22.27-.17.61.11A1.65,1.65,0,0,1,38.75,27.79Z"/><path class="cls-1" d="M36,25.5c0,.23-.27.18-.61-.1a1.57,1.57,0,0,1-.62-.92c0-.24.27-.23.61.06A1.7,1.7,0,0,1,36,25.5Z"/><path class="cls-1" d="M33.29,23.38c0,.25-.27.27-.61.07a1.13,1.13,0,0,1-.62-.79c0-.26.27-.35.61-.14A1.26,1.26,0,0,1,33.29,23.38Z"/><path class="cls-1" d="M30.55,22.12c0,.27-.27.41-.61.38s-.62-.09-.62-.36a.64.64,0,0,1,.61-.61A.66.66,0,0,1,30.55,22.12Z"/><path class="cls-1" d="M27.82,24a7.17,7.17,0,0,1-.61,1.71c-.34.77-.62,1.35-.62,1.11a8.63,8.63,0,0,1,.61-2C27.54,24,27.82,23.74,27.82,24Z"/><path class="cls-1" d="M25.08,31.45a22.16,22.16,0,0,1-.61,2.47,11.06,11.06,0,0,1-.62,1.94,25.18,25.18,0,0,1,.61-2.6C24.81,32,25.08,31.25,25.08,31.45Z"/><path class="cls-1" d="M22.35,41.54c0,.12-.27,1.24-.61,2.48s-.62,2.17-.62,2.08.27-1.19.61-2.47A17.15,17.15,0,0,1,22.35,41.54Z"/><path class="cls-1" d="M19.61,51.12c0,.05-.28.9-.61,1.81s-.62,1.53-.62,1.5.28-.72.61-1.64S19.61,51.07,19.61,51.12Z"/><path class="cls-1" d="M16.88,57a2.27,2.27,0,0,1-.61.48,1,1,0,0,1-.62.12,1.17,1.17,0,0,0,.62-.14A3.26,3.26,0,0,0,16.88,57Z"/><path class="cls-1" d="M14.14,56.1a12.87,12.87,0,0,1-.61-1.21c-.34-.74-.61-1.46-.61-1.48s.27.67.61,1.42S14.14,56.09,14.14,56.1Z"/><path class="cls-1" d="M11.43,48.83s-.26-.88-.6-2.09-.61-2.28-.62-2.34.26.91.6,2.15S11.42,48.79,11.43,48.83Z"/><path class="cls-1" d="M8.73,38.59c0,.09-.25-.94-.59-2.23S7.53,34,7.52,33.88s.25.81.59,2.13S8.72,38.5,8.73,38.59Z"/><path class="cls-1" d="M6,28.63c0,.13-.25-.67-.58-1.64s-.62-1.73-.64-1.88.25.4.59,1.38A21.71,21.71,0,0,1,6,28.63Z"/><path class="cls-1" d="M3.31,22.22c0,.16-.24-.11-.59-.35s-.63-.35-.65-.51.25-.31.59-.07A1.94,1.94,0,0,1,3.31,22.22Z"/><path class="cls-1" d="M85.91,33.2c0,.26-.29.43-.64.46s-.65-.1-.64-.36a.7.7,0,0,1,.66-.58A.54.54,0,0,1,85.91,33.2Z"/><path class="cls-1" d="M82.95,33.6c0,.26-.33.5-.72.6s-.72,0-.71-.23.33-.6.73-.7S83,33.34,82.95,33.6Z"/><path class="cls-1" d="M79.7,34.52c0,.25-.34.52-.75.65s-.75.09-.75-.16.34-.6.75-.74S79.7,34.27,79.7,34.52Z"/><path class="cls-1" d="M76.36,35.62c0,.24-.32.49-.73.62s-.75.08-.75-.16.32-.57.73-.7S76.35,35.39,76.36,35.62Z"/><path class="cls-1" d="M73.1,36.57c0,.23-.3.45-.68.53s-.7,0-.71-.24.29-.51.67-.59S73.09,36.34,73.1,36.57Z"/><path class="cls-1" d="M70.11,37c0,.23-.26.4-.59.3a.85.85,0,0,1-.61-.61c0-.22.25-.29.58-.21S70.1,36.8,70.11,37Z"/><path class="cls-1" d="M67.51,35.44c0,.22-.23.06-.53-.38a3.28,3.28,0,0,1-.56-1.23c0-.23.23,0,.53.41A3.41,3.41,0,0,1,67.51,35.44Z"/><path class="cls-1" d="M65.11,31.41c0,.25-.22,0-.51-.63a5.39,5.39,0,0,1-.54-1.57c0-.28.23,0,.51.61A6.07,6.07,0,0,1,65.11,31.41Z"/><path class="cls-1" d="M62.79,26.45c0,.31-.23,0-.52-.53a4.75,4.75,0,0,1-.53-1.6c0-.33.24-.15.53.45A5.45,5.45,0,0,1,62.79,26.45Z"/><path class="cls-1" d="M60.42,22.08c0,.35-.25.25-.55-.12a2.34,2.34,0,0,1-.56-1.25c0-.35.26-.4.56,0A2.77,2.77,0,0,1,60.42,22.08Z"/><path class="cls-1" d="M57.88,19.8c0,.34-.27.53-.61.56a.52.52,0,0,1-.61-.52.72.72,0,0,1,.61-.71A.64.64,0,0,1,57.88,19.8Z"/><path class="cls-1" d="M55.15,20.41a1.27,1.27,0,0,1-.61,1c-.34.21-.61.13-.61-.21a1.4,1.4,0,0,1,.61-1C54.88,19.92,55.15,20.07,55.15,20.41Z"/><path class="cls-1" d="M52.42,22.32a1.74,1.74,0,0,1-.61,1.11c-.34.29-.61.29-.61,0a1.87,1.87,0,0,1,.61-1.14C52.14,22,52.42,22,52.42,22.32Z"/><path class="cls-1" d="M49.68,24.75a1.71,1.71,0,0,1-.61,1.07c-.34.29-.61.29-.61,0a1.79,1.79,0,0,1,.61-1.08C49.41,24.43,49.68,24.44,49.68,24.75Z"/><path class="cls-1" d="M47,26.94a1.21,1.21,0,0,1-.61.88c-.34.2-.61.12-.61-.16a1.2,1.2,0,0,1,.61-.86C46.68,26.59,47,26.65,47,26.94Z"/><path class="cls-1" d="M44.22,28.16a.62.62,0,0,1-1.23,0,.55.55,0,0,1,.61-.49C43.94,27.68,44.22,27.87,44.22,28.16Z"/><path class="cls-1" d="M41.48,27.67c0,.28-.28.36-.61.17a1.22,1.22,0,0,1-.61-.88c0-.29.28-.35.61-.15A1.21,1.21,0,0,1,41.48,27.67Z"/><path class="cls-1" d="M38.75,25.81c0,.29-.28.28-.61,0a1.73,1.73,0,0,1-.61-1.06c0-.3.28-.3.61,0A1.8,1.8,0,0,1,38.75,25.81Z"/><path class="cls-1" d="M36,23.37c0,.3-.27.28-.61,0a1.74,1.74,0,0,1-.62-1.07c0-.31.27-.34.61,0A1.87,1.87,0,0,1,36,23.37Z"/><path class="cls-1" d="M33.28,21.11c0,.31-.27.36-.61.15a1.23,1.23,0,0,1-.62-.91c0-.32.27-.45.61-.24A1.38,1.38,0,0,1,33.28,21.11Z"/><path class="cls-1" d="M30.55,19.79c0,.32-.27.5-.61.47s-.62-.13-.62-.45.27-.71.61-.69A.7.7,0,0,1,30.55,19.79Z"/><path class="cls-1" d="M27.81,21.68a7.32,7.32,0,0,1-.61,1.9c-.34.81-.62,1.36-.62,1a8.75,8.75,0,0,1,.61-2.21C27.54,21.59,27.81,21.36,27.81,21.68Z"/><path class="cls-1" d="M25.08,29.45a20.19,20.19,0,0,1-.61,2.76c-.34,1.27-.62,2.13-.62,1.85a21.78,21.78,0,0,1,.61-2.92C24.81,29.86,25.08,29.15,25.08,29.45Z"/><path class="cls-1" d="M22.35,40a23.56,23.56,0,0,1-.61,2.84c-.34,1.31-.61,2.18-.62,1.93A25.26,25.26,0,0,1,21.73,42C22.07,40.62,22.35,39.76,22.35,40Z"/><path class="cls-1" d="M19.61,50.05A12.29,12.29,0,0,1,19,52.25c-.34.95-.61,1.47-.61,1.25a12.55,12.55,0,0,1,.61-2C19.34,50.49,19.61,49.83,19.61,50.05Z"/><path class="cls-1" d="M16.88,56.19a1.27,1.27,0,0,1-.61.85c-.34.18-.62,0-.62-.26s.28-.37.62-.54S16.88,56,16.88,56.19Z"/><path class="cls-1" d="M14.14,55.23c0,.22-.28-.12-.62-.88a7.93,7.93,0,0,1-.61-1.87c0-.22.28.31.62,1.07A7.5,7.5,0,0,1,14.14,55.23Z"/><path class="cls-1" d="M11.41,47.78c0,.23-.27-.58-.61-1.84a22.91,22.91,0,0,1-.62-2.72c0-.24.27.6.61,1.87A23.28,23.28,0,0,1,11.41,47.78Z"/><path class="cls-1" d="M8.68,37.26a7.63,7.63,0,0,1-.61-2,26.48,26.48,0,0,1-.62-2.82c0-.26.27.54.61,1.88A26.49,26.49,0,0,1,8.68,37.26Z"/><path class="cls-1" d="M6,27c0,.28-.26-.45-.6-1.44a13,13,0,0,1-.63-2.16c0-.28.27.15.61,1.15A13.92,13.92,0,0,1,6,27Z"/><path class="cls-1" d="M3.22,20.49c0,.28-.26.1-.6-.14S2,19.91,2,19.63a.37.37,0,0,1,.61-.31A1.89,1.89,0,0,1,3.22,20.49Z"/><path class="cls-1" d="M85.75,31c.07.16-.18.36-.54.39a.83.83,0,0,1-.76-.25c-.07-.15.15-.27.51-.31S85.68,30.89,85.75,31Z"/><path class="cls-1" d="M82.77,31.51c.07.16-.21.4-.61.5s-.75,0-.82-.17.19-.34.58-.43S82.71,31.35,82.77,31.51Z"/><path class="cls-1" d="M79.57,32.32c.05.2-.25.5-.67.63s-.77,0-.81-.21.24-.45.64-.55S79.51,32.12,79.57,32.32Z"/><path class="cls-1" d="M76.28,33.25c0,.25-.29.59-.7.71s-.75,0-.77-.31.27-.55.67-.65S76.25,33,76.28,33.25Z"/><path class="cls-1" d="M73.06,34.07a.82.82,0,0,1-.68.71.53.53,0,0,1-.7-.44.72.72,0,0,1,.65-.65C72.71,33.63,73,33.78,73.06,34.07Z"/><path class="cls-1" d="M70.06,34.57a.48.48,0,0,1-.59.5,1,1,0,0,1-.62-.82c0-.3.23-.37.56-.27S70,34.27,70.06,34.57Z"/><path class="cls-1" d="M67.46,33c0,.3-.23.26-.53-.19a3.69,3.69,0,0,1-.57-1.4c0-.28.21-.09.51.34A3.08,3.08,0,0,1,67.46,33Z"/><path class="cls-1" d="M65.05,29c0,.26-.21,0-.5-.59A7.12,7.12,0,0,1,64,26.83c0-.23.19.1.48.69A6,6,0,0,1,65.05,29Z"/><path class="cls-1" d="M62.73,24.13c0,.2-.2-.1-.49-.69A8.18,8.18,0,0,1,61.67,22c0-.18.18.16.48.73A6.77,6.77,0,0,1,62.73,24.13Z"/><path class="cls-1" d="M60.35,19.82c0,.15-.2,0-.51-.42a3.82,3.82,0,0,1-.61-.94c0-.14.19,0,.5.41A3.52,3.52,0,0,1,60.35,19.82Z"/><path class="cls-1" d="M57.81,17.55c0,.14-.22.25-.57.26s-.64-.11-.67-.27.21-.27.56-.28S57.78,17.4,57.81,17.55Z"/><path class="cls-1" d="M55.07,18.08c0,.15-.23.48-.57.69s-.63.23-.66.08.22-.41.55-.62S55,17.93,55.07,18.08Z"/><path class="cls-1" d="M52.35,20.08a1.71,1.71,0,0,1-.58.86c-.34.31-.62.4-.64.27s.23-.43.56-.75S52.33,19.94,52.35,20.08Z"/><path class="cls-1" d="M49.66,22.64a1.94,1.94,0,0,1-.59.84c-.34.31-.61.38-.62.28s.26-.36.59-.68S49.65,22.53,49.66,22.64Z"/><path class="cls-1" d="M47,25a1.45,1.45,0,0,1-.61.64c-.34.2-.61.18-.61.09s.28-.22.61-.42S47,24.86,47,25Z"/><path class="cls-1" d="M44.22,26.16c0,.09-.28.25-.62.28s-.61-.14-.61-.22.28-.05.61-.11S44.23,26.07,44.22,26.16Z"/><path class="cls-1" d="M41.48,25.78c0,.08-.28.09-.61-.11a1.44,1.44,0,0,1-.61-.65c0-.1.28.1.61.32S41.48,25.7,41.48,25.78Z"/><path class="cls-1" d="M38.75,23.73c0,.14-.28.06-.61-.26a2,2,0,0,1-.61-1c0-.18.28,0,.61.38A2.38,2.38,0,0,1,38.75,23.73Z"/><path class="cls-1" d="M36,20.91c0,.24-.28.19-.61-.13a2,2,0,0,1-.61-1.12c0-.28.28-.2.61.17A2.22,2.22,0,0,1,36,20.91Z"/><path class="cls-1" d="M33.28,18.33c0,.32-.28.4-.61.18a1.34,1.34,0,0,1-.61-1c0-.35.28-.46.61-.23A1.5,1.5,0,0,1,33.28,18.33Z"/><path class="cls-1" d="M30.55,17a.6.6,0,0,1-.61.6c-.34,0-.61-.17-.61-.51a.75.75,0,0,1,.61-.74A.61.61,0,0,1,30.55,17Z"/><path class="cls-1" d="M27.81,18.93a7.41,7.41,0,0,1-.61,1.95c-.34.82-.61,1.33-.61,1a8.62,8.62,0,0,1,.61-2.23C27.54,18.83,27.81,18.59,27.81,18.93Z"/><path class="cls-1" d="M25.08,26.75a20.23,20.23,0,0,1-.61,2.89c-.34,1.29-.62,2.11-.62,1.77a20.65,20.65,0,0,1,.61-3C24.8,27.12,25.08,26.41,25.08,26.75Z"/><path class="cls-1" d="M22.35,37.43a22.25,22.25,0,0,1-.61,3.06c-.34,1.34-.62,2.11-.62,1.77a21.94,21.94,0,0,1,.61-3C22.07,37.94,22.34,37.1,22.35,37.43Z"/><path class="cls-1" d="M19.61,47.56A11.48,11.48,0,0,1,19,50c-.34,1-.62,1.34-.62,1A10.36,10.36,0,0,1,19,48.81C19.33,47.85,19.61,47.23,19.61,47.56Z"/><path class="cls-1" d="M16.88,53.71a1.43,1.43,0,0,1-.61,1.09c-.34.16-.61-.21-.61-.55s.27-.51.61-.66S16.88,53.37,16.88,53.71Z"/><path class="cls-1" d="M14.15,52.66c0,.34-.28.15-.61-.61a7.79,7.79,0,0,1-.62-2.13c0-.33.27.15.61.91A6.36,6.36,0,0,1,14.15,52.66Z"/><path class="cls-1" d="M11.41,45.27c0,.32-.27-.37-.61-1.63a22,22,0,0,1-.63-2.88c0-.3.27.53.61,1.77A19.73,19.73,0,0,1,11.41,45.27Z"/><path class="cls-1" d="M8.65,34.85c0,.27-.26-.59-.6-1.93s-.62-2.61-.64-2.86A7.12,7.12,0,0,1,8,32,27.25,27.25,0,0,1,8.65,34.85Z"/><path class="cls-1" d="M5.9,24.72c0,.23-.25-.48-.59-1.47a18.54,18.54,0,0,1-.64-2.11c0-.21.24.33.58,1.31A16.63,16.63,0,0,1,5.9,24.72Z"/><path class="cls-1" d="M3.16,18.19c0,.21-.25,0-.59-.22s-.62-.45-.64-.66.24-.34.57-.1A1.9,1.9,0,0,1,3.16,18.19Z"/><path class="cls-1" d="M84.84,30.76c.15-.07,0-.06-.38,0a5,5,0,0,0-.91.16c-.15.06,0,.12.37.09A3.55,3.55,0,0,0,84.84,30.76Z"/><path class="cls-1" d="M81.92,31.08c.14,0-.06,0-.44.06s-.78.08-.91.08.06,0,.43,0A6.14,6.14,0,0,0,81.92,31.08Z"/><path class="cls-1" d="M78.89,31.41c.11,0-.12.15-.51.21a1.54,1.54,0,0,1-.87-.05c-.1-.08.12-.14.49-.16A4.07,4.07,0,0,1,78.89,31.41Z"/><path class="cls-1" d="M75.82,31.75c.08.13-.18.3-.57.36s-.74,0-.81-.21.18-.3.55-.32S75.74,31.63,75.82,31.75Z"/><path class="cls-1" d="M72.79,32.09c0,.2-.22.43-.6.48s-.7-.11-.74-.34.21-.43.58-.45S72.74,31.88,72.79,32.09Z"/><path class="cls-1" d="M69.85,32.4a.4.4,0,0,1-.56.39,1,1,0,0,1-.66-.69c0-.24.19-.27.53-.18S69.82,32.16,69.85,32.4Z"/><path class="cls-1" d="M67.23,30.95c0,.21-.19.12-.49-.28a4.25,4.25,0,0,1-.62-1.11c0-.18.17,0,.48.4A3.19,3.19,0,0,1,67.23,30.95Z"/><path class="cls-1" d="M64.79,27.46c0,.13-.16-.16-.46-.71s-.57-1.09-.62-1.18.15.27.45.77A12.53,12.53,0,0,1,64.79,27.46Z"/><path class="cls-1" d="M62.4,23.21a4.16,4.16,0,0,0-.44-.87,4,4,0,0,0-.64-1c-.06,0,.14.4.44.89A7.8,7.8,0,0,0,62.4,23.21Z"/><path class="cls-1" d="M60,19.44c.06,0-.14-.38-.45-.73s-.61-.55-.68-.48.14.37.45.69S59.92,19.49,60,19.44Z"/><path class="cls-1" d="M57.41,17.39c.07-.09-.15-.22-.5-.21a1.19,1.19,0,0,0-.73.19c-.06.09.15.14.5.14S57.35,17.48,57.41,17.39Z"/><path class="cls-1" d="M54.69,18c.06-.1-.17,0-.5.23a2.78,2.78,0,0,0-.69.61c-.05.11.16,0,.48-.22A3.9,3.9,0,0,0,54.69,18Z"/><path class="cls-1" d="M52.07,20.14c0-.13-.18.07-.51.4a3.23,3.23,0,0,0-.65.84c0,.15.18,0,.5-.34A4.52,4.52,0,0,0,52.07,20.14Z"/><path class="cls-1" d="M49.5,23c0-.17-.22,0-.54.35a2.27,2.27,0,0,0-.62.87c0,.18.22.11.54-.24A3,3,0,0,0,49.5,23Z"/><path class="cls-1" d="M46.91,25.47c0-.2-.25-.11-.58.11s-.61.47-.61.69.26.29.59.06A1.52,1.52,0,0,0,46.91,25.47Z"/><path class="cls-1" d="M44.23,26.78c0-.22-.28-.39-.62-.32s-.61.17-.61.38a.51.51,0,0,0,.61.42C43.94,27.19,44.23,27,44.23,26.78Z"/><path class="cls-1" d="M41.48,26.26c0-.18-.28-.45-.61-.71s-.61-.46-.61-.32a2.12,2.12,0,0,0,.61.9C41.21,26.44,41.48,26.45,41.48,26.26Z"/><path class="cls-1" d="M38.75,23.47a5.82,5.82,0,0,0-.61-.84c-.34-.43-.61-.84-.61-.85s.28.44.61.94S38.75,23.53,38.75,23.47Z"/><path class="cls-1" d="M36,19.6c0,.1-.28-.17-.61-.61a3.1,3.1,0,0,1-.61-1.1c0-.17.28.11.61.62A5.1,5.1,0,0,1,36,19.6Z"/><path class="cls-1" d="M33.28,16.06c0,.24-.28.18-.61-.1a1.6,1.6,0,0,1-.61-1c0-.29.28-.31.61,0A2.07,2.07,0,0,1,33.28,16.06Z"/><path class="cls-1" d="M30.55,14.26a.62.62,0,0,1-.61.59.5.5,0,0,1-.61-.49.75.75,0,0,1,.61-.74A.62.62,0,0,1,30.55,14.26Z"/><path class="cls-1" d="M27.81,16.2a7.42,7.42,0,0,1-.61,1.95c-.34.82-.62,1.34-.62,1a8.63,8.63,0,0,1,.62-2.23C27.54,16.1,27.81,15.86,27.81,16.2Z"/><path class="cls-1" d="M25.08,24a20.21,20.21,0,0,1-.61,2.89c-.34,1.29-.62,2.11-.62,1.78a20.63,20.63,0,0,1,.61-3C24.8,24.41,25.08,23.69,25.08,24Z"/><path class="cls-1" d="M22.34,34.73a22.17,22.17,0,0,1-.61,3.06c-.34,1.34-.62,2.11-.62,1.78a21.85,21.85,0,0,1,.61-3C22.06,35.24,22.34,34.4,22.34,34.73Z"/><path class="cls-1" d="M19.6,44.88A11.42,11.42,0,0,1,19,47.33c-.34,1-.62,1.34-.62,1A10.33,10.33,0,0,1,19,46.13C19.32,45.17,19.6,44.55,19.6,44.88Z"/><path class="cls-1" d="M16.86,51a1.41,1.41,0,0,1-.61,1.08c-.34.16-.61-.22-.62-.54s.27-.49.61-.65S16.86,50.7,16.86,51Z"/><path class="cls-1" d="M14.13,50c0,.32-.27.12-.61-.62a7.66,7.66,0,0,1-.63-2c0-.3.27.18.61.9A6,6,0,0,1,14.13,50Z"/><path class="cls-1" d="M11.35,43c0,.26-.26-.43-.61-1.64a26.22,26.22,0,0,1-.66-2.66,7.19,7.19,0,0,1,.61,1.77A21,21,0,0,1,11.35,43Z"/><path class="cls-1" d="M8.52,33a15.35,15.35,0,0,1-.59-2c-.35-1.28-.65-2.42-.68-2.57s.24.72.59,2S8.5,32.85,8.52,33Z"/><path class="cls-1" d="M5.71,23.4c0,.11-.23-.66-.57-1.62s-.65-1.72-.68-1.8.22.51.56,1.45S5.67,23.28,5.71,23.4Z"/><path class="cls-1" d="M2.93,17.15a7.23,7.23,0,0,0-.55-.49c-.34-.25-.64-.33-.68-.38s.2-.07.54.17A3.33,3.33,0,0,1,2.93,17.15Z"/><path class="cls-1" d="M83.4,31.92c.2-.2.07-.32-.28-.31a1.74,1.74,0,0,0-1,.34c-.19.18-.08.36.27.36A1.62,1.62,0,0,0,83.4,31.92Z"/><path class="cls-1" d="M80.62,31.87c.18-.15,0-.26-.32-.28a1.93,1.93,0,0,0-.93.14c-.17.11,0,.26.31.32A1.37,1.37,0,0,0,80.62,31.87Z"/><path class="cls-1" d="M77.84,31.52c.14-.05,0-.11-.38-.14s-.74-.07-.86-.07,0,.08.37.17A2,2,0,0,0,77.84,31.52Z"/><path class="cls-1" d="M75.07,31c.1.06-.1.09-.45.05a1.51,1.51,0,0,1-.79-.25c-.09-.1.11-.12.45,0A4.82,4.82,0,0,1,75.07,31Z"/><path class="cls-1" d="M72.3,30.67c.07.15-.16.27-.52.26s-.68-.16-.74-.35.17-.31.51-.27A1,1,0,0,1,72.3,30.67Z"/><path class="cls-1" d="M69.51,30.6c0,.21-.2.41-.53.34a1,1,0,0,1-.68-.57c0-.2.18-.25.51-.19S69.46,30.39,69.51,30.6Z"/><path class="cls-1" d="M66.87,29.47c.05.16-.17.07-.48-.25a4.71,4.71,0,0,1-.66-.85c-.05-.12.15.05.47.34A2.84,2.84,0,0,1,66.87,29.47Z"/><path class="cls-1" d="M64.35,26.7a6.48,6.48,0,0,0-.44-.67,4.27,4.27,0,0,0-.66-.84c-.06,0,.13.31.44.7S64.29,26.64,64.35,26.7Z"/><path class="cls-1" d="M61.89,23.32c.07-.05-.12-.44-.43-.87s-.61-.69-.69-.58.11.49.42.87S61.82,23.37,61.89,23.32Z"/><path class="cls-1" d="M59.4,20.32c.08-.16-.11-.54-.43-.82s-.64-.32-.73-.13.11.52.43.77S59.32,20.48,59.4,20.32Z"/><path class="cls-1" d="M56.79,18.72c.09-.22-.12-.46-.46-.45a.9.9,0,0,0-.76.48c-.08.23.11.36.45.34S56.71,18.95,56.79,18.72Z"/><path class="cls-1" d="M54.13,19.43c.08-.25-.12-.26-.44,0a2.3,2.3,0,0,0-.69.95c-.07.26.12.23.43,0A2.65,2.65,0,0,0,54.13,19.43Z"/><path class="cls-1" d="M51.65,21.88c.06-.28-.14-.2-.45.17a3.26,3.26,0,0,0-.64,1.22c0,.3.15.24.44-.16A4.09,4.09,0,0,0,51.65,21.88Z"/><path class="cls-1" d="M49.25,25c0-.33-.18-.26-.49.11a2.72,2.72,0,0,0-.6,1.26c0,.35.19.35.49,0A3.4,3.4,0,0,0,49.25,25Z"/><path class="cls-1" d="M46.81,27.86c0-.37-.23-.41-.55-.17a1.53,1.53,0,0,0-.59,1.07c0,.38.24.55.55.29A1.92,1.92,0,0,0,46.81,27.86Z"/><path class="cls-1" d="M44.22,29.35a.59.59,0,0,0-.62-.65.66.66,0,0,0-.61.66c0,.39.28.81.61.78A.77.77,0,0,0,44.22,29.35Z"/><path class="cls-1" d="M41.48,28.42a2.2,2.2,0,0,0-.61-1.21c-.34-.38-.61-.55-.61-.28a3.16,3.16,0,0,0,.61,1.38C41.21,28.76,41.48,28.76,41.48,28.42Z"/><path class="cls-1" d="M38.75,24.48a5.17,5.17,0,0,0-.61-1.37c-.34-.6-.61-1-.61-1a9.3,9.3,0,0,0,.61,1.44C38.47,24.29,38.75,24.66,38.75,24.48Z"/><path class="cls-1" d="M36,19.18s-.28-.47-.61-1.08a7,7,0,0,1-.61-1.28c0-.1.28.36.61,1.06S36,19.16,36,19.18Z"/><path class="cls-1" d="M33.28,14.3c0,.2-.28,0-.61-.43a2.42,2.42,0,0,1-.61-1.15c0-.26.28-.17.61.31A3.44,3.44,0,0,1,33.28,14.3Z"/><path class="cls-1" d="M30.55,11.64c0,.32-.28.49-.61.5s-.61-.16-.61-.5.28-.73.61-.71A.74.74,0,0,1,30.55,11.64Z"/><path class="cls-1" d="M27.81,13.47a7.44,7.44,0,0,1-.62,1.95c-.34.82-.62,1.34-.62,1a8.66,8.66,0,0,1,.62-2.23C27.54,13.38,27.81,13.14,27.81,13.47Z"/><path class="cls-1" d="M25.07,21.32a20.24,20.24,0,0,1-.62,2.89c-.34,1.29-.62,2.12-.62,1.78a20.64,20.64,0,0,1,.62-3C24.79,21.71,25.07,21,25.07,21.32Z"/><path class="cls-1" d="M22.32,32.05a22.16,22.16,0,0,1-.61,3.06c-.34,1.34-.62,2.12-.62,1.79a21.87,21.87,0,0,1,.61-3C22,32.57,22.32,31.72,22.32,32.05Z"/><path class="cls-1" d="M19.58,42.22A11.41,11.41,0,0,1,19,44.68c-.34,1-.62,1.35-.62,1A10.33,10.33,0,0,1,19,43.49C19.3,42.52,19.58,41.89,19.58,42.22Z"/><path class="cls-1" d="M16.84,48.39a1.41,1.41,0,0,1-.61,1.08c-.34.16-.62-.2-.62-.53s.27-.5.61-.65S16.84,48.07,16.84,48.39Z"/><path class="cls-1" d="M14.09,47.54c0,.3-.27.12-.62-.56a6.86,6.86,0,0,1-.65-1.87c0-.27.27.16.62.82A5.15,5.15,0,0,1,14.09,47.54Z"/><path class="cls-1" d="M11.23,41c0,.23-.26-.43-.62-1.56S9.95,37.19,9.93,37a8.78,8.78,0,0,1,.62,1.67A19.71,19.71,0,0,1,11.23,41Z"/><path class="cls-1" d="M8.32,31.76c0,.14-.24-.73-.6-1.93S7,27.62,7,27.52s.23.74.6,1.89S8.29,31.63,8.32,31.76Z"/><path class="cls-1" d="M5.41,22.79a13.3,13.3,0,0,0-.57-1.62,8.85,8.85,0,0,0-.72-1.55,10.82,10.82,0,0,0,.56,1.44C5,21.93,5.37,22.75,5.41,22.79Z"/><path class="cls-1" d="M2.57,17s-.19-.37-.53-.6a.89.89,0,0,0-.7-.18c-.05,0,.18.07.52.28S2.52,17,2.57,17Z"/><path class="cls-1" d="M81.73,33.73c.21-.23.11-.42-.23-.44a1.37,1.37,0,0,0-1,.32c-.2.21-.11.44.22.48A1.28,1.28,0,0,0,81.73,33.73Z"/><path class="cls-1" d="M79.11,33.22c.19-.17.08-.39-.24-.5a1.12,1.12,0,0,0-.89,0c-.17.13-.07.37.23.52A.87.87,0,0,0,79.11,33.22Z"/><path class="cls-1" d="M76.63,32.07c.15-.07,0-.25-.29-.39a2,2,0,0,0-.81-.22c-.13,0,0,.2.29.4A1,1,0,0,0,76.63,32.07Z"/><path class="cls-1" d="M74.19,30.7c.11,0-.05,0-.37-.18a3.62,3.62,0,0,1-.74-.4c-.09-.09.07,0,.37.16A6.4,6.4,0,0,0,74.19,30.7Z"/><path class="cls-1" d="M71.72,29.52c.07.14-.13.17-.45.09a1.06,1.06,0,0,1-.7-.45c-.06-.18.15-.25.46-.13A1.5,1.5,0,0,1,71.72,29.52Z"/><path class="cls-1" d="M69.11,29c.05.2-.19.38-.52.34a.86.86,0,0,1-.7-.46c-.05-.19.18-.28.52-.26S69.06,28.75,69.11,29Z"/><path class="cls-1" d="M66.43,28.24c.05.15-.16.11-.49-.12a3.21,3.21,0,0,1-.69-.64c-.06-.11.16,0,.48.17A1.85,1.85,0,0,1,66.43,28.24Z"/><path class="cls-1" d="M63.85,26.3a3.49,3.49,0,0,0-.45-.5,2.5,2.5,0,0,0-.69-.58c-.07,0,.13.24.45.51Z"/><path class="cls-1" d="M61.3,23.88c.07-.07-.12-.4-.43-.72s-.64-.45-.72-.32.12.43.44.69S61.22,24,61.3,23.88Z"/><path class="cls-1" d="M58.73,21.76c.08-.18-.11-.53-.43-.73s-.66-.14-.75.08.11.5.44.66S58.64,21.94,58.73,21.76Z"/><path class="cls-1" d="M56.07,20.72c.09-.26-.11-.51-.45-.48a1,1,0,0,0-.76.59c-.09.27.1.38.43.35A.91.91,0,0,0,56.07,20.72Z"/><path class="cls-1" d="M53.48,21.62c.08-.28-.1-.32-.4,0a2.86,2.86,0,0,0-.67,1.1c-.07.3.1.24.39-.06A3.14,3.14,0,0,0,53.48,21.62Z"/><path class="cls-1" d="M51.15,24.38c.06-.32-.12-.25-.4.17a4.29,4.29,0,0,0-.6,1.39c-.05.34.12.24.4-.2A5.2,5.2,0,0,0,51.15,24.38Z"/><path class="cls-1" d="M48.94,27.91c0-.37-.16-.32-.44.1a3.55,3.55,0,0,0-.56,1.44c0,.39.17.36.44-.08A4.25,4.25,0,0,0,48.94,27.91Z"/><path class="cls-1" d="M46.68,31.09c0-.41-.21-.48-.51-.21a1.91,1.91,0,0,0-.57,1.23c0,.43.23.57.52.28A2.28,2.28,0,0,0,46.68,31.09Z"/><path class="cls-1" d="M44.2,32.81a.65.65,0,0,0-.6-.73.6.6,0,0,0-.61.65c0,.43.28.93.61.95S44.2,33.25,44.2,32.81Z"/><path class="cls-1" d="M41.48,31.33a3.56,3.56,0,0,0-.61-1.54c-.34-.53-.61-.78-.61-.48a4.86,4.86,0,0,0,.61,1.7C41.21,31.61,41.48,31.7,41.48,31.33Z"/><path class="cls-1" d="M38.75,26.08a8.6,8.6,0,0,0-.61-1.78A5,5,0,0,0,37.52,23a14.43,14.43,0,0,0,.61,1.83C38.47,25.76,38.75,26.28,38.75,26.08Z"/><path class="cls-1" d="M36,19.16s-.28-.68-.61-1.48a14.83,14.83,0,0,1-.61-1.59,8,8,0,0,1,.61,1.43C35.74,18.42,36,19.17,36,19.16Z"/><path class="cls-1" d="M33.28,12.77c0,.19-.28-.18-.61-.74a3.93,3.93,0,0,1-.61-1.39c0-.26.28,0,.61.58A5.7,5.7,0,0,1,33.28,12.77Z"/><path class="cls-1" d="M30.55,9.06c0,.32-.28.41-.61.37s-.62-.19-.62-.53.28-.76.62-.68A1,1,0,0,1,30.55,9.06Z"/><path class="cls-1" d="M27.81,10.75a7.48,7.48,0,0,1-.62,2c-.34.82-.62,1.35-.62,1a8.69,8.69,0,0,1,.62-2.23C27.53,10.66,27.81,10.41,27.81,10.75Z"/><path class="cls-1" d="M25.06,18.62a20.31,20.31,0,0,1-.62,2.9c-.34,1.3-.62,2.13-.62,1.79a20.73,20.73,0,0,1,.62-3C24.78,19,25.06,18.29,25.06,18.62Z"/><path class="cls-1" d="M22.31,29.38a22.22,22.22,0,0,1-.62,3.06c-.34,1.35-.62,2.13-.62,1.8a21.94,21.94,0,0,1,.62-3C22,29.9,22.31,29,22.31,29.38Z"/><path class="cls-1" d="M19.56,39.58A11.45,11.45,0,0,1,18.95,42c-.34,1-.62,1.36-.62,1a10.36,10.36,0,0,1,.61-2.22C19.28,39.88,19.56,39.25,19.56,39.58Z"/><path class="cls-1" d="M16.81,45.77a1.41,1.41,0,0,1-.61,1.08c-.34.16-.62-.19-.62-.51s.27-.51.61-.67S16.81,45.44,16.81,45.77Z"/><path class="cls-1" d="M14,45.13c0,.3-.27.16-.63-.46a5.7,5.7,0,0,1-.67-1.73c0-.27.28.1.64.7A4.22,4.22,0,0,1,14,45.13Z"/><path class="cls-1" d="M11.1,39.18c0,.22-.27-.38-.64-1.41a23.16,23.16,0,0,1-.71-2.24A6.66,6.66,0,0,1,10.39,37,15.72,15.72,0,0,1,11.1,39.18Z"/><path class="cls-1" d="M8.08,30.73c0,.13-.25-.68-.62-1.78s-.7-2-.74-2.11.24.68.62,1.73S8.05,30.6,8.08,30.73Z"/><path class="cls-1" d="M5.07,22.52A9.68,9.68,0,0,0,4.49,21a5.92,5.92,0,0,0-.74-1.37A7.82,7.82,0,0,0,4.32,21C4.69,21.74,5,22.49,5.07,22.52Z"/><path class="cls-1" d="M2.16,17.29c.05,0-.19-.38-.54-.57a.77.77,0,0,0-.72-.07c-.05.06.18.08.53.25S2.11,17.33,2.16,17.29Z"/><path class="cls-1" d="M80.1,35.39c.19-.16.08-.34-.24-.4a1.24,1.24,0,0,0-.91.14c-.18.15-.07.35.24.43A1.13,1.13,0,0,0,80.1,35.39Z"/><path class="cls-1" d="M77.64,34.45c.17-.12.08-.37-.21-.57a1,1,0,0,0-.8-.21c-.16.08-.06.34.21.57S77.47,34.56,77.64,34.45Z"/><path class="cls-1" d="M75.45,32.53c.14,0,0-.27-.24-.52a2.17,2.17,0,0,0-.71-.49c-.12,0,0,.2.25.5S75.31,32.56,75.45,32.53Z"/><path class="cls-1" d="M73.34,30.27c.1.08,0-.08-.31-.32a5.58,5.58,0,0,1-.65-.64c-.08-.12.07,0,.33.28S73.25,30.19,73.34,30.27Z"/><path class="cls-1" d="M71.16,28.3c.06.17-.12.14-.41,0a1.33,1.33,0,0,1-.64-.61c-.05-.2.15-.25.43-.06A1.86,1.86,0,0,1,71.16,28.3Z"/><path class="cls-1" d="M68.73,27.27c0,.22-.19.39-.53.39a.71.71,0,0,1-.7-.41c0-.21.2-.37.54-.38A.66.66,0,0,1,68.73,27.27Z"/><path class="cls-1" d="M66,27c0,.18-.18.22-.51.08a1.48,1.48,0,0,1-.69-.51c-.05-.14.18-.16.51-.06A1.08,1.08,0,0,1,66,27Z"/><path class="cls-1" d="M63.36,25.82c.06.08-.16,0-.49-.23l-.7-.43a3,3,0,0,1,.49.21A2.56,2.56,0,0,1,63.36,25.82Z"/><path class="cls-1" d="M60.72,24.34c.07,0-.14-.23-.47-.43s-.65-.27-.72-.2.14.23.47.38A2.13,2.13,0,0,0,60.72,24.34Z"/><path class="cls-1" d="M58.07,23.07c.07-.13-.13-.37-.46-.48s-.67,0-.75.13.14.31.47.39S58,23.19,58.07,23.07Z"/><path class="cls-1" d="M55.37,22.56c.08-.19-.13-.37-.46-.33a1,1,0,0,0-.73.51c-.08.19.11.22.44.17S55.29,22.75,55.37,22.56Z"/><path class="cls-1" d="M52.85,23.65c.07-.21-.1-.18-.38.15a3.77,3.77,0,0,0-.62,1.05c-.07.22.1.05.37-.29A4.54,4.54,0,0,0,52.85,23.65Z"/><path class="cls-1" d="M50.68,26.71c.06-.24-.11-.1-.37.37a5.89,5.89,0,0,0-.55,1.35c0,.26.12,0,.37-.45A7.78,7.78,0,0,0,50.68,26.71Z"/><path class="cls-1" d="M48.65,30.61c0-.28-.15-.15-.4.31a4.43,4.43,0,0,0-.52,1.39c0,.3.16.15.41-.33A5.22,5.22,0,0,0,48.65,30.61Z"/><path class="cls-1" d="M46.56,34.12c0-.32-.2-.32-.48,0a2.08,2.08,0,0,0-.54,1.15c0,.34.22.36.5,0A2.33,2.33,0,0,0,46.56,34.12Z"/><path class="cls-1" d="M44.19,36.06c0-.35-.25-.52-.59-.57s-.61.07-.61.41a.93.93,0,0,0,.61.86C43.94,36.82,44.19,36.41,44.19,36.06Z"/><path class="cls-1" d="M41.48,34.07a5.45,5.45,0,0,0-.61-1.67c-.34-.67-.61-1.1-.61-.86a7.2,7.2,0,0,0,.61,1.82C41.21,34.09,41.48,34.37,41.48,34.07Z"/><path class="cls-1" d="M38.75,27.54a16.82,16.82,0,0,0-.61-2c-.34-1-.61-1.75-.61-1.69s.28,1,.61,2.07A7.22,7.22,0,0,0,38.75,27.54Z"/><path class="cls-1" d="M36,19.06s-.28-.78-.61-1.78a19.94,19.94,0,0,1-.61-2A8.68,8.68,0,0,1,35.4,17C35.74,18.07,36,19,36,19.06Z"/><path class="cls-1" d="M33.28,11.18c0,.21-.28-.28-.61-1a6,6,0,0,1-.61-1.67c0-.27.28,0,.61.79A8.21,8.21,0,0,1,33.28,11.18Z"/><path class="cls-1" d="M30.55,6.48c0,.32-.28.35-.61.25s-.62-.22-.62-.56.28-.78.62-.66A1.19,1.19,0,0,1,30.55,6.48Z"/><path class="cls-1" d="M27.81,8a7.51,7.51,0,0,1-.62,2c-.34.82-.62,1.35-.62,1a8.74,8.74,0,0,1,.62-2.24C27.53,7.93,27.81,7.69,27.81,8Z"/><path class="cls-1" d="M25.06,15.92a20.41,20.41,0,0,1-.62,2.9c-.34,1.3-.62,2.13-.62,1.8a20.83,20.83,0,0,1,.62-3C24.78,16.31,25.05,15.58,25.06,15.92Z"/><path class="cls-1" d="M22.3,26.71a22.34,22.34,0,0,1-.62,3.07c-.34,1.35-.62,2.13-.62,1.8a22.07,22.07,0,0,1,.62-3C22,27.23,22.29,26.37,22.3,26.71Z"/><path class="cls-1" d="M19.54,36.93a11.52,11.52,0,0,1-.61,2.46c-.34,1-.62,1.36-.62,1a10.43,10.43,0,0,1,.61-2.22C19.26,37.23,19.54,36.6,19.54,36.93Z"/><path class="cls-1" d="M16.79,43.14a1.42,1.42,0,0,1-.61,1.08c-.34.16-.62-.17-.62-.5s.27-.53.61-.69S16.79,42.81,16.79,43.14Z"/><path class="cls-1" d="M14,42.7c0,.31-.28.22-.65-.34a4.57,4.57,0,0,1-.69-1.62c0-.28.29,0,.66.55A3.45,3.45,0,0,1,14,42.7Z"/><path class="cls-1" d="M11,37.33c0,.24-.28-.28-.66-1.23A15.34,15.34,0,0,1,9.57,34c0-.2.28.4.67,1.3A11.27,11.27,0,0,1,11,37.33Z"/><path class="cls-1" d="M7.85,29.64a11,11,0,0,1-.65-1.56c-.39-1-.72-1.87-.76-2s.26.54.65,1.5S7.83,29.49,7.85,29.64Z"/><path class="cls-1" d="M4.74,22.17c0,.06-.24-.58-.61-1.31a9.3,9.3,0,0,0-.75-1.29s.23.41.61,1.12S4.71,22.1,4.74,22.17Z"/><path class="cls-1" d="M1.76,17.48s-.2-.28-.55-.43A1.27,1.27,0,0,0,.49,17a1.29,1.29,0,0,1,.55.1A6.24,6.24,0,0,1,1.76,17.48Z"/><path class="cls-1" d="M78.82,36.11c.13,0,0-.07-.33-.16a4.93,4.93,0,0,0-.79-.18c-.12,0,0,.08.34.17A3.88,3.88,0,0,0,78.82,36.11Z"/><path class="cls-1" d="M76.47,34.87c.12,0,0-.18-.25-.46a3.53,3.53,0,0,0-.67-.58c-.11-.05,0,.14.26.44A2.16,2.16,0,0,0,76.47,34.87Z"/><path class="cls-1" d="M74.51,32.33c.09.09,0-.15-.25-.5s-.5-.72-.58-.84,0,.07.27.46A6.79,6.79,0,0,0,74.51,32.33Z"/><path class="cls-1" d="M72.68,29.32c.06.17-.07,0-.31-.34a4,4,0,0,1-.54-.93c-.05-.2.1-.1.33.26A7.57,7.57,0,0,1,72.68,29.32Z"/><path class="cls-1" d="M70.74,26.72c0,.23-.14.2-.41,0a1.51,1.51,0,0,1-.57-.8c0-.25.18-.32.44-.09A1.91,1.91,0,0,1,70.74,26.72Z"/><path class="cls-1" d="M68.43,25.35c0,.26-.21.45-.55.47a.6.6,0,0,1-.68-.43c0-.26.23-.48.57-.51A.6.6,0,0,1,68.43,25.35Z"/><path class="cls-1" d="M65.69,25.32c0,.24-.21.38-.55.32s-.64-.28-.67-.49.22-.37.56-.33A.73.73,0,0,1,65.69,25.32Z"/><path class="cls-1" d="M63,24.82c0,.17-.2.21-.53.11s-.64-.28-.68-.41.21-.22.54-.15S62.94,24.65,63,24.82Z"/><path class="cls-1" d="M60.27,24.13c0,.09-.18,0-.52-.05a3.35,3.35,0,0,1-.7-.24c0-.05.19-.09.53,0A1.25,1.25,0,0,1,60.27,24.13Z"/><path class="cls-1" d="M57.56,23.57a4,4,0,0,0-.51-.11,3.66,3.66,0,0,0-.72,0,3,3,0,0,1,.53,0A3.59,3.59,0,0,1,57.56,23.57Z"/><path class="cls-1" d="M54.82,23.44c.05,0-.18-.06-.51,0a2.65,2.65,0,0,0-.68.23.85.85,0,0,1,.48-.18C54.44,23.43,54.77,23.46,54.82,23.44Z"/><path class="cls-1" d="M52.34,24.64c.05,0-.13.15-.4.51s-.52.76-.56.79a2.18,2.18,0,0,1,.39-.7A2.42,2.42,0,0,1,52.34,24.64Z"/><path class="cls-1" d="M50.29,27.95s-.12.26-.36.77-.46,1-.49,1.09a9.56,9.56,0,0,1,.36-.9A7.84,7.84,0,0,1,50.29,27.95Z"/><path class="cls-1" d="M48.42,32.15a3.49,3.49,0,0,0-.39.73A9,9,0,0,0,47.57,34a3.63,3.63,0,0,0,.4-.8C48.2,32.67,48.4,32.23,48.42,32.15Z"/><path class="cls-1" d="M46.47,35.95c0-.11-.2.07-.47.41a2.6,2.6,0,0,0-.51.83c0,.12.22-.07.49-.42A2.76,2.76,0,0,0,46.47,35.95Z"/><path class="cls-1" d="M44.19,38c0-.12-.25-.1-.59-.17s-.61-.15-.61,0,.28.4.61.46S44.19,38.17,44.19,38Z"/><path class="cls-1" d="M41.48,35.73a13.64,13.64,0,0,0-.61-1.55c-.34-.79-.61-1.45-.61-1.39a17.23,17.23,0,0,0,.61,1.68A4.49,4.49,0,0,0,41.48,35.73Z"/><path class="cls-1" d="M38.75,28.17l-.61-2.09c-.34-1.16-.61-2.15-.61-2.22s.28.87.61,2.1Z"/><path class="cls-1" d="M36,18.37a13.1,13.1,0,0,1-.61-1.92A20.79,20.79,0,0,1,34.79,14c0-.2.28.57.61,1.8S36,18.23,36,18.37Z"/><path class="cls-1" d="M33.28,9.27c0,.27-.28-.3-.61-1.13a8,8,0,0,1-.61-1.95c0-.31.28,0,.61.89A10,10,0,0,1,33.28,9.27Z"/><path class="cls-1" d="M30.55,3.82c0,.34-.28.33-.61.19s-.62-.24-.62-.58.28-.79.62-.65A1.3,1.3,0,0,1,30.55,3.82Z"/><path class="cls-1" d="M27.81,5.3a7.54,7.54,0,0,1-.62,2c-.34.83-.62,1.36-.62,1A8.77,8.77,0,0,1,27.19,6C27.53,5.2,27.81,5,27.81,5.3Z"/><path class="cls-1" d="M25.05,13.21a20.5,20.5,0,0,1-.62,2.91c-.34,1.3-.62,2.14-.62,1.8a21,21,0,0,1,.62-3C24.77,13.59,25,12.87,25.05,13.21Z"/><path class="cls-1" d="M22.29,24a22.49,22.49,0,0,1-.62,3.08c-.34,1.35-.62,2.14-.62,1.8a22.22,22.22,0,0,1,.62-3C22,24.54,22.28,23.68,22.29,24Z"/><path class="cls-1" d="M19.52,34.27a11.61,11.61,0,0,1-.62,2.47c-.34,1-.62,1.36-.62,1a10.52,10.52,0,0,1,.62-2.23C19.24,34.57,19.52,33.93,19.52,34.27Z"/><path class="cls-1" d="M16.77,40.49a1.44,1.44,0,0,1-.61,1.09c-.34.16-.62-.17-.62-.5s.28-.54.62-.7S16.77,40.16,16.77,40.49Z"/><path class="cls-1" d="M13.95,40.17c0,.32-.29.28-.67-.22a3.75,3.75,0,0,1-.69-1.56c0-.31.3-.07.68.41A3,3,0,0,1,13.95,40.17Z"/><path class="cls-1" d="M10.87,35.26c0,.28-.3-.16-.69-1a9.85,9.85,0,0,1-.74-2c0-.25.3.24.7,1.07A8.14,8.14,0,0,1,10.87,35.26Z"/><path class="cls-1" d="M7.67,28.2c0,.21-.29-.39-.69-1.3A16.16,16.16,0,0,1,6.23,25c0-.18.29.35.69,1.23A11.78,11.78,0,0,1,7.67,28.2Z"/><path class="cls-1" d="M4.48,21.35c0,.15-.26-.37-.65-1S3.12,19.09,3.09,19s.26.19.64.84A8.76,8.76,0,0,1,4.48,21.35Z"/><path class="cls-1" d="M1.44,17.07c0,.11-.23-.07-.59-.2s-.66-.15-.69-.25.22-.26.58-.13A1.43,1.43,0,0,1,1.44,17.07Z"/><path class="cls-1" d="M78.19,35.09c0,.27-.2.41-.51.32a.88.88,0,0,1-.63-.62c0-.25.2-.39.52-.32A.81.81,0,0,1,78.19,35.09Z"/><path class="cls-1" d="M75.85,33.82c0,.25-.13.18-.37-.14a2.69,2.69,0,0,1-.5-1c0-.26.15-.22.38.11A2.94,2.94,0,0,1,75.85,33.82Z"/><path class="cls-1" d="M74,30.91c0,.27-.11.12-.32-.3a4.2,4.2,0,0,1-.42-1.26c0-.29.14-.21.35.23A5.14,5.14,0,0,1,74,30.91Z"/><path class="cls-1" d="M72.37,27.43c0,.31-.14.19-.36-.21A3.32,3.32,0,0,1,71.6,26c0-.33.18-.31.39.1A4,4,0,0,1,72.37,27.43Z"/><path class="cls-1" d="M70.57,24.44c0,.34-.19.35-.45.1a1.55,1.55,0,0,1-.5-1c0-.34.24-.48.5-.24A1.85,1.85,0,0,1,70.57,24.44Z"/><path class="cls-1" d="M68.28,23a.58.58,0,0,1-.6.58.59.59,0,0,1-.63-.57.62.62,0,0,1,.61-.62A.63.63,0,0,1,68.28,23Z"/><path class="cls-1" d="M65.54,23a.55.55,0,0,1-.6.57.65.65,0,0,1-.63-.61.61.61,0,0,1,.62-.62A.67.67,0,0,1,65.54,23Z"/><path class="cls-1" d="M62.79,22.88a.49.49,0,0,1-.6.48.65.65,0,0,1-.64-.56.58.58,0,0,1,.61-.56A.67.67,0,0,1,62.79,22.88Z"/><path class="cls-1" d="M60,22.7c0,.28-.25.43-.59.4s-.64-.21-.65-.47a.55.55,0,0,1,.61-.5A.65.65,0,0,1,60,22.7Z"/><path class="cls-1" d="M57.29,22.56c0,.25-.24.38-.58.37s-.64-.15-.65-.4a.55.55,0,0,1,.6-.49A.64.64,0,0,1,57.29,22.56Z"/><path class="cls-1" d="M54.54,22.54c0,.26-.25.4-.58.44s-.6,0-.61-.26a.72.72,0,0,1,.57-.7A.6.6,0,0,1,54.54,22.54Z"/><path class="cls-1" d="M52.07,23.71a2,2,0,0,1-.44,1c-.26.37-.48.57-.49.31a2.77,2.77,0,0,1,.44-1.29C51.83,23.4,52.05,23.44,52.07,23.71Z"/><path class="cls-1" d="M50.09,27.16a4.22,4.22,0,0,1-.38,1.35c-.22.53-.41.85-.42.59a5.41,5.41,0,0,1,.39-1.53C49.89,27,50.08,26.9,50.09,27.16Z"/><path class="cls-1" d="M48.32,31.56a4.53,4.53,0,0,1-.39,1.34c-.23.53-.42.82-.42.58A5.61,5.61,0,0,1,47.92,32C48.14,31.48,48.31,31.31,48.32,31.56Z"/><path class="cls-1" d="M46.45,35.53a2.27,2.27,0,0,1-.47,1c-.26.35-.49.48-.48.25A2.58,2.58,0,0,1,46,35.71C46.26,35.36,46.45,35.29,46.45,35.53Z"/><path class="cls-1" d="M44.19,37.68a.51.51,0,0,1-.59.44.72.72,0,0,1-.61-.59c0-.22.28-.28.61-.28S44.2,37.45,44.19,37.68Z"/><path class="cls-1" d="M41.48,35.36c0,.21-.28-.26-.61-1.12a10.13,10.13,0,0,1-.61-2c0-.21.28.37.61,1.24A10.22,10.22,0,0,1,41.48,35.36Z"/><path class="cls-1" d="M38.75,27.26c0,.24-.28-.61-.61-1.89a22,22,0,0,1-.61-2.79c0-.27.28.56.61,1.87A24.45,24.45,0,0,1,38.75,27.26Z"/><path class="cls-1" d="M36,16.61c0,.31-.28-.56-.61-1.86a20.43,20.43,0,0,1-.61-2.87c0-.34.28.38.61,1.71A22.77,22.77,0,0,1,36,16.61Z"/><path class="cls-1" d="M33.28,6.75c0,.36-.28-.21-.61-1.12a9,9,0,0,1-.61-2.17c0-.37.28-.08.61.83A10.59,10.59,0,0,1,33.28,6.75Z"/><path class="cls-1" d="M30.55,1c0,.36-.28.36-.61.24S29.32,1,29.32.7s.28-.77.62-.69S30.55.66,30.55,1Z"/><path class="cls-1" d="M27.81,2.56a7.57,7.57,0,0,1-.62,2c-.34.83-.62,1.36-.62,1a8.8,8.8,0,0,1,.62-2.25C27.53,2.47,27.81,2.22,27.81,2.56Z"/><path class="cls-1" d="M25,10.48a20.65,20.65,0,0,1-.62,2.92c-.34,1.31-.62,2.14-.62,1.8a21.11,21.11,0,0,1,.62-3C24.77,10.87,25,10.14,25,10.48Z"/><path class="cls-1" d="M22.28,21.31a22.69,22.69,0,0,1-.62,3.09c-.34,1.35-.62,2.14-.62,1.8a22.45,22.45,0,0,1,.62-3C22,21.82,22.28,21,22.28,21.31Z"/><path class="cls-1" d="M19.51,31.57a11.72,11.72,0,0,1-.62,2.49c-.34,1-.62,1.36-.62,1a10.62,10.62,0,0,1,.62-2.24C19.23,31.86,19.51,31.23,19.51,31.57Z"/><path class="cls-1" d="M16.76,37.8a1.45,1.45,0,0,1-.62,1.1c-.34.16-.62-.18-.62-.52s.28-.54.62-.7S16.76,37.46,16.76,37.8Z"/><path class="cls-1" d="M13.94,37.45c0,.35-.3.34-.68-.13a3.35,3.35,0,0,1-.69-1.58c0-.35.32-.17.7.3A2.83,2.83,0,0,1,13.94,37.45Z"/><path class="cls-1" d="M10.84,32.78c0,.34-.32,0-.72-.81a7.14,7.14,0,0,1-.73-2.07c0-.33.33.06.73.85A6.55,6.55,0,0,1,10.84,32.78Z"/><path class="cls-1" d="M7.58,26.12c0,.31-.32-.17-.72-1a8.23,8.23,0,0,1-.75-2c0-.3.32.1.73.94A7.89,7.89,0,0,1,7.58,26.12Z"/><path class="cls-1" d="M4.34,19.66c0,.28-.3-.11-.69-.74a4.78,4.78,0,0,1-.72-1.53c0-.27.3-.1.69.53A5.23,5.23,0,0,1,4.34,19.66Z"/><path class="cls-1" d="M1.27,15.56c0,.28-.27.23-.63.1S0,15.36,0,15.07a.45.45,0,0,1,.62-.44A1.27,1.27,0,0,1,1.27,15.56Z"/><path class="cls-1" d="M89.25,48.57A17,17,0,0,1,84.19,36a17.27,17.27,0,0,1,17.55-17.51,19,19,0,0,1,12.91,4.69L110,28.29a13,13,0,0,0-8.23-2.81A10,10,0,0,0,91.23,35.93a10.54,10.54,0,0,0,2.93,7.78,10.38,10.38,0,0,0,7.64,2.88A12.6,12.6,0,0,0,110,43.8l4.69,5.13a19,19,0,0,1-12.91,4.69A17.1,17.1,0,0,1,89.25,48.57Z"/><path class="cls-1" d="M120.53,53.61l14.06-35.16h7l14,35.13-7.48,0-2.11-5.39H130.14L128,53.61ZM138.3,27.82,133,41.18H143.5Z"/><path class="cls-1" d="M169,18.47V47.06h18.75v6.56H162V18.47Z"/><path class="cls-1" d="M205.66,18.47V47.06h18.75v6.56H198.63V18.47Z"/></svg>