<svg id="Layer_1" data-name="Layer 1" xmlns="http://www.w3.org/2000/svg" viewBox="0 0 92.16 28.83"><defs><style>.cls-1{fill:#231f20;}</style></defs><title>Artboard 1</title><path class="cls-1" d="M9.36,10.66a3,3,0,0,1-2.16.79H4.27V2.91H7.2a3,3,0,0,1,2.16.79c.89.89.84,2.19.84,3.38S10.24,9.77,9.36,10.66ZM8.72,4.35A2.22,2.22,0,0,0,7,3.73H5.18v6.91H7A2.22,2.22,0,0,0,8.72,10c.59-.61.56-1.88.56-2.93S9.31,5,8.72,4.35Z"/><path class="cls-1" d="M12.35,11.45V2.91h.91v8.54Z"/><path class="cls-1" d="M21.18,11.45,16.64,4.6v6.85h-.91V2.91h.86l4.53,6.82V2.91H22v8.54Z"/><path class="cls-1" d="M27.69,7.93H25.43v3.51h-.91V2.91h3.18a2.43,2.43,0,0,1,2.64,2.51A2.44,2.44,0,0,1,27.69,7.93Zm-.08-4.21H25.43V7.12h2.18a1.62,1.62,0,0,0,1.81-1.7A1.61,1.61,0,0,0,27.61,3.73Z"/><path class="cls-1" d="M35.22,6.68a1.23,1.23,0,0,0-1-.43,1.44,1.44,0,0,0-1.42,1.58v3.62h-.86V5.55h.86v.72a2,2,0,0,1,1.66-.79A1.82,1.82,0,0,1,35.85,6Z"/><path class="cls-1" d="M40.35,10.85a2.47,2.47,0,0,1-3.38,0,3.17,3.17,0,0,1-.72-2.35A3.17,3.17,0,0,1,37,6.15a2.47,2.47,0,0,1,3.38,0,3.17,3.17,0,0,1,.72,2.35A3.17,3.17,0,0,1,40.35,10.85Zm-.61-4.17a1.51,1.51,0,0,0-1.08-.43,1.48,1.48,0,0,0-1.07.43,2.58,2.58,0,0,0-.48,1.82,2.58,2.58,0,0,0,.48,1.82,1.48,1.48,0,0,0,1.07.43,1.51,1.51,0,0,0,1.08-.43,2.57,2.57,0,0,0,.47-1.82A2.57,2.57,0,0,0,39.74,6.68Z"/><path class="cls-1" d="M51,11.45,49,7.66H47v3.79h-.91V2.91h3.27a2.31,2.31,0,0,1,2.53,2.37A2.21,2.21,0,0,1,50,7.57l2,3.87ZM49.26,3.73H47V6.86h2.28A1.5,1.5,0,0,0,51,5.3,1.51,1.51,0,0,0,49.26,3.73Z"/><path class="cls-1" d="M54.32,8.73c0,1.3.61,2,1.74,2a1.94,1.94,0,0,0,1.55-.67l.59.52a2.7,2.7,0,0,1-2.16.91c-1.56,0-2.58-.94-2.58-3,0-1.91.92-3,2.42-3s2.42,1.1,2.42,2.85v.4ZM57.26,7.1a1.52,1.52,0,0,0-2.76,0,2.48,2.48,0,0,0-.18,1h3.12A2.48,2.48,0,0,0,57.26,7.1Z"/><path class="cls-1" d="M62,14.16a2.61,2.61,0,0,1-2-.79l.56-.55A1.82,1.82,0,0,0,62,13.4c1.14,0,1.62-.8,1.62-1.81v-.92a1.9,1.9,0,0,1-1.65.77,2,2,0,0,1-1.43-.53,3.39,3.39,0,0,1-.72-2.46A3.39,3.39,0,0,1,60.55,6,2.05,2.05,0,0,1,62,5.48a1.86,1.86,0,0,1,1.66.77v-.7h.85v6.08A2.35,2.35,0,0,1,62,14.16Zm.13-7.92c-1.28,0-1.48,1.1-1.48,2.21s.19,2.21,1.48,2.21,1.46-1.1,1.46-2.21S63.45,6.24,62.17,6.24Z"/><path class="cls-1" d="M70.39,11.45v-.66a2.16,2.16,0,0,1-1.67.73A2.1,2.1,0,0,1,67.2,11a2.2,2.2,0,0,1-.6-1.66V5.55h.86V9.18c0,1,.55,1.57,1.44,1.57a1.4,1.4,0,0,0,1.48-1.57V5.55h.86v5.9Z"/><path class="cls-1" d="M74.88,11.45a1.41,1.41,0,0,1-1.5-1.57v-7h.86V9.84c0,.58.19.86.79.86h.47v.74Z"/><path class="cls-1" d="M80.31,11.45v-.56a2.07,2.07,0,0,1-1.7.64A2.1,2.1,0,0,1,76.94,11a1.7,1.7,0,0,1-.44-1.2c0-1,.72-1.7,2-1.7h1.78V7.52c0-.86-.43-1.3-1.51-1.3a1.55,1.55,0,0,0-1.49.67l-.59-.54a2.29,2.29,0,0,1,2.09-.88c1.58,0,2.36.68,2.36,2v4Zm0-2.72H78.66c-.89,0-1.32.36-1.32,1s.42,1,1.36,1a1.73,1.73,0,0,0,1.32-.4,1.36,1.36,0,0,0,.3-1Z"/><path class="cls-1" d="M86.58,6.68a1.23,1.23,0,0,0-1-.43,1.44,1.44,0,0,0-1.42,1.58v3.62h-.86V5.55h.86v.72a2,2,0,0,1,1.66-.79A1.82,1.82,0,0,1,87.21,6Z"/><path class="cls-1" d="M9.36,25a3,3,0,0,1-2.21.8h-3V17.31h3a3,3,0,0,1,2.21.8c.92.92.86,2.17.86,3.41S10.28,24.12,9.36,25Zm-.89-6A1.85,1.85,0,0,0,7,18.47H5.45v6.21H7a1.85,1.85,0,0,0,1.45-.58c.44-.49.46-1.42.46-2.59S8.91,19.54,8.47,19Z"/><path class="cls-1" d="M12.14,25.85V17.31h1.3v8.54Z"/><path class="cls-1" d="M20.91,25.85l-3.95-6v6h-1.3V17.31h1.19l3.95,6v-6h1.3v8.54Z"/><path class="cls-1" d="M27.57,22.49H25.63v3.36h-1.3V17.31h3.24a2.59,2.59,0,1,1,0,5.18Zm-.07-4H25.63v2.84H27.5a1.42,1.42,0,1,0,0-2.84Z"/><path class="cls-1" d="M35.08,21.2a1.13,1.13,0,0,0-.91-.41A1.25,1.25,0,0,0,33,22.15v3.69H31.74V19.77h1.2v.66a2,2,0,0,1,1.62-.73,1.88,1.88,0,0,1,1.45.58Z"/><path class="cls-1" d="M40.7,25.2a2.46,2.46,0,0,1-1.82.72,2.43,2.43,0,0,1-1.81-.72,3.21,3.21,0,0,1-.72-2.4,3.19,3.19,0,0,1,.72-2.39,2.43,2.43,0,0,1,1.81-.72,2.46,2.46,0,0,1,1.82.72,3.19,3.19,0,0,1,.72,2.39A3.21,3.21,0,0,1,40.7,25.2Zm-.92-4.07a1.24,1.24,0,0,0-.9-.35,1.21,1.21,0,0,0-.89.35,2.35,2.35,0,0,0-.42,1.67A2.35,2.35,0,0,0,38,24.47a1.22,1.22,0,0,0,.89.36,1.25,1.25,0,0,0,.9-.36,2.35,2.35,0,0,0,.42-1.67A2.35,2.35,0,0,0,39.78,21.14Z"/><path class="cls-1" d="M52.34,25.85V20.14l-2,4.16h-1l-2-4.16v5.71H46.1V17.31h1.3l2.49,5.31,2.45-5.31h1.3v8.54Z"/><path class="cls-1" d="M56.61,23.16a1.5,1.5,0,0,0,1.55,1.7,1.82,1.82,0,0,0,1.48-.62l.78.73a2.85,2.85,0,0,1-2.28.95c-1.52,0-2.73-.8-2.73-3.12,0-2,1-3.11,2.58-3.11s2.58,1.2,2.58,2.93v.54Zm2.57-1.68a1.25,1.25,0,0,0-1.2-.77,1.27,1.27,0,0,0-1.21.77,1.92,1.92,0,0,0-.16.83h2.73A1.92,1.92,0,0,0,59.18,21.48Z"/><path class="cls-1" d="M65.67,25.85V25.2a1.87,1.87,0,0,1-1.61.72,2.1,2.1,0,0,1-1.49-.54,3.65,3.65,0,0,1-.68-2.58,3.62,3.62,0,0,1,.68-2.57,2.07,2.07,0,0,1,1.48-.54,1.88,1.88,0,0,1,1.6.68V17.31h1.22v8.54Zm-1.28-5.06c-1.1,0-1.27.94-1.27,2s.17,2,1.27,2,1.26-.95,1.26-2S65.49,20.79,64.39,20.79Z"/><path class="cls-1" d="M68.78,18.57v-1.3h1.3v1.3Zm0,7.28V19.77H70v6.08Z"/><path class="cls-1" d="M75.66,25.85v-.61a2.17,2.17,0,0,1-1.62.68,2.11,2.11,0,0,1-1.5-.55,2.23,2.23,0,0,1-.61-1.71V19.77h1.22v3.71a1.18,1.18,0,0,0,1.22,1.35,1.21,1.21,0,0,0,1.26-1.35V19.77h1.22v6.08Z"/><path class="cls-1" d="M86.21,25.85V22.14A1.18,1.18,0,0,0,85,20.79a1.2,1.2,0,0,0-1.26,1.29v3.77H82.51V22.14a1.18,1.18,0,0,0-1.22-1.35A1.21,1.21,0,0,0,80,22.14v3.71H78.8V19.77H80v.61a2.2,2.2,0,0,1,1.62-.68,1.94,1.94,0,0,1,1.73.89,2.31,2.31,0,0,1,1.91-.89,2.2,2.2,0,0,1,1.54.55A2.26,2.26,0,0,1,87.44,22v3.89Z"/></svg>