<svg id="Layer_1" data-name="Layer 1" xmlns="http://www.w3.org/2000/svg" viewBox="0 0 668.42 228.65"><defs><style>.cls-1{fill:#231f20;}</style></defs><title>Artboard 2</title><path class="cls-1" d="M266.8,34.82V26.28h.91V34h4.37v.82Z"/><path class="cls-1" d="M274.06,32.1c0,1.3.61,2,1.74,2a1.94,1.94,0,0,0,1.55-.67l.59.52a2.7,2.7,0,0,1-2.16.91c-1.56,0-2.58-.94-2.58-3,0-1.91.92-3,2.42-3S278,30,278,31.7v.4ZM277,30.47a1.52,1.52,0,0,0-2.76,0,2.48,2.48,0,0,0-.18,1h3.12A2.48,2.48,0,0,0,277,30.47Z"/><path class="cls-1" d="M283.23,34.82v-.56a2.07,2.07,0,0,1-1.7.64,2.1,2.1,0,0,1-1.67-.54,1.7,1.7,0,0,1-.44-1.2c0-1,.72-1.7,2-1.7h1.78v-.56c0-.86-.43-1.29-1.51-1.29a1.55,1.55,0,0,0-1.49.67l-.59-.54a2.29,2.29,0,0,1,2.09-.88c1.58,0,2.36.68,2.36,2v4Zm0-2.72h-1.66c-.89,0-1.32.36-1.32,1s.42,1,1.36,1a1.72,1.72,0,0,0,1.32-.4,1.36,1.36,0,0,0,.3-1Z"/><path class="cls-1" d="M289.49,30a1.23,1.23,0,0,0-1-.43,1.44,1.44,0,0,0-1.42,1.58v3.62h-.86v-5.9h.86v.72a2,2,0,0,1,1.66-.79,1.82,1.82,0,0,1,1.42.55Z"/><path class="cls-1" d="M295,34.82V31.19a1.46,1.46,0,1,0-2.91,0v3.63h-.86v-5.9h.86v.65a2.13,2.13,0,0,1,1.66-.72,2.07,2.07,0,0,1,1.51.55,2.18,2.18,0,0,1,.61,1.64v3.78Z"/><path class="cls-1" d="M297.94,27.24v-1h1v1Zm0,7.58v-5.9h.86v5.9Z"/><path class="cls-1" d="M304.81,34.82V31.19a1.46,1.46,0,1,0-2.91,0v3.63H301v-5.9h.86v.65a2.13,2.13,0,0,1,1.66-.72,2.07,2.07,0,0,1,1.51.55,2.18,2.18,0,0,1,.61,1.64v3.78Z"/><path class="cls-1" d="M309.67,37.53a2.61,2.61,0,0,1-2-.79l.56-.55a1.82,1.82,0,0,0,1.42.59c1.14,0,1.62-.8,1.62-1.81V34a1.9,1.9,0,0,1-1.65.77,2,2,0,0,1-1.43-.53,3.39,3.39,0,0,1-.72-2.46,3.39,3.39,0,0,1,.72-2.46,2.05,2.05,0,0,1,1.44-.52,1.86,1.86,0,0,1,1.66.77v-.7h.85V35A2.35,2.35,0,0,1,309.67,37.53Zm.13-7.92c-1.28,0-1.48,1.1-1.48,2.21S308.52,34,309.8,34s1.46-1.1,1.46-2.21S311.08,29.62,309.8,29.62Z"/><path class="cls-1" d="M102.93,34.82l-.68-1.93H98.52l-.68,1.93h-1L100,26.28h.77l3.13,8.54Zm-2.53-7.23L98.79,32.1H102Z"/><path class="cls-1" d="M108.43,30.05a1.23,1.23,0,0,0-1-.43A1.44,1.44,0,0,0,106,31.2v3.62h-.86v-5.9H106v.72a2,2,0,0,1,1.65-.79,1.82,1.82,0,0,1,1.42.55Z"/><path class="cls-1" d="M111.84,34.82a1.45,1.45,0,0,1-1.51-1.58V29.62h-.74V29h.74V27.11h.86V29h1.26v.66h-1.26v3.6c0,.54.25.86.8.86h.46v.74Z"/><path class="cls-1" d="M116,34.9A3.26,3.26,0,0,1,113.6,34l.58-.58a2.41,2.41,0,0,0,1.83.68c1,0,1.57-.35,1.57-1,0-.52-.3-.8-1-.86l-1-.08c-1.15-.1-1.76-.61-1.76-1.58s.91-1.73,2.17-1.73a3.34,3.34,0,0,1,2.12.64l-.56.56a2.52,2.52,0,0,0-1.57-.47c-.86,0-1.32.37-1.32,1s.29.8,1,.86l.95.08c1,.1,1.74.49,1.74,1.6S117.45,34.9,116,34.9Z"/><path class="cls-1" d="M123.26,34.82V26.28h.91V34h4.37v.82Z"/><path class="cls-1" d="M133.33,34.82v-.56a2.07,2.07,0,0,1-1.7.64,2.1,2.1,0,0,1-1.67-.54,1.7,1.7,0,0,1-.44-1.2c0-1,.72-1.7,2-1.7h1.78v-.56c0-.86-.43-1.3-1.51-1.3a1.55,1.55,0,0,0-1.49.67l-.59-.54a2.29,2.29,0,0,1,2.09-.87c1.58,0,2.36.68,2.36,2v4Zm0-2.72h-1.66c-.89,0-1.32.36-1.32,1s.42,1,1.36,1a1.73,1.73,0,0,0,1.32-.4,1.36,1.36,0,0,0,.3-1Z"/><path class="cls-1" d="M140.07,34.82V31.19a1.37,1.37,0,0,0-1.45-1.57,1.39,1.39,0,0,0-1.46,1.57v3.63h-.86v-5.9h.86v.65a2.13,2.13,0,0,1,1.65-.72,2.07,2.07,0,0,1,1.51.55,2.18,2.18,0,0,1,.61,1.64v3.78Z"/><path class="cls-1" d="M146.56,34.82v-.71a1.91,1.91,0,0,1-1.68.78,2.06,2.06,0,0,1-1.44-.52,3.53,3.53,0,0,1-.72-2.51,3.52,3.52,0,0,1,.72-2.51,2.06,2.06,0,0,1,1.44-.52,1.9,1.9,0,0,1,1.67.76V26.28h.86v8.54Zm-1.49-5.21c-1.28,0-1.49,1.1-1.49,2.25s.2,2.25,1.49,2.25,1.48-1.1,1.48-2.25S146.36,29.62,145.08,29.62Z"/><path class="cls-1" d="M151.44,34.9A3.26,3.26,0,0,1,149,34l.58-.58a2.41,2.41,0,0,0,1.83.68c1,0,1.57-.35,1.57-1,0-.52-.3-.8-1-.86l-1-.08c-1.15-.1-1.76-.61-1.76-1.58s.91-1.73,2.17-1.73a3.34,3.34,0,0,1,2.12.64l-.56.56a2.52,2.52,0,0,0-1.57-.47c-.86,0-1.32.37-1.32,1s.29.8,1,.86l.95.08c1,.1,1.74.49,1.74,1.6S152.86,34.9,151.44,34.9Z"/><path class="cls-1" d="M441.82,34.89a3,3,0,0,1-2.18-.89c-.8-.8-.8-1.64-.8-3.45s0-2.65.8-3.45a3,3,0,0,1,2.18-.89,2.88,2.88,0,0,1,3,2.54h-.94a2,2,0,0,0-2-1.73,2.05,2.05,0,0,0-1.47.6c-.54.55-.6,1.14-.6,2.93s.06,2.37.6,2.93a2.09,2.09,0,0,0,3.53-1.13h.91A2.88,2.88,0,0,1,441.82,34.89Z"/><path class="cls-1" d="M450.44,34.22a2.47,2.47,0,0,1-3.38,0,3.17,3.17,0,0,1-.72-2.35,3.17,3.17,0,0,1,.72-2.35,2.47,2.47,0,0,1,3.38,0,3.17,3.17,0,0,1,.72,2.35A3.17,3.17,0,0,1,450.44,34.22ZM449.83,30a1.51,1.51,0,0,0-1.08-.43,1.48,1.48,0,0,0-1.07.43,2.58,2.58,0,0,0-.48,1.82,2.58,2.58,0,0,0,.48,1.82,1.48,1.48,0,0,0,1.07.43,1.51,1.51,0,0,0,1.08-.43,2.57,2.57,0,0,0,.47-1.82A2.57,2.57,0,0,0,449.83,30Z"/><path class="cls-1" d="M460.59,34.82V31.19a1.47,1.47,0,1,0-2.93-.1v3.73h-.86V31.19a1.37,1.37,0,0,0-1.45-1.57,1.4,1.4,0,0,0-1.48,1.57v3.63H453v-5.9h.86v.65a2.15,2.15,0,0,1,1.67-.72,2,2,0,0,1,1.81,1,2.26,2.26,0,0,1,1.94-1,2.15,2.15,0,0,1,1.52.55,2.19,2.19,0,0,1,.64,1.64v3.78Z"/><path class="cls-1" d="M471.14,34.82V31.19a1.47,1.47,0,1,0-2.93-.1v3.73h-.86V31.19a1.37,1.37,0,0,0-1.45-1.57,1.4,1.4,0,0,0-1.48,1.57v3.63h-.86v-5.9h.86v.65a2.15,2.15,0,0,1,1.67-.72,2,2,0,0,1,1.81,1,2.26,2.26,0,0,1,1.94-1,2.15,2.15,0,0,1,1.52.55A2.19,2.19,0,0,1,472,31v3.78Z"/><path class="cls-1" d="M477.83,34.82v-.66a2.16,2.16,0,0,1-1.67.73,2.1,2.1,0,0,1-1.52-.55,2.2,2.2,0,0,1-.6-1.65V28.92h.86v3.63c0,1,.55,1.57,1.44,1.57a1.4,1.4,0,0,0,1.47-1.57V28.92h.86v5.9Z"/><path class="cls-1" d="M484.63,34.82V31.19a1.46,1.46,0,1,0-2.92,0v3.63h-.86v-5.9h.86v.65a2.13,2.13,0,0,1,1.66-.72,2.07,2.07,0,0,1,1.51.55,2.18,2.18,0,0,1,.61,1.64v3.78Z"/><path class="cls-1" d="M487.54,27.24v-1h1v1Zm0,7.58v-5.9h.86v5.9Z"/><path class="cls-1" d="M492.28,34.82a1.45,1.45,0,0,1-1.51-1.58V29.62H490V29h.74V27.11h.86V29h1.26v.66h-1.26v3.6c0,.54.25.86.8.86h.46v.74Z"/><path class="cls-1" d="M494.56,27.24v-1h1v1Zm0,7.58v-5.9h.86v5.9Z"/><path class="cls-1" d="M498.19,32.1c0,1.3.61,2,1.74,2a1.94,1.94,0,0,0,1.55-.67l.59.52a2.7,2.7,0,0,1-2.16.91c-1.56,0-2.58-.94-2.58-3,0-1.91.92-3,2.42-3s2.42,1.1,2.42,2.85v.4Zm2.94-1.63a1.52,1.52,0,0,0-2.76,0,2.49,2.49,0,0,0-.18,1h3.12A2.47,2.47,0,0,0,501.13,30.47Z"/><path class="cls-1" d="M505.87,34.89a3.25,3.25,0,0,1-2.42-.85l.58-.58a2.41,2.41,0,0,0,1.83.68c1,0,1.57-.35,1.57-1,0-.52-.3-.8-1-.86l-1-.08c-1.15-.1-1.76-.61-1.76-1.58s.91-1.73,2.17-1.73a3.34,3.34,0,0,1,2.12.64l-.56.56a2.51,2.51,0,0,0-1.57-.47c-.86,0-1.32.37-1.32,1s.29.8,1,.86l.95.08c1,.1,1.74.49,1.74,1.6S507.29,34.89,505.87,34.89Z"/><path class="cls-1" d="M533.34,99.09a1.84,1.84,0,1,1,1.84-1.84,1.84,1.84,0,0,1-1.84,1.84"/><path class="cls-1" d="M447.51,124.13a1.5,1.5,0,0,1-1.5-1.5V88.18a1.5,1.5,0,0,1,3,0v34.45A1.5,1.5,0,0,1,447.51,124.13Z"/><path class="cls-1" d="M470.88,107a1.5,1.5,0,0,1-1.5-1.5V88.1a1.5,1.5,0,0,1,3,0v17.42A1.5,1.5,0,0,1,470.88,107Z"/><path class="cls-1" d="M482.95,114.59a1.5,1.5,0,0,1-1.5-1.5v-7.3a1.5,1.5,0,0,1,3,0v7.3A1.5,1.5,0,0,1,482.95,114.59Z"/><path class="cls-1" d="M521,107a1.5,1.5,0,0,1-1.5-1.5V88.11a1.5,1.5,0,0,1,3,0v17.42A1.5,1.5,0,0,1,521,107Z"/><path class="cls-1" d="M496,106.49a1.5,1.5,0,0,1-1.5-1.5V88.1a1.5,1.5,0,1,1,3,0V105A1.5,1.5,0,0,1,496,106.49Z"/><path class="cls-1" d="M508.21,86.31A2.23,2.23,0,1,1,506,88.54a2.23,2.23,0,0,1,2.23-2.23"/><path class="cls-1" d="M459.21,106.95a1.5,1.5,0,0,1-1.5-1.5V88.18a1.5,1.5,0,0,1,3,0v17.27A1.5,1.5,0,0,1,459.21,106.95Z"/><path class="cls-1" d="M482.95,86.31a2.23,2.23,0,1,1-2.23,2.23,2.23,2.23,0,0,1,2.23-2.23"/><circle class="cls-1" cx="482.95" cy="97.74" r="1.84"/><circle class="cls-1" cx="496.04" cy="113.09" r="1.63"/><circle class="cls-1" cx="508.21" cy="97.07" r="1.84"/><path class="cls-1" d="M533.34,86.31a2.23,2.23,0,1,1-2.23,2.23,2.23,2.23,0,0,1,2.23-2.23"/><path class="cls-1" d="M558.58,86.31a2.23,2.23,0,1,1-2.23,2.23,2.23,2.23,0,0,1,2.23-2.23"/><circle class="cls-1" cx="558.58" cy="97.25" r="1.99"/><path class="cls-1" d="M560.42,106.21a1.84,1.84,0,1,1-1.84-1.84,1.84,1.84,0,0,1,1.84,1.84"/><path class="cls-1" d="M546.24,86.31A2.23,2.23,0,1,1,544,88.54a2.23,2.23,0,0,1,2.23-2.23"/><path class="cls-1" d="M435.81,99.36a1.5,1.5,0,0,1-1.5-1.5V88.18a1.5,1.5,0,0,1,3,0v9.68A1.5,1.5,0,0,1,435.81,99.36Z"/><path class="cls-1" d="M435.81,104.78a1.84,1.84,0,1,1-1.84,1.84,1.84,1.84,0,0,1,1.84-1.84"/><path class="cls-1" d="M435.81,124.13a1.5,1.5,0,0,1-1.5-1.5v-7.24a1.5,1.5,0,0,1,3,0v7.24A1.5,1.5,0,0,1,435.81,124.13Z"/><circle class="cls-1" cx="435.81" cy="131.68" r="1.35"/><path class="cls-1" d="M113.27,116.19a1.5,1.5,0,0,1-1.5-1.5V96.91a1.5,1.5,0,0,1,3,0v17.77A1.5,1.5,0,0,1,113.27,116.19Z"/><circle class="cls-1" cx="113.27" cy="88.22" r="2.23"/><circle class="cls-1" cx="136.57" cy="88.22" r="2.23"/><circle class="cls-1" cx="136.57" cy="96.93" r="1.99"/><path class="cls-1" d="M138.41,105.5a1.84,1.84,0,1,1-1.84-1.84,1.84,1.84,0,0,1,1.84,1.84"/><path class="cls-1" d="M125.1,107.39a1.5,1.5,0,0,1-1.5-1.5V87.61a1.5,1.5,0,0,1,3,0v18.28A1.5,1.5,0,0,1,125.1,107.39Z"/><path class="cls-1" d="M102,108.13a1.5,1.5,0,0,1-1.5-1.5V96.8a1.5,1.5,0,0,1,3,0v9.83A1.5,1.5,0,0,1,102,108.13Z"/><circle class="cls-1" cx="101.97" cy="88.22" r="2.23"/><circle class="cls-1" cx="187.09" cy="122.31" r="1.35"/><path class="cls-1" d="M187.09,108.26a1.5,1.5,0,0,1-1.5-1.5V87.49a1.5,1.5,0,0,1,3,0v19.26A1.5,1.5,0,0,1,187.09,108.26Z"/><path class="cls-1" d="M174.47,98.28a1.5,1.5,0,0,1-1.5-1.5V87.56a1.5,1.5,0,1,1,3,0v9.22A1.5,1.5,0,0,1,174.47,98.28Z"/><circle class="cls-1" cx="174.73" cy="105.5" r="1.84"/><path class="cls-1" d="M149.21,108.26a1.5,1.5,0,0,1-1.5-1.5V96.43a1.5,1.5,0,1,1,3,0v10.33A1.5,1.5,0,0,1,149.21,108.26Z"/><circle class="cls-1" cx="149.21" cy="114.71" r="1.63"/><circle class="cls-1" cx="149.21" cy="88.21" r="2.23"/><circle class="cls-1" cx="149.21" cy="122.2" r="1.35"/><path class="cls-1" d="M161.86,108.26a1.5,1.5,0,0,1-1.5-1.5V96.43a1.5,1.5,0,0,1,3,0v10.33A1.5,1.5,0,0,1,161.86,108.26Z"/><circle class="cls-1" cx="161.86" cy="88.21" r="2.23"/><circle class="cls-1" cx="187.09" cy="114.71" r="1.63"/><circle class="cls-1" cx="199.38" cy="88.25" r="2.23"/><circle class="cls-1" cx="199.38" cy="96.93" r="1.99"/><path class="cls-1" d="M201.06,105.5a1.84,1.84,0,1,1-1.84-1.84,1.84,1.84,0,0,1,1.84,1.84"/><circle class="cls-1" cx="113.27" cy="122.2" r="1.35"/><circle class="cls-1" cx="351.87" cy="124.81" r="1.35"/><circle class="cls-1" cx="301.52" cy="124.81" r="1.35"/><path class="cls-1" d="M301.53,118.72a1.5,1.5,0,0,1-1.5-1.5V100.09a1.5,1.5,0,1,1,3,0v17.13A1.5,1.5,0,0,1,301.53,118.72Z"/><path class="cls-1" d="M314,118.72a1.5,1.5,0,0,1-1.5-1.5V90.31a1.5,1.5,0,0,1,3,0v26.91A1.5,1.5,0,0,1,314,118.72Z"/><path class="cls-1" d="M339.52,101.39a1.5,1.5,0,0,1-1.5-1.5V90.17a1.5,1.5,0,1,1,3,0v9.72A1.5,1.5,0,0,1,339.52,101.39Z"/><path class="cls-1" d="M289.82,110.76a1.5,1.5,0,0,1-1.5-1.5V100a1.5,1.5,0,1,1,3,0v9.22A1.5,1.5,0,0,1,289.82,110.76Z"/><path class="cls-1" d="M351.84,118.45a1.5,1.5,0,0,1-1.5-1.5V90.17a1.5,1.5,0,0,1,3,0V117A1.5,1.5,0,0,1,351.84,118.45Z"/><circle class="cls-1" cx="301.53" cy="90.75" r="2.23"/><path class="cls-1" d="M266.75,110.76a1.5,1.5,0,0,1-1.5-1.5V99.43a1.5,1.5,0,0,1,3,0v9.83A1.5,1.5,0,0,1,266.75,110.76Z"/><circle class="cls-1" cx="266.7" cy="117.22" r="1.63"/><circle class="cls-1" cx="266.63" cy="90.75" r="2.23"/><circle class="cls-1" cx="266.7" cy="124.81" r="1.35"/><circle class="cls-1" cx="278.16" cy="90.75" r="2.23"/><circle class="cls-1" cx="289.72" cy="90.75" r="2.23"/><circle class="cls-1" cx="327.08" cy="90.75" r="2.23"/><circle class="cls-1" cx="339.52" cy="107.42" r="1.84"/><circle class="cls-1" cx="327.08" cy="99.07" r="1.84"/><path class="cls-1" d="M460.61,189.62a1.84,1.84,0,1,1-1.84,1.84,1.84,1.84,0,0,1,1.84-1.84"/><path class="cls-1" d="M547.65,201.85a1.5,1.5,0,0,1-1.5-1.5V165.9a1.5,1.5,0,0,1,3,0v34.45A1.5,1.5,0,0,1,547.65,201.85Z"/><path class="cls-1" d="M522.72,202.2a1.5,1.5,0,0,1-1.5-1.5V183.27a1.5,1.5,0,1,1,3,0V200.7A1.5,1.5,0,0,1,522.72,202.2Z"/><path class="cls-1" d="M509.62,184.24a1.5,1.5,0,0,1-1.5-1.5v-7.3a1.5,1.5,0,0,1,3,0v7.3A1.5,1.5,0,0,1,509.62,184.24Z"/><path class="cls-1" d="M472.29,202.19a1.5,1.5,0,0,1-1.5-1.5V183.28a1.5,1.5,0,1,1,3,0v17.42A1.5,1.5,0,0,1,472.29,202.19Z"/><path class="cls-1" d="M497.45,201.93a1.5,1.5,0,0,1-1.5-1.5V183.54a1.5,1.5,0,0,1,3,0v16.89A1.5,1.5,0,0,1,497.45,201.93Z"/><path class="cls-1" d="M484.36,202.49a2.23,2.23,0,1,1,2.23-2.23,2.23,2.23,0,0,1-2.23,2.23"/><path class="cls-1" d="M534.75,202.3a1.5,1.5,0,0,1-1.5-1.5V183.54a1.5,1.5,0,0,1,3,0V200.8A1.5,1.5,0,0,1,534.75,202.3Z"/><path class="cls-1" d="M509.62,202.22a2.23,2.23,0,1,1,2.23-2.23,2.23,2.23,0,0,1-2.23,2.23"/><circle class="cls-1" cx="509.62" cy="190.79" r="1.84"/><circle class="cls-1" cx="497.45" cy="175.44" r="1.63"/><circle class="cls-1" cx="484.36" cy="191.72" r="1.84"/><path class="cls-1" d="M460.61,202.22a2.23,2.23,0,1,1,2.23-2.23,2.23,2.23,0,0,1-2.23,2.23"/><path class="cls-1" d="M437.6,202.22a2.23,2.23,0,1,1,2.23-2.23,2.23,2.23,0,0,1-2.23,2.23"/><circle class="cls-1" cx="437.6" cy="191.28" r="1.99"/><path class="cls-1" d="M435.76,182.32a1.84,1.84,0,1,1,1.84,1.84,1.84,1.84,0,0,1-1.84-1.84"/><path class="cls-1" d="M448.92,202.22a2.23,2.23,0,1,1,2.23-2.23,2.23,2.23,0,0,1-2.23,2.23"/><path class="cls-1" d="M560,201.85a1.5,1.5,0,0,1-1.5-1.5v-9.68a1.5,1.5,0,1,1,3,0v9.68A1.5,1.5,0,0,1,560,201.85Z"/><path class="cls-1" d="M560,183.75a1.84,1.84,0,1,1,1.84-1.84,1.84,1.84,0,0,1-1.84,1.84"/><path class="cls-1" d="M560,174.64a1.5,1.5,0,0,1-1.5-1.5V165.9a1.5,1.5,0,0,1,3,0v7.24A1.5,1.5,0,0,1,560,174.64Z"/><circle class="cls-1" cx="559.99" cy="156.86" r="1.35"/><circle class="cls-1" cx="267.08" cy="164.68" r="1.35"/><circle class="cls-1" cx="314.29" cy="164.68" r="1.35"/><path class="cls-1" d="M314.29,190.9a1.5,1.5,0,0,1-1.5-1.5V172.27a1.5,1.5,0,0,1,3,0V189.4A1.5,1.5,0,0,1,314.29,190.9Z"/><path class="cls-1" d="M301.84,200.68a1.5,1.5,0,0,1-1.5-1.5V172.27a1.5,1.5,0,1,1,3,0v26.91A1.5,1.5,0,0,1,301.84,200.68Z"/><path class="cls-1" d="M278.46,200.82a1.5,1.5,0,0,1-1.5-1.5V189.6a1.5,1.5,0,1,1,3,0v9.72A1.5,1.5,0,0,1,278.46,200.82Z"/><path class="cls-1" d="M327.38,191a1.5,1.5,0,0,1-1.5-1.5v-9.22a1.5,1.5,0,0,1,3,0v9.22A1.5,1.5,0,0,1,327.38,191Z"/><path class="cls-1" d="M267.05,200.82a1.5,1.5,0,0,1-1.5-1.5V172.54a1.5,1.5,0,0,1,3,0v26.78A1.5,1.5,0,0,1,267.05,200.82Z"/><circle class="cls-1" cx="314.29" cy="199.18" r="2.23"/><path class="cls-1" d="M352.15,191.56a1.5,1.5,0,0,1-1.5-1.5v-9.83a1.5,1.5,0,1,1,3,0v9.83A1.5,1.5,0,0,1,352.15,191.56Z"/><circle class="cls-1" cx="352.15" cy="172.15" r="1.63"/><circle class="cls-1" cx="352.15" cy="198.74" r="2.23"/><circle class="cls-1" cx="352.25" cy="164.74" r="1.35"/><circle class="cls-1" cx="339.83" cy="198.74" r="2.23"/><circle class="cls-1" cx="327.38" cy="198.74" r="2.23"/><circle class="cls-1" cx="290.03" cy="198.74" r="2.23"/><circle class="cls-1" cx="278.46" cy="182.07" r="1.84"/><circle class="cls-1" cx="290.03" cy="190.42" r="1.84"/><path class="cls-1" d="M187.91,190.24a1.5,1.5,0,0,1-1.5-1.5V171a1.5,1.5,0,0,1,3,0v17.77A1.5,1.5,0,0,1,187.91,190.24Z"/><circle class="cls-1" cx="187.91" cy="197.41" r="2.23"/><circle class="cls-1" cx="162.68" cy="197.44" r="2.23"/><circle class="cls-1" cx="162.68" cy="188.91" r="1.99"/><path class="cls-1" d="M160.84,180.16a1.84,1.84,0,1,1,1.84,1.84,1.84,1.84,0,0,1-1.84-1.84"/><path class="cls-1" d="M175.3,199.55a1.5,1.5,0,0,1-1.5-1.5V179.77a1.5,1.5,0,0,1,3,0V198A1.5,1.5,0,0,1,175.3,199.55Z"/><path class="cls-1" d="M200.2,190.36a1.5,1.5,0,0,1-1.5-1.5V179a1.5,1.5,0,0,1,3,0v9.84A1.5,1.5,0,0,1,200.2,190.36Z"/><circle class="cls-1" cx="200.2" cy="197.44" r="2.23"/><circle class="cls-1" cx="114.14" cy="163.35" r="1.35"/><path class="cls-1" d="M114.14,199.67a1.5,1.5,0,0,1-1.5-1.5V178.9a1.5,1.5,0,0,1,3,0v19.26A1.5,1.5,0,0,1,114.14,199.67Z"/><path class="cls-1" d="M126.06,199.6a1.5,1.5,0,0,1-1.5-1.5v-9.22a1.5,1.5,0,0,1,3,0v9.22A1.5,1.5,0,0,1,126.06,199.6Z"/><circle class="cls-1" cx="126.06" cy="180.16" r="1.84"/><path class="cls-1" d="M150,191.17a1.5,1.5,0,0,1-1.5-1.5V179.34a1.5,1.5,0,0,1,3,0v10.33A1.5,1.5,0,0,1,150,191.17Z"/><circle class="cls-1" cx="150.31" cy="170.94" r="1.63"/><circle class="cls-1" cx="150.04" cy="197.44" r="2.23"/><circle class="cls-1" cx="150.31" cy="163.46" r="1.35"/><path class="cls-1" d="M137.39,191.17a1.5,1.5,0,0,1-1.5-1.5V179.34a1.5,1.5,0,0,1,3,0v10.33A1.5,1.5,0,0,1,137.39,191.17Z"/><circle class="cls-1" cx="137.39" cy="197.44" r="2.23"/><circle class="cls-1" cx="114.14" cy="170.94" r="1.63"/><circle class="cls-1" cx="102.68" cy="197.41" r="2.23"/><circle class="cls-1" cx="102.68" cy="188.73" r="1.99"/><path class="cls-1" d="M101,180.16a1.84,1.84,0,1,1,1.84,1.84,1.84,1.84,0,0,1-1.84-1.84"/><circle class="cls-1" cx="187.91" cy="163.35" r="1.35"/></svg>