<svg id="Layer_1" data-name="Layer 1" xmlns="http://www.w3.org/2000/svg" viewBox="0 0 69.42 13.32"><defs><style>.cls-1{fill:#231f20;}</style></defs><title>Artboard 6</title><path class="cls-1" d="M4.49,11V2.24h.59l5.51,5.51V2.24h1.76V11h-.64L6.25,5.58V11Z"/><path class="cls-1" d="M13.72,8.1a2.81,2.81,0,0,1,2.93-2.93A2.66,2.66,0,0,1,18.7,6a3,3,0,0,1,.76,2.11v.59h-4a1,1,0,0,0,.41.73,1.33,1.33,0,0,0,.82.26,2.43,2.43,0,0,0,1.46-.47l.94.94a2.81,2.81,0,0,1-2.4.88A2.81,2.81,0,0,1,13.72,8.1Zm3.75-1.32a1.41,1.41,0,0,0-1.64,0,.86.86,0,0,0-.35.73h2.34A.86.86,0,0,0,17.47,6.78Z"/><path class="cls-1" d="M21.92,5.17,23.3,8.83l1.41-3.66h1.66L24,11H22.62L20.26,5.17Z"/><path class="cls-1" d="M27.61,3.17a.85.85,0,0,1,.63-.24.88.88,0,0,1,.66.24.8.8,0,0,1,.23.59.79.79,0,0,1-.23.59,1,1,0,0,1-1.29,0,.79.79,0,0,1-.23-.59A.8.8,0,0,1,27.61,3.17ZM29.08,11V5.16H27.44V11Z"/><path class="cls-1" d="M33.82,5.33a2.83,2.83,0,0,1,.86.59l-.91,1a1.25,1.25,0,0,0-1-.47A1.07,1.07,0,0,0,32,6.7a.25.25,0,0,0,0,.4,1.78,1.78,0,0,0,.79.3,2.77,2.77,0,0,1,1.43.5,1.7,1.7,0,0,1,.56,1.45,1.48,1.48,0,0,1-.66,1.29,2.61,2.61,0,0,1-1.53.46,3.53,3.53,0,0,1-1.39-.24,3,3,0,0,1-1-.64l.91-1a1.74,1.74,0,0,0,1.24.55,1.2,1.2,0,0,0,.87-.22.34.34,0,0,0,.06-.44q-.14-.22-.93-.3a3.22,3.22,0,0,1-1.31-.44A1.44,1.44,0,0,1,30.47,7a1.59,1.59,0,0,1,.68-1.39,2.39,2.39,0,0,1,1.39-.48A3.3,3.3,0,0,1,33.82,5.33Z"/><path class="cls-1" d="M46.42,6.39A2.5,2.5,0,0,1,45,11H40V2.24h4.66q2.22.13,2.34,2.58A1.84,1.84,0,0,1,46.42,6.39Zm-4.61-.63h2.46a1,1,0,0,0,1.09-1.1q0-.64-1.07-.68H41.81Zm0,3.89h2.87a1.15,1.15,0,0,0,1.27-1.27q0-.84-1.25-.88H41.81Z"/><path class="cls-1" d="M49.78,10.23a2.9,2.9,0,0,1-.86-2.13,3,3,0,1,1,6,0,3,3,0,0,1-5.12,2.13Zm2.13-.56A1.41,1.41,0,0,0,53,9.22a1.58,1.58,0,0,0,.42-1.12A1.59,1.59,0,0,0,53,7a1.53,1.53,0,0,0-2.17,0,1.59,1.59,0,0,0-.42,1.12,1.58,1.58,0,0,0,.42,1.12A1.41,1.41,0,0,0,51.91,9.67Z"/><path class="cls-1" d="M56,11V2.24h1.64V11Z"/><path class="cls-1" d="M64.93,2.24V11H63.29v-.47A2.22,2.22,0,0,1,62,11a2.73,2.73,0,0,1-2.14-.88,3.05,3.05,0,0,1,0-4.1A2.73,2.73,0,0,1,62,5.17a1.94,1.94,0,0,1,1.29.47V2.24ZM63.29,8.62V7.67a1.27,1.27,0,0,0-1.23-1.15A1.55,1.55,0,0,0,60.48,8q.06,1.64,1.58,1.7Q63.17,9.5,63.29,8.62Z"/></svg>