<svg id="Layer_1" data-name="Layer 1" xmlns="http://www.w3.org/2000/svg" viewBox="0 0 356.7 104.17"><defs><style>.cls-1{fill:#231f20;}</style></defs><title>Artboard 3</title><path class="cls-1" d="M109.75,70.24a1.84,1.84,0,1,1,1.84-1.84,1.84,1.84,0,0,1-1.84,1.84"/><path class="cls-1" d="M23.92,95.27a1.5,1.5,0,0,1-1.5-1.5V59.33a1.5,1.5,0,0,1,3,0V93.77A1.5,1.5,0,0,1,23.92,95.27Z"/><path class="cls-1" d="M47.29,78.17a1.5,1.5,0,0,1-1.5-1.5V59.25a1.5,1.5,0,0,1,3,0V76.67A1.5,1.5,0,0,1,47.29,78.17Z"/><path class="cls-1" d="M59.36,85.73a1.5,1.5,0,0,1-1.5-1.5v-7.3a1.5,1.5,0,0,1,3,0v7.3A1.5,1.5,0,0,1,59.36,85.73Z"/><path class="cls-1" d="M97.43,78.17a1.5,1.5,0,0,1-1.5-1.5V59.25a1.5,1.5,0,0,1,3,0V76.67A1.5,1.5,0,0,1,97.43,78.17Z"/><path class="cls-1" d="M72.46,77.64a1.5,1.5,0,0,1-1.5-1.5V59.25a1.5,1.5,0,0,1,3,0V76.14A1.5,1.5,0,0,1,72.46,77.64Z"/><path class="cls-1" d="M84.62,57.45a2.23,2.23,0,1,1-2.23,2.23,2.23,2.23,0,0,1,2.23-2.23"/><path class="cls-1" d="M35.63,78.09a1.5,1.5,0,0,1-1.5-1.5V59.33a1.5,1.5,0,0,1,3,0V76.59A1.5,1.5,0,0,1,35.63,78.09Z"/><path class="cls-1" d="M59.36,57.45a2.23,2.23,0,1,1-2.23,2.23,2.23,2.23,0,0,1,2.23-2.23"/><circle class="cls-1" cx="59.36" cy="68.88" r="1.84"/><circle class="cls-1" cx="72.46" cy="84.23" r="1.63"/><circle class="cls-1" cx="84.62" cy="68.22" r="1.84"/><path class="cls-1" d="M109.75,57.45a2.23,2.23,0,1,1-2.23,2.23,2.23,2.23,0,0,1,2.23-2.23"/><path class="cls-1" d="M135,57.45a2.23,2.23,0,1,1-2.23,2.23A2.23,2.23,0,0,1,135,57.45"/><circle class="cls-1" cx="134.99" cy="68.4" r="1.99"/><path class="cls-1" d="M136.84,77.35A1.84,1.84,0,1,1,135,75.51a1.84,1.84,0,0,1,1.84,1.84"/><path class="cls-1" d="M122.65,57.45a2.23,2.23,0,1,1-2.23,2.23,2.23,2.23,0,0,1,2.23-2.23"/><path class="cls-1" d="M12.22,70.51a1.5,1.5,0,0,1-1.5-1.5V59.33a1.5,1.5,0,0,1,3,0V69A1.5,1.5,0,0,1,12.22,70.51Z"/><path class="cls-1" d="M12.22,75.93a1.84,1.84,0,1,1-1.84,1.84,1.84,1.84,0,0,1,1.84-1.84"/><path class="cls-1" d="M12.22,95.27a1.5,1.5,0,0,1-1.5-1.5V86.53a1.5,1.5,0,0,1,3,0v7.24A1.5,1.5,0,0,1,12.22,95.27Z"/><circle class="cls-1" cx="12.22" cy="102.82" r="1.35"/><path class="cls-1" d="M158.63,87.51a1.5,1.5,0,0,1-1.5-1.5V68.23a1.5,1.5,0,0,1,3,0V86A1.5,1.5,0,0,1,158.63,87.51Z"/><circle class="cls-1" cx="158.63" cy="59.53" r="2.23"/><circle class="cls-1" cx="181.93" cy="59.53" r="2.23"/><circle class="cls-1" cx="181.93" cy="68.25" r="1.99"/><path class="cls-1" d="M183.77,76.82A1.84,1.84,0,1,1,181.93,75a1.84,1.84,0,0,1,1.84,1.84"/><path class="cls-1" d="M170.46,78.71a1.5,1.5,0,0,1-1.5-1.5V58.93a1.5,1.5,0,0,1,3,0V77.21A1.5,1.5,0,0,1,170.46,78.71Z"/><path class="cls-1" d="M147.33,79.45a1.5,1.5,0,0,1-1.5-1.5V68.12a1.5,1.5,0,0,1,3,0V78A1.5,1.5,0,0,1,147.33,79.45Z"/><circle class="cls-1" cx="147.33" cy="59.53" r="2.23"/><circle class="cls-1" cx="232.45" cy="93.63" r="1.35"/><path class="cls-1" d="M232.45,79.57a1.5,1.5,0,0,1-1.5-1.5V58.81a1.5,1.5,0,0,1,3,0V78.07A1.5,1.5,0,0,1,232.45,79.57Z"/><path class="cls-1" d="M219.83,69.6a1.5,1.5,0,0,1-1.5-1.5V58.88a1.5,1.5,0,1,1,3,0V68.1A1.5,1.5,0,0,1,219.83,69.6Z"/><circle class="cls-1" cx="220.09" cy="76.82" r="1.84"/><path class="cls-1" d="M194.57,79.57a1.5,1.5,0,0,1-1.5-1.5V67.75a1.5,1.5,0,1,1,3,0V78.07A1.5,1.5,0,0,1,194.57,79.57Z"/><circle class="cls-1" cx="194.57" cy="86.03" r="1.63"/><circle class="cls-1" cx="194.57" cy="59.53" r="2.23"/><circle class="cls-1" cx="194.57" cy="93.52" r="1.35"/><path class="cls-1" d="M207.22,79.57a1.5,1.5,0,0,1-1.5-1.5V67.75a1.5,1.5,0,0,1,3,0V78.07A1.5,1.5,0,0,1,207.22,79.57Z"/><circle class="cls-1" cx="207.22" cy="59.53" r="2.23"/><circle class="cls-1" cx="232.45" cy="86.03" r="1.63"/><circle class="cls-1" cx="244.74" cy="59.57" r="2.23"/><circle class="cls-1" cx="244.74" cy="68.25" r="1.99"/><path class="cls-1" d="M246.42,76.82A1.84,1.84,0,1,1,244.58,75a1.84,1.84,0,0,1,1.84,1.84"/><circle class="cls-1" cx="158.63" cy="93.52" r="1.35"/><circle class="cls-1" cx="344.5" cy="93.69" r="1.35"/><circle class="cls-1" cx="294.15" cy="93.69" r="1.35"/><path class="cls-1" d="M294.16,87.59a1.5,1.5,0,0,1-1.5-1.5V69a1.5,1.5,0,0,1,3,0V86.09A1.5,1.5,0,0,1,294.16,87.59Z"/><path class="cls-1" d="M306.61,87.59a1.5,1.5,0,0,1-1.5-1.5V59.18a1.5,1.5,0,0,1,3,0V86.09A1.5,1.5,0,0,1,306.61,87.59Z"/><path class="cls-1" d="M332.15,70.27a1.5,1.5,0,0,1-1.5-1.5V59a1.5,1.5,0,1,1,3,0v9.72A1.5,1.5,0,0,1,332.15,70.27Z"/><path class="cls-1" d="M282.45,79.63a1.5,1.5,0,0,1-1.5-1.5V68.91a1.5,1.5,0,1,1,3,0v9.22A1.5,1.5,0,0,1,282.45,79.63Z"/><line class="cls-1" x1="344.47" y1="59.05" x2="344.47" y2="85.83"/><path class="cls-1" d="M344.47,87.33a1.5,1.5,0,0,1-1.5-1.5V59a1.5,1.5,0,1,1,3,0V85.83A1.5,1.5,0,0,1,344.47,87.33Z"/><circle class="cls-1" cx="294.16" cy="59.63" r="2.23"/><path class="cls-1" d="M259.38,79.63a1.5,1.5,0,0,1-1.5-1.5V68.31a1.5,1.5,0,0,1,3,0v9.83A1.5,1.5,0,0,1,259.38,79.63Z"/><circle class="cls-1" cx="259.33" cy="86.09" r="1.63"/><circle class="cls-1" cx="259.26" cy="59.63" r="2.23"/><circle class="cls-1" cx="259.33" cy="93.69" r="1.35"/><circle class="cls-1" cx="270.79" cy="59.63" r="2.23"/><circle class="cls-1" cx="282.35" cy="59.63" r="2.23"/><circle class="cls-1" cx="319.71" cy="59.63" r="2.23"/><circle class="cls-1" cx="332.15" cy="76.3" r="1.84"/><circle class="cls-1" cx="319.71" cy="67.94" r="1.84"/><path class="cls-1" d="M244.74,33.93a1.84,1.84,0,1,1-1.84,1.84,1.84,1.84,0,0,1,1.84-1.84"/><path class="cls-1" d="M332.15,46.34a1.5,1.5,0,0,1-1.5-1.5V10.4a1.5,1.5,0,0,1,3,0V44.84A1.5,1.5,0,0,1,332.15,46.34Z"/><path class="cls-1" d="M306.61,46.42a1.5,1.5,0,0,1-1.5-1.5V27.5a1.5,1.5,0,0,1,3,0V44.92A1.5,1.5,0,0,1,306.61,46.42Z"/><path class="cls-1" d="M294.16,29a1.5,1.5,0,0,1-1.5-1.5V20.2a1.5,1.5,0,1,1,3,0v7.3A1.5,1.5,0,0,1,294.16,29Z"/><path class="cls-1" d="M259.26,46.69a1.5,1.5,0,0,1-1.5-1.5V27.77a1.5,1.5,0,0,1,3,0V45.19A1.5,1.5,0,0,1,259.26,46.69Z"/><path class="cls-1" d="M282.35,46.42a1.5,1.5,0,0,1-1.5-1.5V28a1.5,1.5,0,1,1,3,0V44.92A1.5,1.5,0,0,1,282.35,46.42Z"/><path class="cls-1" d="M270.79,46.65A2.23,2.23,0,1,1,273,44.42a2.23,2.23,0,0,1-2.23,2.23"/><path class="cls-1" d="M319.7,46.34a1.5,1.5,0,0,1-1.5-1.5V27.58a1.5,1.5,0,0,1,3,0V44.84A1.5,1.5,0,0,1,319.7,46.34Z"/><path class="cls-1" d="M294.16,46.65a2.23,2.23,0,1,1,2.23-2.23,2.23,2.23,0,0,1-2.23,2.23"/><circle class="cls-1" cx="294.16" cy="35.29" r="1.84"/><circle class="cls-1" cx="282.35" cy="19.94" r="1.63"/><circle class="cls-1" cx="271.18" cy="35.96" r="1.84"/><path class="cls-1" d="M244.72,46.72a2.23,2.23,0,1,1,2.23-2.23,2.23,2.23,0,0,1-2.23,2.23"/><path class="cls-1" d="M219.86,46.87a2.23,2.23,0,1,1,2.23-2.23,2.23,2.23,0,0,1-2.23,2.23"/><circle class="cls-1" cx="219.72" cy="35.77" r="1.99"/><path class="cls-1" d="M218,26.82a1.84,1.84,0,1,1,1.84,1.84A1.84,1.84,0,0,1,218,26.82"/><path class="cls-1" d="M232.45,46.72a2.23,2.23,0,1,1,2.23-2.23,2.23,2.23,0,0,1-2.23,2.23"/><path class="cls-1" d="M344.47,46.34a1.5,1.5,0,0,1-1.5-1.5V35.16a1.5,1.5,0,1,1,3,0v9.68A1.5,1.5,0,0,1,344.47,46.34Z"/><path class="cls-1" d="M344.48,28.24a1.84,1.84,0,1,1,1.84-1.84,1.84,1.84,0,0,1-1.84,1.84"/><path class="cls-1" d="M344.48,19.14a1.5,1.5,0,0,1-1.5-1.5V10.4a1.5,1.5,0,0,1,3,0v7.24A1.5,1.5,0,0,1,344.48,19.14Z"/><circle class="cls-1" cx="344.48" cy="1.35" r="1.35"/><path class="cls-1" d="M194.53,37.74a1.5,1.5,0,0,1-1.5-1.5V18.46a1.5,1.5,0,0,1,3,0V36.24A1.5,1.5,0,0,1,194.53,37.74Z"/><circle class="cls-1" cx="194.53" cy="45.24" r="2.23"/><circle class="cls-1" cx="170.46" cy="44.64" r="2.23"/><circle class="cls-1" cx="170.46" cy="36.43" r="1.99"/><path class="cls-1" d="M168.61,27.35a1.84,1.84,0,1,1,1.84,1.84,1.84,1.84,0,0,1-1.84-1.84"/><path class="cls-1" d="M181.93,46.74a1.5,1.5,0,0,1-1.5-1.5V27a1.5,1.5,0,0,1,3,0V45.24A1.5,1.5,0,0,1,181.93,46.74Z"/><path class="cls-1" d="M207.22,37.68a1.5,1.5,0,0,1-1.5-1.5V26.34a1.5,1.5,0,0,1,3,0v9.83A1.5,1.5,0,0,1,207.22,37.68Z"/><circle class="cls-1" cx="207.14" cy="45.24" r="2.23"/><circle class="cls-1" cx="122.65" cy="10.65" r="1.35"/><path class="cls-1" d="M122.65,47a1.5,1.5,0,0,1-1.5-1.5V26.23a1.5,1.5,0,1,1,3,0V45.49A1.5,1.5,0,0,1,122.65,47Z"/><path class="cls-1" d="M135,46.8a1.5,1.5,0,0,1-1.5-1.5V36.07a1.5,1.5,0,1,1,3,0V45.3A1.5,1.5,0,0,1,135,46.8Z"/><circle class="cls-1" cx="134.99" cy="27.35" r="1.84"/><path class="cls-1" d="M158.63,37.93a1.5,1.5,0,0,1-1.5-1.5V26.1a1.5,1.5,0,1,1,3,0V36.43A1.5,1.5,0,0,1,158.63,37.93Z"/><circle class="cls-1" cx="158.63" cy="18.16" r="1.63"/><circle class="cls-1" cx="158.63" cy="44.64" r="2.23"/><circle class="cls-1" cx="158.63" cy="10.65" r="1.35"/><path class="cls-1" d="M147.33,37.93a1.5,1.5,0,0,1-1.5-1.5V26.1a1.5,1.5,0,1,1,3,0V36.43A1.5,1.5,0,0,1,147.33,37.93Z"/><circle class="cls-1" cx="147.25" cy="44.64" r="2.23"/><circle class="cls-1" cx="122.65" cy="18.14" r="1.63"/><circle class="cls-1" cx="109.75" cy="45.24" r="2.23"/><circle class="cls-1" cx="109.75" cy="36.1" r="1.99"/><path class="cls-1" d="M107.91,27.35a1.84,1.84,0,1,1,1.84,1.84,1.84,1.84,0,0,1-1.84-1.84"/><circle class="cls-1" cx="194.57" cy="10.65" r="1.35"/><circle class="cls-1" cx="12.22" cy="10.55" r="1.35"/><circle class="cls-1" cx="59.36" cy="10.55" r="1.35"/><path class="cls-1" d="M59.36,37.14a1.5,1.5,0,0,1-1.5-1.5V18.51a1.5,1.5,0,1,1,3,0V35.64A1.5,1.5,0,0,1,59.36,37.14Z"/><path class="cls-1" d="M47.29,46.69a1.5,1.5,0,0,1-1.5-1.5V18.28a1.5,1.5,0,0,1,3,0V45.19A1.5,1.5,0,0,1,47.29,46.69Z"/><path class="cls-1" d="M23.92,46.62a1.5,1.5,0,0,1-1.5-1.5V35.4a1.5,1.5,0,0,1,3,0v9.72A1.5,1.5,0,0,1,23.92,46.62Z"/><path class="cls-1" d="M72.46,37.06a1.5,1.5,0,0,1-1.5-1.5V26.34a1.5,1.5,0,1,1,3,0v9.22A1.5,1.5,0,0,1,72.46,37.06Z"/><line class="cls-1" x1="12.23" y1="45.12" x2="12.23" y2="18.34"/><path class="cls-1" d="M12.23,46.62a1.5,1.5,0,0,1-1.5-1.5V18.34a1.5,1.5,0,0,1,3,0V45.12A1.5,1.5,0,0,1,12.23,46.62Z"/><circle class="cls-1" cx="59.36" cy="44.54" r="2.23"/><path class="cls-1" d="M97.32,37.36a1.5,1.5,0,0,1-1.5-1.5V26a1.5,1.5,0,0,1,3,0v9.83A1.5,1.5,0,0,1,97.32,37.36Z"/><circle class="cls-1" cx="97.37" cy="18.08" r="1.63"/><circle class="cls-1" cx="97.44" cy="44.54" r="2.23"/><circle class="cls-1" cx="97.37" cy="10.49" r="1.35"/><circle class="cls-1" cx="84.62" cy="44.54" r="2.23"/><circle class="cls-1" cx="72.46" cy="44.64" r="2.23"/><circle class="cls-1" cx="35.63" cy="44.6" r="2.23"/><circle class="cls-1" cx="23.92" cy="27.87" r="1.84"/><circle class="cls-1" cx="35.63" cy="36.23" r="1.84"/></svg>