<svg id="Layer_1" data-name="Layer 1" xmlns="http://www.w3.org/2000/svg" viewBox="0 0 668.42 159.12"><defs><style>.cls-1{fill:#231f20;}.cls-2{fill:#48bdac;}.cls-3{fill:#fdb737;}</style></defs><title>Artboard 6</title><circle class="cls-1" cx="191.84" cy="115.07" r="2.23"/><circle class="cls-1" cx="191.84" cy="123.93" r="1.84"/><circle class="cls-1" cx="281.84" cy="132.06" r="1.63"/><circle class="cls-1" cx="191.84" cy="132.2" r="1.63"/><circle class="cls-1" cx="281.84" cy="139.83" r="1.35"/><circle class="cls-1" cx="191.84" cy="139.97" r="1.35"/><path class="cls-1" d="M191.84,108a2.46,2.46,0,1,1,2.46-2.46,2.46,2.46,0,0,1-2.46,2.46"/><path class="cls-1" d="M251.27,103.13a2.46,2.46,0,1,1-2.46,2.46,2.46,2.46,0,0,1,2.46-2.46"/><path class="cls-1" d="M237,125.78a1.84,1.84,0,1,1,1.84-1.84,1.84,1.84,0,0,1-1.84,1.84"/><circle class="cls-1" cx="206.84" cy="60.13" r="2.46" transform="translate(-0.07 0.23) rotate(-0.06)"/><circle class="cls-1" cx="236.84" cy="60.44" r="2.46" transform="matrix(1, 0, 0, 1, -0.07, 0.27)"/><circle class="cls-1" cx="296.84" cy="60.47" r="2.46" transform="translate(-0.07 0.33) rotate(-0.06)"/><circle class="cls-1" cx="206.71" cy="50.69" r="2.23" transform="translate(-0.06 0.23) rotate(-0.06)"/><circle class="cls-1" cx="281.61" cy="50.37" r="2.23" transform="translate(-0.06 0.32) rotate(-0.06)"/><circle class="cls-1" cx="191.84" cy="41.79" r="1.84" transform="translate(-0.05 0.22) rotate(-0.06)"/><circle class="cls-1" cx="281.61" cy="41.42" r="1.84" transform="translate(-0.05 0.32) rotate(-0.06)"/><circle class="cls-1" cx="191.84" cy="33.43" r="1.63" transform="translate(-0.04 0.22) rotate(-0.06)"/><circle class="cls-1" cx="281.61" cy="33.34" r="1.63" transform="translate(-0.04 0.32) rotate(-0.06)"/><circle class="cls-1" cx="191.71" cy="25.87" r="1.35" transform="translate(-0.03 0.22) rotate(-0.06)"/><path class="cls-1" d="M281.84,58a2.46,2.46,0,0,1,2.37,3.11,2.43,2.43,0,0,1-1.72,1.72,2.46,2.46,0,1,1-.66-4.83"/><path class="cls-1" d="M177.71,39.84a1.84,1.84,0,1,1-1.84,1.84,1.84,1.84,0,0,1,1.84-1.84"/><path class="cls-1" d="M239.22,50.36a2.27,2.27,0,0,1-3.62,1.8,1.33,1.33,0,0,1-.4-.4A2.27,2.27,0,0,1,237,48.14a2.23,2.23,0,0,1,2.23,2.23"/><path class="cls-1" d="M237,39.58a1.84,1.84,0,1,1-1.84,1.84A1.84,1.84,0,0,1,237,39.58"/><circle class="cls-1" cx="221.84" cy="105.59" r="2.46" transform="translate(-0.12 0.25) rotate(-0.06)"/><circle class="cls-1" cx="266.84" cy="83.75" r="3.13"/><circle class="cls-1" cx="266.84" cy="95.39" r="2.74"/><circle class="cls-1" cx="266.84" cy="105.59" r="2.46"/><circle class="cls-1" cx="266.84" cy="115.07" r="2.23"/><circle class="cls-1" cx="266.84" cy="123.93" r="1.84"/><circle class="cls-1" cx="266.84" cy="132.2" r="1.63"/><circle class="cls-1" cx="266.84" cy="139.97" r="1.35"/><path class="cls-1" d="M254.4,83.75a3.13,3.13,0,1,1-3.13-3.13,3.13,3.13,0,0,1,3.13,3.13"/><circle class="cls-1" cx="281.84" cy="83.59" r="3.13"/><circle class="cls-1" cx="281.84" cy="71.49" r="2.74"/><circle class="cls-1" cx="281.61" cy="25.87" r="1.35" transform="translate(-0.03 0.32) rotate(-0.06)"/><path class="cls-1" d="M293.71,83.75a3.13,3.13,0,1,1,6.27,0"/><path class="cls-1" d="M300,83.75a3.13,3.13,0,1,1-6.27,0"/><circle class="cls-1" cx="296.84" cy="71.65" r="2.74"/><path class="cls-1" d="M225,83.75a3.13,3.13,0,1,1-3.13-3.13A3.13,3.13,0,0,1,225,83.75"/><path class="cls-1" d="M204,71.49a2.74,2.74,0,1,1,2.74,2.74A2.74,2.74,0,0,1,204,71.49"/><path class="cls-1" d="M175,71.49a2.74,2.74,0,1,1,2.74,2.74A2.74,2.74,0,0,1,175,71.49"/><circle class="cls-1" cx="221.84" cy="95.39" r="2.74"/><circle class="cls-1" cx="191.71" cy="95.13" r="2.74"/><path class="cls-1" d="M308.41,84a3.13,3.13,0,0,1,6.27,0"/><path class="cls-1" d="M314.68,84a3.13,3.13,0,0,1-6.27,0"/><path class="cls-1" d="M195,83.59a3.13,3.13,0,1,1-3.13-3.13A3.13,3.13,0,0,1,195,83.59"/><circle class="cls-1" cx="236.99" cy="71.71" r="2.74"/><path class="cls-1" d="M160.87,84a3.13,3.13,0,0,1,6.27,0"/><path class="cls-1" d="M167.14,84a3.13,3.13,0,0,1-6.27,0"/><circle class="cls-1" cx="251.27" cy="95.13" r="2.74"/><path class="cls-1" d="M191.84,74.43a1.5,1.5,0,0,1-1.5-1.5V51.22a1.5,1.5,0,0,1,3,0V72.93A1.5,1.5,0,0,1,191.84,74.43Z"/><path class="cls-1" d="M177.71,62.55a1.5,1.5,0,0,1-1.5-1.5V51.22a1.5,1.5,0,0,1,3,0v9.83A1.5,1.5,0,0,1,177.71,62.55Z"/><path class="cls-1" d="M221.85,74.73a1.5,1.5,0,0,1-1.5-1.5V60.13a1.5,1.5,0,0,1,3,0v13.1A1.5,1.5,0,0,1,221.85,74.73Z"/><path class="cls-1" d="M206.84,116.57a1.5,1.5,0,0,1-1.5-1.5V82.65a1.5,1.5,0,0,1,3,0v32.42A1.5,1.5,0,0,1,206.84,116.57Z"/><path class="cls-1" d="M221.84,135.78a1.5,1.5,0,0,1-1.5-1.5V115.07a1.5,1.5,0,1,1,3,0v19.22A1.5,1.5,0,0,1,221.84,135.78Z"/><path class="cls-1" d="M251.27,74.52a1.5,1.5,0,0,1-1.5-1.5V41.42a1.5,1.5,0,0,1,3,0V73A1.5,1.5,0,0,1,251.27,74.52Z"/><circle class="cls-1" cx="251.27" cy="25.87" r="1.35"/><path class="cls-1" d="M281.84,125a1.5,1.5,0,0,1-1.5-1.5V94a1.5,1.5,0,0,1,3,0v29.5A1.5,1.5,0,0,1,281.84,125Z"/><circle class="cls-1" cx="296.84" cy="95.39" r="2.74"/><circle class="cls-1" cx="296.84" cy="105.59" r="2.46"/><path class="cls-1" d="M237,116.57a1.5,1.5,0,0,1-1.5-1.5V82.65a1.5,1.5,0,0,1,3,0v32.42A1.5,1.5,0,0,1,237,116.57Z"/><path class="cls-1" d="M266.84,74.45a1.5,1.5,0,0,1-1.5-1.5V49.71a1.5,1.5,0,0,1,3,0V72.95A1.5,1.5,0,0,1,266.84,74.45Z"/><circle class="cls-1" cx="251.27" cy="33.43" r="1.63" transform="translate(-0.04 0.28) rotate(-0.06)"/><path class="cls-1" d="M177.71,103.11a1.5,1.5,0,0,1-1.5-1.5V82.4a1.5,1.5,0,1,1,3,0v19.22A1.5,1.5,0,0,1,177.71,103.11Z"/><circle class="cls-2" cx="395.89" cy="115.28" r="2.23"/><circle class="cls-2" cx="395.89" cy="124.15" r="1.84"/><circle class="cls-3" cx="485.89" cy="132.28" r="1.63"/><circle class="cls-2" cx="395.89" cy="132.41" r="1.63"/><circle class="cls-3" cx="485.89" cy="140.05" r="1.35"/><circle class="cls-2" cx="395.89" cy="140.18" r="1.35"/><path class="cls-2" d="M395.89,108.26a2.46,2.46,0,1,1,2.46-2.46,2.46,2.46,0,0,1-2.46,2.46"/><path class="cls-3" d="M455.32,103.35a2.46,2.46,0,1,1-2.46,2.46,2.46,2.46,0,0,1,2.46-2.46"/><path class="cls-2" d="M441,126a1.84,1.84,0,1,1,1.84-1.84A1.84,1.84,0,0,1,441,126"/><circle class="cls-2" cx="410.89" cy="60.35" r="2.46" transform="translate(-0.07 0.46) rotate(-0.06)"/><circle class="cls-3" cx="440.89" cy="60.66" r="2.46" transform="translate(-0.07 0.5) rotate(-0.06)"/><circle class="cls-3" cx="500.89" cy="60.69" r="2.46" transform="translate(-0.07 0.56) rotate(-0.06)"/><circle class="cls-2" cx="410.76" cy="50.91" r="2.23" transform="translate(-0.06 0.46) rotate(-0.06)"/><circle class="cls-3" cx="485.66" cy="50.59" r="2.23" transform="translate(-0.06 0.55) rotate(-0.06)"/><circle class="cls-2" cx="395.89" cy="42.01" r="1.84" transform="translate(-0.05 0.45) rotate(-0.06)"/><circle class="cls-3" cx="485.66" cy="41.64" r="1.84" transform="translate(-0.05 0.55) rotate(-0.06)"/><circle class="cls-2" cx="395.89" cy="33.65" r="1.63" transform="translate(-0.04 0.45) rotate(-0.06)"/><circle class="cls-3" cx="485.66" cy="33.56" r="1.63" transform="translate(-0.04 0.55) rotate(-0.06)"/><circle class="cls-2" cx="395.76" cy="26.09" r="1.35" transform="translate(-0.03 0.45) rotate(-0.06)"/><path class="cls-3" d="M485.89,58.23a2.46,2.46,0,0,1,2.37,3.11,2.43,2.43,0,0,1-1.72,1.72,2.46,2.46,0,1,1-.66-4.83"/><path class="cls-2" d="M381.76,40.06a1.84,1.84,0,1,1-1.84,1.84,1.84,1.84,0,0,1,1.84-1.84"/><path class="cls-3" d="M443.27,50.58a2.27,2.27,0,0,1-3.62,1.8,1.33,1.33,0,0,1-.4-.4A2.27,2.27,0,0,1,441,48.36a2.23,2.23,0,0,1,2.23,2.23"/><path class="cls-3" d="M441,39.79a1.84,1.84,0,1,1-1.84,1.84A1.84,1.84,0,0,1,441,39.79"/><circle class="cls-2" cx="425.89" cy="105.81" r="2.46" transform="translate(-0.12 0.48) rotate(-0.06)"/><circle class="cls-3" cx="470.89" cy="83.97" r="3.13"/><circle class="cls-3" cx="470.89" cy="95.6" r="2.74"/><circle class="cls-3" cx="470.89" cy="105.81" r="2.46"/><circle class="cls-3" cx="470.89" cy="115.28" r="2.23"/><circle class="cls-3" cx="470.89" cy="124.15" r="1.84"/><circle class="cls-3" cx="470.89" cy="132.41" r="1.63"/><circle class="cls-3" cx="470.89" cy="140.18" r="1.35"/><path class="cls-3" d="M458.45,84a3.13,3.13,0,1,1-3.13-3.13A3.13,3.13,0,0,1,458.45,84"/><circle class="cls-3" cx="485.89" cy="83.81" r="3.13"/><circle class="cls-3" cx="485.89" cy="71.71" r="2.74"/><circle class="cls-3" cx="485.66" cy="26.09" r="1.35" transform="translate(-0.03 0.55) rotate(-0.06)"/><path class="cls-3" d="M497.76,84A3.13,3.13,0,1,1,504,84"/><path class="cls-3" d="M504,84a3.13,3.13,0,1,1-6.27,0"/><circle class="cls-3" cx="500.89" cy="71.87" r="2.74"/><path class="cls-2" d="M429,84a3.13,3.13,0,1,1-3.13-3.13A3.13,3.13,0,0,1,429,84"/><path class="cls-2" d="M408,71.71a2.74,2.74,0,1,1,2.74,2.74A2.74,2.74,0,0,1,408,71.71"/><path class="cls-2" d="M379,71.71a2.74,2.74,0,1,1,2.74,2.74A2.74,2.74,0,0,1,379,71.71"/><circle class="cls-2" cx="425.89" cy="95.6" r="2.74"/><circle class="cls-2" cx="395.76" cy="95.35" r="2.74"/><path class="cls-3" d="M512.46,84.2a3.13,3.13,0,0,1,6.27,0"/><path class="cls-3" d="M518.73,84.2a3.13,3.13,0,0,1-6.27,0"/><path class="cls-2" d="M399,83.81a3.13,3.13,0,1,1-3.13-3.13A3.13,3.13,0,0,1,399,83.81"/><circle class="cls-3" cx="441.04" cy="71.93" r="2.74"/><path class="cls-2" d="M364.92,84.2a3.13,3.13,0,0,1,6.27,0"/><path class="cls-2" d="M371.19,84.2a3.13,3.13,0,0,1-6.27,0"/><circle class="cls-3" cx="455.32" cy="95.35" r="2.74"/><path class="cls-2" d="M395.89,74.65a1.5,1.5,0,0,1-1.5-1.5V51.44a1.5,1.5,0,0,1,3,0V73.15A1.5,1.5,0,0,1,395.89,74.65Z"/><path class="cls-2" d="M381.76,62.77a1.5,1.5,0,0,1-1.5-1.5V51.44a1.5,1.5,0,0,1,3,0v9.83A1.5,1.5,0,0,1,381.76,62.77Z"/><path class="cls-2" d="M425.9,74.95a1.5,1.5,0,0,1-1.5-1.5V60.35a1.5,1.5,0,0,1,3,0v13.1A1.5,1.5,0,0,1,425.9,74.95Z"/><path class="cls-2" d="M410.89,116.79a1.5,1.5,0,0,1-1.5-1.5V82.87a1.5,1.5,0,1,1,3,0v32.42A1.5,1.5,0,0,1,410.89,116.79Z"/><path class="cls-2" d="M425.89,136a1.5,1.5,0,0,1-1.5-1.5V115.29a1.5,1.5,0,1,1,3,0V134.5A1.5,1.5,0,0,1,425.89,136Z"/><path class="cls-3" d="M455.32,74.74a1.5,1.5,0,0,1-1.5-1.5V41.64a1.5,1.5,0,0,1,3,0v31.6A1.5,1.5,0,0,1,455.32,74.74Z"/><circle class="cls-3" cx="455.32" cy="26.09" r="1.35"/><path class="cls-3" d="M485.89,125.19a1.5,1.5,0,0,1-1.5-1.5V94.19a1.5,1.5,0,1,1,3,0v29.5A1.5,1.5,0,0,1,485.89,125.19Z"/><circle class="cls-3" cx="500.89" cy="95.6" r="2.74"/><circle class="cls-3" cx="500.89" cy="105.81" r="2.46"/><path class="cls-2" d="M441,116.79a1.5,1.5,0,0,1-1.5-1.5V82.87a1.5,1.5,0,0,1,3,0v32.42A1.5,1.5,0,0,1,441,116.79Z"/><path class="cls-3" d="M470.89,74.67a1.5,1.5,0,0,1-1.5-1.5V49.93a1.5,1.5,0,0,1,3,0V73.17A1.5,1.5,0,0,1,470.89,74.67Z"/><circle class="cls-3" cx="455.32" cy="33.65" r="1.63" transform="translate(-0.04 0.51) rotate(-0.06)"/><path class="cls-2" d="M381.76,103.33a1.5,1.5,0,0,1-1.5-1.5V82.62a1.5,1.5,0,1,1,3,0v19.22A1.5,1.5,0,0,1,381.76,103.33Z"/></svg>