<svg id="Layer_1" data-name="Layer 1" xmlns="http://www.w3.org/2000/svg" viewBox="0 0 668.42 196.31"><defs><style>.cls-1{fill:#231f20;}.cls-2{fill:#46b86d;}.cls-3{fill:#ef3f29;}.cls-4{fill:#fdb737;}.cls-5{fill:#48bdac;}</style></defs><title>Artboard 1</title><path class="cls-1" d="M246,36.09V27.55h.91v7.72h4.37v.82Z"/><path class="cls-1" d="M253.22,33.37c0,1.3.61,2,1.74,2a1.94,1.94,0,0,0,1.55-.67l.59.52a2.7,2.7,0,0,1-2.16.91c-1.56,0-2.58-.94-2.58-3,0-1.91.92-3,2.42-3s2.42,1.1,2.42,2.85v.4Zm2.94-1.63a1.52,1.52,0,0,0-2.76,0,2.48,2.48,0,0,0-.18,1h3.12A2.48,2.48,0,0,0,256.16,31.73Z"/><path class="cls-1" d="M262.38,36.09v-.56a2.07,2.07,0,0,1-1.7.64,2.1,2.1,0,0,1-1.67-.54,1.7,1.7,0,0,1-.44-1.2c0-1,.72-1.7,2-1.7h1.78v-.56c0-.86-.43-1.29-1.51-1.29a1.55,1.55,0,0,0-1.49.67L258.8,31a2.29,2.29,0,0,1,2.09-.88c1.58,0,2.36.68,2.36,2v4Zm0-2.72h-1.66c-.89,0-1.32.36-1.32,1s.42,1,1.36,1a1.72,1.72,0,0,0,1.32-.4,1.36,1.36,0,0,0,.3-1Z"/><path class="cls-1" d="M268.65,31.31a1.23,1.23,0,0,0-1-.43,1.44,1.44,0,0,0-1.42,1.58v3.62h-.86v-5.9h.86v.72a2,2,0,0,1,1.66-.79,1.82,1.82,0,0,1,1.42.55Z"/><path class="cls-1" d="M274.18,36.09V32.45a1.46,1.46,0,1,0-2.91,0v3.63h-.86v-5.9h.86v.65a2.13,2.13,0,0,1,1.66-.72,2.07,2.07,0,0,1,1.51.55,2.18,2.18,0,0,1,.61,1.64v3.78Z"/><path class="cls-1" d="M277.1,28.51v-1h1v1Zm0,7.58v-5.9H278v5.9Z"/><path class="cls-1" d="M284,36.09V32.45a1.46,1.46,0,1,0-2.91,0v3.63h-.86v-5.9H281v.65a2.13,2.13,0,0,1,1.66-.72,2.07,2.07,0,0,1,1.51.55,2.18,2.18,0,0,1,.61,1.64v3.78Z"/><path class="cls-1" d="M288.82,38.8a2.61,2.61,0,0,1-2-.79l.56-.55a1.82,1.82,0,0,0,1.42.59c1.14,0,1.62-.8,1.62-1.81v-.92a1.9,1.9,0,0,1-1.65.77,2,2,0,0,1-1.43-.53,3.39,3.39,0,0,1-.72-2.46,3.39,3.39,0,0,1,.72-2.46,2.05,2.05,0,0,1,1.44-.52,1.86,1.86,0,0,1,1.66.77v-.7h.85v6.08A2.35,2.35,0,0,1,288.82,38.8Zm.13-7.92c-1.28,0-1.48,1.1-1.48,2.21s.19,2.21,1.48,2.21,1.46-1.1,1.46-2.21S290.24,30.88,289,30.88Z"/><path class="cls-1" d="M34.07,39.34l-.68-1.93H29.65L29,39.34H28l3.14-8.54h.77L35,39.34ZM31.54,32.1l-1.61,4.51h3.19Z"/><path class="cls-1" d="M39.56,34.56a1.23,1.23,0,0,0-1-.43,1.44,1.44,0,0,0-1.42,1.58v3.62h-.86v-5.9h.86v.72a2,2,0,0,1,1.65-.79,1.82,1.82,0,0,1,1.42.55Z"/><path class="cls-1" d="M43,39.34a1.45,1.45,0,0,1-1.51-1.58V34.13h-.74v-.66h.74V31.63h.86v1.85h1.26v.66H42.32v3.6c0,.54.25.86.8.86h.46v.74Z"/><path class="cls-1" d="M47.16,39.41a3.26,3.26,0,0,1-2.42-.85l.58-.58a2.41,2.41,0,0,0,1.83.68c1,0,1.57-.35,1.57-1,0-.52-.3-.8-1-.86l-1-.08c-1.15-.1-1.76-.61-1.76-1.58s.91-1.73,2.17-1.73a3.34,3.34,0,0,1,2.12.64l-.56.56a2.52,2.52,0,0,0-1.57-.47c-.86,0-1.32.37-1.32,1s.29.8,1,.86l.95.08c1,.1,1.74.49,1.74,1.6S48.59,39.41,47.16,39.41Z"/><path class="cls-1" d="M54.4,39.34V30.8h.91v7.72h4.37v.82Z"/><path class="cls-1" d="M64.46,39.34v-.56a2.07,2.07,0,0,1-1.7.64,2.1,2.1,0,0,1-1.67-.54,1.7,1.7,0,0,1-.44-1.2c0-1,.72-1.7,2-1.7h1.78V35.4c0-.86-.43-1.3-1.51-1.3a1.55,1.55,0,0,0-1.49.67l-.59-.54A2.29,2.29,0,0,1,63,33.36c1.58,0,2.36.68,2.36,2v4Zm0-2.72H62.81c-.89,0-1.32.36-1.32,1s.42,1,1.36,1a1.73,1.73,0,0,0,1.32-.4,1.36,1.36,0,0,0,.3-1Z"/><path class="cls-1" d="M71.21,39.34V35.7a1.37,1.37,0,0,0-1.45-1.57,1.39,1.39,0,0,0-1.46,1.57v3.63h-.86v-5.9h.86v.65a2.13,2.13,0,0,1,1.65-.72,2.07,2.07,0,0,1,1.51.55,2.18,2.18,0,0,1,.61,1.64v3.78Z"/><path class="cls-1" d="M77.7,39.34v-.71a1.91,1.91,0,0,1-1.68.78,2.06,2.06,0,0,1-1.44-.52,3.53,3.53,0,0,1-.72-2.51,3.52,3.52,0,0,1,.72-2.51A2.06,2.06,0,0,1,76,33.36a1.9,1.9,0,0,1,1.67.76V30.8h.86v8.54Zm-1.49-5.21c-1.28,0-1.49,1.1-1.49,2.25s.2,2.25,1.49,2.25,1.48-1.1,1.48-2.25S77.49,34.13,76.21,34.13Z"/><path class="cls-1" d="M82.57,39.41a3.26,3.26,0,0,1-2.42-.85l.58-.58a2.41,2.41,0,0,0,1.83.68c1,0,1.57-.35,1.57-1,0-.52-.3-.8-1-.86l-1-.08c-1.15-.1-1.76-.61-1.76-1.58s.91-1.73,2.17-1.73a3.34,3.34,0,0,1,2.12.64l-.56.56a2.52,2.52,0,0,0-1.57-.47c-.86,0-1.32.37-1.32,1s.29.8,1,.86l.95.08c1,.1,1.74.49,1.74,1.6S84,39.41,82.57,39.41Z"/><path class="cls-1" d="M475.16,42a3,3,0,0,1-2.18-.89c-.8-.8-.8-1.64-.8-3.45s0-2.65.8-3.45a3,3,0,0,1,2.18-.89,2.88,2.88,0,0,1,3,2.54h-.94a2,2,0,0,0-2-1.73,2.05,2.05,0,0,0-1.47.6c-.54.55-.6,1.14-.6,2.93s.06,2.38.6,2.93a2.09,2.09,0,0,0,3.53-1.13h.91A2.88,2.88,0,0,1,475.16,42Z"/><path class="cls-1" d="M483.77,41.35a2.46,2.46,0,0,1-3.38,0,3.17,3.17,0,0,1-.72-2.35,3.17,3.17,0,0,1,.72-2.35,2.46,2.46,0,0,1,3.38,0,3.17,3.17,0,0,1,.72,2.35A3.17,3.17,0,0,1,483.77,41.35Zm-.61-4.17a1.51,1.51,0,0,0-1.08-.43,1.49,1.49,0,0,0-1.07.43,2.58,2.58,0,0,0-.48,1.82,2.58,2.58,0,0,0,.48,1.82,1.49,1.49,0,0,0,1.07.43,1.51,1.51,0,0,0,1.08-.43,2.57,2.57,0,0,0,.47-1.82A2.57,2.57,0,0,0,483.16,37.18Z"/><path class="cls-1" d="M493.92,41.95V38.31a1.47,1.47,0,1,0-2.93-.1v3.73h-.86V38.31a1.37,1.37,0,0,0-1.45-1.57,1.4,1.4,0,0,0-1.48,1.57v3.63h-.86V36h.86v.65a2.15,2.15,0,0,1,1.67-.72,2,2,0,0,1,1.81,1,2.26,2.26,0,0,1,1.94-1,2.15,2.15,0,0,1,1.52.55,2.2,2.2,0,0,1,.64,1.64v3.78Z"/><path class="cls-1" d="M504.47,41.95V38.31a1.47,1.47,0,1,0-2.93-.1v3.73h-.86V38.31a1.37,1.37,0,0,0-1.45-1.57,1.4,1.4,0,0,0-1.48,1.57v3.63h-.86V36h.86v.65a2.15,2.15,0,0,1,1.67-.72,2,2,0,0,1,1.81,1,2.26,2.26,0,0,1,1.94-1,2.15,2.15,0,0,1,1.52.55,2.2,2.2,0,0,1,.64,1.64v3.78Z"/><path class="cls-1" d="M511.17,41.95v-.66a2.16,2.16,0,0,1-1.67.73,2.1,2.1,0,0,1-1.52-.55,2.2,2.2,0,0,1-.6-1.66V36h.86v3.63c0,1,.55,1.57,1.44,1.57a1.4,1.4,0,0,0,1.47-1.57V36H512v5.9Z"/><path class="cls-1" d="M518,41.95V38.31a1.46,1.46,0,1,0-2.92,0v3.63h-.86V36H515v.65A2.13,2.13,0,0,1,516.7,36a2.07,2.07,0,0,1,1.51.55,2.18,2.18,0,0,1,.61,1.64v3.78Z"/><path class="cls-1" d="M520.88,34.37v-1h1v1Zm0,7.58V36h.86v5.9Z"/><path class="cls-1" d="M525.62,41.95a1.45,1.45,0,0,1-1.51-1.58V36.74h-.74v-.66h.74V34.24H525v1.85h1.26v.66H525v3.6c0,.54.25.86.8.86h.46v.74Z"/><path class="cls-1" d="M527.9,34.37v-1h1v1Zm0,7.58V36h.86v5.9Z"/><path class="cls-1" d="M531.52,39.23c0,1.3.61,2,1.74,2a1.94,1.94,0,0,0,1.55-.67l.59.52a2.7,2.7,0,0,1-2.16.91c-1.56,0-2.58-.94-2.58-3,0-1.91.92-3,2.42-3s2.42,1.1,2.42,2.85v.4Zm2.94-1.63a1.52,1.52,0,0,0-2.76,0,2.49,2.49,0,0,0-.18,1h3.12A2.48,2.48,0,0,0,534.46,37.6Z"/><path class="cls-1" d="M539.2,42a3.25,3.25,0,0,1-2.42-.85l.58-.58a2.41,2.41,0,0,0,1.83.68c1,0,1.57-.35,1.57-1,0-.52-.3-.8-1-.86l-1-.08c-1.15-.1-1.76-.61-1.76-1.58S538,36,539.21,36a3.34,3.34,0,0,1,2.12.64l-.56.56a2.52,2.52,0,0,0-1.57-.47c-.86,0-1.32.37-1.32,1s.29.8,1,.86l.95.08c1,.1,1.74.49,1.74,1.6S540.63,42,539.2,42Z"/><path class="cls-1" d="M604.48,135.66a1.84,1.84,0,1,1,1.84-1.84,1.84,1.84,0,0,1-1.84,1.84"/><path class="cls-1" d="M518.65,160.69a1.5,1.5,0,0,1-1.5-1.5V124.75a1.5,1.5,0,1,1,3,0v34.45A1.5,1.5,0,0,1,518.65,160.69Z"/><path class="cls-1" d="M542,143.59a1.5,1.5,0,0,1-1.5-1.5V124.67a1.5,1.5,0,1,1,3,0v17.42A1.5,1.5,0,0,1,542,143.59Z"/><path class="cls-1" d="M554.09,151.15a1.5,1.5,0,0,1-1.5-1.5v-7.3a1.5,1.5,0,0,1,3,0v7.3A1.5,1.5,0,0,1,554.09,151.15Z"/><path class="cls-1" d="M592.16,143.59a1.5,1.5,0,0,1-1.5-1.5V124.67a1.5,1.5,0,1,1,3,0v17.42A1.5,1.5,0,0,1,592.16,143.59Z"/><path class="cls-1" d="M567.18,143.06a1.5,1.5,0,0,1-1.5-1.5V124.67a1.5,1.5,0,1,1,3,0v16.89A1.5,1.5,0,0,1,567.18,143.06Z"/><circle class="cls-1" cx="579.35" cy="125.1" r="2.23"/><path class="cls-1" d="M530.35,143.51a1.5,1.5,0,0,1-1.5-1.5V124.75a1.5,1.5,0,1,1,3,0V142A1.5,1.5,0,0,1,530.35,143.51Z"/><circle class="cls-1" cx="554.09" cy="125.1" r="2.23"/><circle class="cls-1" cx="554.09" cy="134.3" r="1.84"/><circle class="cls-1" cx="567.18" cy="149.65" r="1.63"/><circle class="cls-1" cx="579.35" cy="133.64" r="1.84"/><circle class="cls-1" cx="604.48" cy="125.1" r="2.23"/><circle class="cls-1" cx="629.72" cy="125.1" r="2.23"/><circle class="cls-1" cx="629.72" cy="133.82" r="1.99"/><path class="cls-1" d="M631.56,142.77a1.84,1.84,0,1,1-1.84-1.84,1.84,1.84,0,0,1,1.84,1.84"/><circle class="cls-1" cx="617.38" cy="125.1" r="2.23"/><path class="cls-1" d="M506.95,135.93a1.5,1.5,0,0,1-1.5-1.5v-9.68a1.5,1.5,0,0,1,3,0v9.68A1.5,1.5,0,0,1,506.95,135.93Z"/><path class="cls-1" d="M506.95,141.35a1.84,1.84,0,1,1-1.84,1.84,1.84,1.84,0,0,1,1.84-1.84"/><path class="cls-1" d="M506.95,160.69a1.5,1.5,0,0,1-1.5-1.5V152a1.5,1.5,0,0,1,3,0v7.24A1.5,1.5,0,0,1,506.95,160.69Z"/><circle class="cls-1" cx="506.95" cy="168.24" r="1.35"/><path class="cls-1" d="M475.48,109.56a18,18,0,0,1,0-25.05A16.94,16.94,0,0,1,488,79.45a19,19,0,0,1,12.91,4.69l-4.69,5.13A13,13,0,0,0,488,86.46a10,10,0,0,0-10.52,10.45,10.54,10.54,0,0,0,2.93,7.78,10.38,10.38,0,0,0,7.64,2.88,12.6,12.6,0,0,0,8.18-2.79l4.69,5.13A19,19,0,0,1,488,114.61,17.1,17.1,0,0,1,475.48,109.56Z"/><path class="cls-1" d="M512.83,114.61l14.06-35.16h7l14,35.13-7.48,0-2.11-5.39H522.44l-2.11,5.39ZM530.6,88.83l-5.34,13.36H535.8Z"/><path class="cls-1" d="M567.36,79.45V108h18.75v6.56H560.33V79.45Z"/><path class="cls-1" d="M605.24,79.45V108H624v6.56H598.21V79.45Z"/><circle class="cls-2" cx="630.09" cy="113.31" r="2.74"/><circle class="cls-3" cx="592.16" cy="113.31" r="2.74"/><circle class="cls-4" cx="554.23" cy="113.31" r="2.74"/><circle class="cls-5" cx="506.95" cy="113.31" r="2.74"/><path class="cls-1" d="M86.63,153.77a1.5,1.5,0,0,1-1.5-1.5V134.5a1.5,1.5,0,0,1,3,0v17.77A1.5,1.5,0,0,1,86.63,153.77Z"/><circle class="cls-1" cx="86.63" cy="125.8" r="2.23"/><circle class="cls-1" cx="109.93" cy="125.8" r="2.23"/><circle class="cls-1" cx="109.93" cy="134.51" r="1.99"/><path class="cls-1" d="M111.77,143.09a1.84,1.84,0,1,1-1.84-1.84,1.84,1.84,0,0,1,1.84,1.84"/><path class="cls-1" d="M98.45,145a1.5,1.5,0,0,1-1.5-1.5V125.2a1.5,1.5,0,0,1,3,0v18.28A1.5,1.5,0,0,1,98.45,145Z"/><path class="cls-1" d="M75.33,145.72a1.5,1.5,0,0,1-1.5-1.5v-9.83a1.5,1.5,0,0,1,3,0v9.83A1.5,1.5,0,0,1,75.33,145.72Z"/><circle class="cls-1" cx="75.33" cy="125.8" r="2.23"/><circle class="cls-1" cx="160.45" cy="159.89" r="1.35"/><path class="cls-1" d="M160.45,145.84a1.5,1.5,0,0,1-1.5-1.5V125.08a1.5,1.5,0,1,1,3,0v19.26A1.5,1.5,0,0,1,160.45,145.84Z"/><path class="cls-1" d="M147.83,135.86a1.5,1.5,0,0,1-1.5-1.5v-9.22a1.5,1.5,0,1,1,3,0v9.22A1.5,1.5,0,0,1,147.83,135.86Z"/><circle class="cls-1" cx="148.09" cy="143.09" r="1.84"/><path class="cls-1" d="M122.57,145.84a1.5,1.5,0,0,1-1.5-1.5V134a1.5,1.5,0,0,1,3,0v10.33A1.5,1.5,0,0,1,122.57,145.84Z"/><circle class="cls-1" cx="122.57" cy="152.3" r="1.63"/><circle class="cls-1" cx="122.57" cy="125.8" r="2.23"/><circle class="cls-1" cx="122.57" cy="159.78" r="1.35"/><path class="cls-1" d="M135.21,145.84a1.5,1.5,0,0,1-1.5-1.5V134a1.5,1.5,0,0,1,3,0v10.33A1.5,1.5,0,0,1,135.21,145.84Z"/><circle class="cls-1" cx="135.22" cy="125.8" r="2.23"/><circle class="cls-1" cx="160.45" cy="152.3" r="1.63"/><circle class="cls-1" cx="172.74" cy="125.83" r="2.23"/><circle class="cls-1" cx="172.74" cy="134.51" r="1.99"/><path class="cls-1" d="M174.42,143.09a1.84,1.84,0,1,1-1.84-1.84,1.84,1.84,0,0,1,1.84,1.84"/><circle class="cls-1" cx="86.63" cy="159.78" r="1.35"/><path class="cls-1" d="M31.15,110.18a18,18,0,0,1,0-25.05,16.94,16.94,0,0,1,12.49-5.05,19,19,0,0,1,12.91,4.69l-4.69,5.13a13,13,0,0,0-8.23-2.81A10,10,0,0,0,33.13,97.53a10.54,10.54,0,0,0,2.93,7.78,10.38,10.38,0,0,0,7.64,2.88,12.6,12.6,0,0,0,8.18-2.79l4.69,5.13a19,19,0,0,1-12.91,4.69A17.1,17.1,0,0,1,31.15,110.18Z"/><path class="cls-1" d="M68.5,115.23,82.57,80.08h7l14,35.13-7.48,0-2.11-5.39H78.11L76,115.23ZM86.27,89.45l-5.34,13.36H91.47Z"/><path class="cls-1" d="M123,80.07v28.59h18.75v6.56H116V80.07Z"/><path class="cls-1" d="M160.91,80.07v28.59h18.75v6.56H153.88V80.07Z"/><circle class="cls-2" cx="185.76" cy="113.93" r="2.74"/><circle class="cls-3" cx="147.83" cy="113.93" r="2.74"/><circle class="cls-4" cx="109.9" cy="113.93" r="2.74"/><circle class="cls-5" cx="62.62" cy="113.93" r="2.74"/><circle class="cls-1" cx="385.7" cy="158.6" r="1.35"/><circle class="cls-1" cx="335.35" cy="158.6" r="1.35"/><path class="cls-1" d="M335.36,152.51a1.5,1.5,0,0,1-1.5-1.5V133.88a1.5,1.5,0,1,1,3,0V151A1.5,1.5,0,0,1,335.36,152.51Z"/><path class="cls-1" d="M347.81,152.51a1.5,1.5,0,0,1-1.5-1.5V124.1a1.5,1.5,0,0,1,3,0V151A1.5,1.5,0,0,1,347.81,152.51Z"/><path class="cls-1" d="M373.22,135.18a1.5,1.5,0,0,1-1.5-1.5V124a1.5,1.5,0,0,1,3,0v9.72A1.5,1.5,0,0,1,373.22,135.18Z"/><path class="cls-1" d="M323.65,144.55a1.5,1.5,0,0,1-1.5-1.5v-9.22a1.5,1.5,0,0,1,3,0v9.22A1.5,1.5,0,0,1,323.65,144.55Z"/><path class="cls-1" d="M385.67,152.24a1.5,1.5,0,0,1-1.5-1.5V124a1.5,1.5,0,0,1,3,0v26.78A1.5,1.5,0,0,1,385.67,152.24Z"/><circle class="cls-1" cx="335.36" cy="124.55" r="2.23"/><path class="cls-1" d="M300.58,144.55a1.5,1.5,0,0,1-1.5-1.5v-9.83a1.5,1.5,0,0,1,3,0v9.83A1.5,1.5,0,0,1,300.58,144.55Z"/><circle class="cls-1" cx="300.53" cy="151.01" r="1.63"/><circle class="cls-1" cx="300.46" cy="124.55" r="2.23"/><circle class="cls-1" cx="300.53" cy="158.6" r="1.35"/><circle class="cls-1" cx="311.99" cy="124.55" r="2.23"/><circle class="cls-1" cx="323.55" cy="124.55" r="2.23"/><circle class="cls-1" cx="360.91" cy="124.55" r="2.23"/><circle class="cls-1" cx="373.22" cy="141.21" r="1.84"/><circle class="cls-1" cx="360.91" cy="132.86" r="1.84"/><path class="cls-1" d="M250.55,109.37a18,18,0,0,1,0-25.05A16.94,16.94,0,0,1,263,79.26,19,19,0,0,1,276,83.95l-4.69,5.13A13,13,0,0,0,263,86.27a10,10,0,0,0-10.52,10.45,10.54,10.54,0,0,0,2.93,7.78,10.38,10.38,0,0,0,7.64,2.88,12.6,12.6,0,0,0,8.18-2.79l4.69,5.13A19,19,0,0,1,263,114.42,17.1,17.1,0,0,1,250.55,109.37Z"/><path class="cls-1" d="M287.9,114.42,302,79.27h7l14,35.13-7.48,0L313.44,109H297.51l-2.11,5.39Zm17.77-25.78L300.32,102h10.55Z"/><path class="cls-1" d="M342.42,79.26v28.59h18.75v6.56H335.39V79.26Z"/><path class="cls-1" d="M380.31,79.26v28.59h18.75v6.56H373.28V79.26Z"/><circle class="cls-2" cx="405.16" cy="113.12" r="2.74"/><circle class="cls-3" cx="367.22" cy="113.12" r="2.74"/><circle class="cls-4" cx="329.3" cy="113.12" r="2.74"/><circle class="cls-5" cx="282.01" cy="113.12" r="2.74"/></svg>