<svg id="Layer_1" data-name="Layer 1" xmlns="http://www.w3.org/2000/svg" viewBox="0 0 162.4 90.14"><defs><style>.cls-1{fill:#231f20;}.cls-2{fill:#46b86d;}.cls-3{fill:#ef3f29;}.cls-4{fill:#fdb737;}.cls-5{fill:#48bdac;}</style></defs><title>Artboard 6</title><path class="cls-1" d="M134.05,56.21a1.84,1.84,0,1,1,1.84-1.84,1.84,1.84,0,0,1-1.84,1.84"/><path class="cls-1" d="M48.22,81.24a1.5,1.5,0,0,1-1.5-1.5V45.3a1.5,1.5,0,0,1,3,0V79.74A1.5,1.5,0,0,1,48.22,81.24Z"/><path class="cls-1" d="M71.59,64.14a1.5,1.5,0,0,1-1.5-1.5V45.22a1.5,1.5,0,0,1,3,0V62.64A1.5,1.5,0,0,1,71.59,64.14Z"/><path class="cls-1" d="M83.66,71.7a1.5,1.5,0,0,1-1.5-1.5v-7.3a1.5,1.5,0,0,1,3,0v7.3A1.5,1.5,0,0,1,83.66,71.7Z"/><path class="cls-1" d="M121.73,64.14a1.5,1.5,0,0,1-1.5-1.5V45.22a1.5,1.5,0,1,1,3,0V62.64A1.5,1.5,0,0,1,121.73,64.14Z"/><path class="cls-1" d="M96.75,63.61a1.5,1.5,0,0,1-1.5-1.5V45.22a1.5,1.5,0,0,1,3,0V62.11A1.5,1.5,0,0,1,96.75,63.61Z"/><circle class="cls-1" cx="108.92" cy="45.65" r="2.23"/><path class="cls-1" d="M59.93,64.06a1.5,1.5,0,0,1-1.5-1.5V45.3a1.5,1.5,0,0,1,3,0V62.56A1.5,1.5,0,0,1,59.93,64.06Z"/><circle class="cls-1" cx="83.66" cy="45.65" r="2.23"/><circle class="cls-1" cx="83.66" cy="54.85" r="1.84"/><circle class="cls-1" cx="96.75" cy="70.2" r="1.63"/><circle class="cls-1" cx="108.92" cy="54.19" r="1.84"/><circle class="cls-1" cx="134.05" cy="45.65" r="2.23"/><circle class="cls-1" cx="159.29" cy="45.65" r="2.23"/><circle class="cls-1" cx="159.29" cy="54.37" r="1.99"/><path class="cls-1" d="M161.14,63.32a1.84,1.84,0,1,1-1.84-1.84,1.84,1.84,0,0,1,1.84,1.84"/><circle class="cls-1" cx="146.95" cy="45.65" r="2.23"/><path class="cls-1" d="M36.52,56.48A1.5,1.5,0,0,1,35,55V45.3a1.5,1.5,0,0,1,3,0V55A1.5,1.5,0,0,1,36.52,56.48Z"/><path class="cls-1" d="M36.52,61.9a1.84,1.84,0,1,1-1.84,1.84,1.84,1.84,0,0,1,1.84-1.84"/><path class="cls-1" d="M36.52,81.24a1.5,1.5,0,0,1-1.5-1.5V72.5a1.5,1.5,0,0,1,3,0v7.24A1.5,1.5,0,0,1,36.52,81.24Z"/><circle class="cls-1" cx="36.52" cy="88.79" r="1.35"/><path class="cls-1" d="M5.05,30.11A17,17,0,0,1,0,17.51,17,17,0,0,1,5.06,5.05,16.94,16.94,0,0,1,17.55,0,19,19,0,0,1,30.47,4.69L25.78,9.82A13,13,0,0,0,17.55,7a10.32,10.32,0,0,0-7.63,3A10.22,10.22,0,0,0,7,17.46,10.54,10.54,0,0,0,10,25.24a10.38,10.38,0,0,0,7.64,2.88,12.6,12.6,0,0,0,8.18-2.79l4.69,5.13a19,19,0,0,1-12.91,4.69A17.1,17.1,0,0,1,5.05,30.11Z"/><path class="cls-1" d="M42.4,35.16,56.46,0h7l14,35.13-7.48,0-2.11-5.39H52L49.9,35.16ZM60.17,9.38,54.82,22.74H65.37Z"/><path class="cls-1" d="M96.93,0V28.59h18.75v6.56H89.9V0Z"/><path class="cls-1" d="M134.81,0V28.59h18.75v6.56H127.78V0Z"/><circle class="cls-2" cx="159.66" cy="33.86" r="2.74"/><circle class="cls-3" cx="121.73" cy="33.86" r="2.74"/><circle class="cls-4" cx="83.8" cy="33.86" r="2.74"/><circle class="cls-5" cx="36.52" cy="33.86" r="2.74"/></svg>