<svg id="Layer_1" data-name="Layer 1" xmlns="http://www.w3.org/2000/svg" viewBox="0 0 668.42 173.05"><defs><style>.cls-1{fill:#46b86d;}.cls-2{fill:#ef3f29;}.cls-3{fill:#fdb737;}.cls-4{fill:#48bdac;}.cls-5{fill:#231f20;}</style></defs><title>Artboard 7</title><circle class="cls-1" cx="534.36" cy="104.53" r="36.66"/><circle class="cls-2" cx="400.38" cy="104.53" r="36.66"/><circle class="cls-3" cx="266.41" cy="104.53" r="36.66"/><circle class="cls-4" cx="132.43" cy="104.53" r="36.66"/><path class="cls-5" d="M106.09,38l-.28,1.69h1.07v.77h-1.19l-.43,2.72h-.89l.43-2.72h-1.92l-.42,2.72h-.89l.43-2.72h-1.07v-.77h1.2l.28-1.69h-1.1v-.79h1.21l.41-2.58h.9l-.42,2.58h1.91l.41-2.58h.88l-.41,2.58h1V38Zm-2.79,0L103,39.73h1.91L105.2,38Z"/><path class="cls-5" d="M112.59,41.86v1.36h-.85V41.86h-3.41v-.78l3.08-6.4h.92l-3.08,6.4h2.48V38.66h.85v2.42h1v.78Z"/><path class="cls-5" d="M117.25,43.29a2.4,2.4,0,0,1-2.52-2.42A2.33,2.33,0,0,1,116,38.79a2.09,2.09,0,0,1-1.12-1.89,2.35,2.35,0,0,1,4.7,0,2.08,2.08,0,0,1-1.1,1.89,2.31,2.31,0,0,1,1.27,2.08A2.39,2.39,0,0,1,117.25,43.29Zm0-4.1a1.67,1.67,0,1,0,1.66,1.67A1.63,1.63,0,0,0,117.25,39.19Zm0-3.81a1.45,1.45,0,0,0-1.49,1.54,1.49,1.49,0,1,0,3,0A1.46,1.46,0,0,0,117.25,35.37Z"/><path class="cls-5" d="M124.94,43.22h-3.32V34.68h3.21A2.25,2.25,0,0,1,127.35,37a2,2,0,0,1-1.26,1.87,2.07,2.07,0,0,1,1.39,2A2.26,2.26,0,0,1,124.94,43.22Zm-.18-7.72h-2.23v3h2.23c.95,0,1.68-.47,1.68-1.49S125.71,35.49,124.76,35.49Zm.1,3.78h-2.33V42.4h2.33a1.57,1.57,0,1,0,0-3.13Z"/><path class="cls-5" d="M134.72,42.42a3,3,0,0,1-2.16.79h-2.93V34.68h2.93a3,3,0,0,1,2.16.79c.89.89.84,2.2.84,3.38S135.61,41.54,134.72,42.42Zm-.64-6.31a2.22,2.22,0,0,0-1.68-.62h-1.86V42.4h1.86a2.22,2.22,0,0,0,1.68-.62c.59-.61.56-1.88.56-2.93S134.67,36.73,134.08,36.12Z"/><path class="cls-5" d="M142.57,43.22l-.68-1.93h-3.73l-.68,1.93h-1l3.14-8.54h.77l3.13,8.54ZM140,36l-1.61,4.51h3.19Z"/><path class="cls-5" d="M147.47,43.29a3,3,0,0,1-2.18-.89c-.8-.8-.8-1.64-.8-3.45s0-2.65.8-3.45a3,3,0,0,1,2.18-.89,2.88,2.88,0,0,1,3,2.54h-.94a2,2,0,0,0-2-1.73A2.06,2.06,0,0,0,146,36c-.54.55-.6,1.14-.6,2.93s.06,2.38.6,2.93a2.09,2.09,0,0,0,3.53-1.13h.91A2.88,2.88,0,0,1,147.47,43.29Z"/><path class="cls-5" d="M240.07,38l-.28,1.69h1.07v.77h-1.19l-.43,2.72h-.89l.43-2.72h-1.92l-.42,2.72h-.89l.43-2.72h-1.07v-.77h1.2L236.4,38h-1.1v-.79h1.21l.41-2.58h.9l-.42,2.58h1.91l.41-2.58h.88l-.41,2.58h1V38Zm-2.79,0L237,39.73h1.91l.28-1.69Z"/><path class="cls-5" d="M244,35.49v3.14h3.74v.82H244v3.77h-.91V34.68h5.3v.82Z"/><path class="cls-5" d="M255.11,42.42a3,3,0,0,1-2.16.79H250V34.68H253a3,3,0,0,1,2.16.79c.89.89.84,2.2.84,3.38S256,41.54,255.11,42.42Zm-.64-6.31a2.22,2.22,0,0,0-1.68-.62h-1.86V42.4h1.86a2.22,2.22,0,0,0,1.68-.62c.59-.61.56-1.88.56-2.93S255.07,36.73,254.48,36.12Z"/><path class="cls-5" d="M261.43,43.22H258.1V34.68h3.21A2.25,2.25,0,0,1,263.84,37a2,2,0,0,1-1.26,1.87,2.07,2.07,0,0,1,1.39,2A2.26,2.26,0,0,1,261.43,43.22Zm-.18-7.72H259v3h2.23c.95,0,1.68-.47,1.68-1.49S262.19,35.49,261.25,35.49Zm.1,3.78H259V42.4h2.33a1.57,1.57,0,1,0,0-3.13Z"/><path class="cls-5" d="M267.57,43.22h-.91l3-7.77h-3v1.34h-.85V34.68h4.74v.77Z"/><path class="cls-5" d="M274.16,43.3A2.27,2.27,0,0,1,271.65,41h.86a1.51,1.51,0,0,0,1.64,1.49,1.56,1.56,0,0,0,1.64-1.66,1.48,1.48,0,0,0-1.68-1.66h-.18v-.75h.18a1.37,1.37,0,0,0,1.52-1.55,1.43,1.43,0,0,0-1.49-1.56,1.45,1.45,0,0,0-1.54,1.43h-.86a2.27,2.27,0,0,1,2.4-2.19,2.21,2.21,0,0,1,2.35,2.31,1.91,1.91,0,0,1-1.15,1.89,2,2,0,0,1,1.31,2.09A2.32,2.32,0,0,1,274.16,43.3Z"/><path class="cls-5" d="M280.1,43.22h-.91l3-7.77h-3v1.34h-.85V34.68h4.74v.77Z"/><path class="cls-5" d="M376.07,38l-.28,1.69h1.07v.77h-1.19l-.43,2.72h-.89l.43-2.72h-1.92l-.42,2.72h-.89l.43-2.72h-1.07v-.77h1.2L372.4,38h-1.1v-.79h1.21l.41-2.58h.9l-.42,2.58h1.91l.41-2.58h.88l-.41,2.58h1V38Zm-2.79,0L373,39.73h1.91l.28-1.69Z"/><path class="cls-5" d="M379.08,43.22V34.68h5.3v.82H380v3h3.74v.82H380V42.4h4.39v.82Z"/><path class="cls-5" d="M387.19,35.49v3.14h3.74v.82h-3.74v3.77h-.91V34.68h5.3v.82Z"/><path class="cls-5" d="M395,43.3A2.27,2.27,0,0,1,392.5,41h.86A1.51,1.51,0,0,0,395,42.53a1.56,1.56,0,0,0,1.64-1.66A1.48,1.48,0,0,0,395,39.22h-.18v-.75H395a1.37,1.37,0,0,0,1.52-1.55A1.43,1.43,0,0,0,395,35.36a1.45,1.45,0,0,0-1.54,1.43h-.86a2.27,2.27,0,0,1,2.4-2.19,2.21,2.21,0,0,1,2.35,2.31,1.91,1.91,0,0,1-1.15,1.89,2,2,0,0,1,1.31,2.09A2.32,2.32,0,0,1,395,43.3Z"/><path class="cls-5" d="M400.41,35.49v3.14h3.74v.82h-3.74v3.77h-.91V34.68h5.3v.82Z"/><path class="cls-5" d="M406,43.22v-.77l3.37-4.28a2,2,0,0,0,.48-1.26,1.49,1.49,0,1,0-3,0h-.86a2.22,2.22,0,0,1,2.35-2.31,2.19,2.19,0,0,1,2.35,2.3,2.56,2.56,0,0,1-.68,1.73l-3,3.81h3.67v.77Z"/><path class="cls-5" d="M416.43,39l-2.1,4.23h-.9l1.92-3.84a2.25,2.25,0,0,1-3.12-2.24,2.33,2.33,0,0,1,2.36-2.53A2.27,2.27,0,0,1,417,37.06,4.22,4.22,0,0,1,416.43,39Zm-1.83-3.61a1.52,1.52,0,0,0-1.5,1.73,1.52,1.52,0,1,0,3,0A1.53,1.53,0,0,0,414.59,35.37Z"/><path class="cls-5" d="M512.08,38l-.28,1.69h1.07v.77h-1.19l-.43,2.72h-.89l.43-2.72h-1.92l-.42,2.72h-.89l.43-2.72h-1.07v-.77h1.2l.28-1.69h-1.1v-.79h1.21l.41-2.58h.9l-.42,2.58h1.91l.41-2.58h.88l-.41,2.58h1V38Zm-2.79,0L509,39.73h1.91l.28-1.69Z"/><path class="cls-5" d="M518.59,41.86v1.36h-.85V41.86h-3.41v-.78l3.08-6.4h.92l-3.08,6.4h2.48V38.66h.85v2.42h1v.78Z"/><path class="cls-5" d="M523.27,43.29a2.27,2.27,0,0,1-2.37-2.46,4.22,4.22,0,0,1,.54-1.92l2.1-4.23h.89l-1.91,3.84a2.15,2.15,0,0,1,.9-.18,2.22,2.22,0,0,1,2.22,2.42A2.33,2.33,0,0,1,523.27,43.29Zm0-4.22a1.52,1.52,0,0,0-1.5,1.73,1.52,1.52,0,1,0,3,0A1.54,1.54,0,0,0,523.25,39.07Z"/><path class="cls-5" d="M530.93,43.22h-3.32V34.68h3.21A2.25,2.25,0,0,1,533.34,37a2,2,0,0,1-1.26,1.87,2.07,2.07,0,0,1,1.39,2A2.26,2.26,0,0,1,530.93,43.22Zm-.18-7.72h-2.23v3h2.23c.95,0,1.68-.47,1.68-1.49S531.7,35.49,530.75,35.49Zm.1,3.78h-2.33V42.4h2.33a1.57,1.57,0,1,0,0-3.13Z"/><path class="cls-5" d="M537.52,43.29A2.4,2.4,0,0,1,535,40.87a2.33,2.33,0,0,1,1.28-2.08,2.09,2.09,0,0,1-1.12-1.89,2.35,2.35,0,0,1,4.7,0,2.08,2.08,0,0,1-1.1,1.89A2.31,2.31,0,0,1,540,40.87,2.39,2.39,0,0,1,537.52,43.29Zm0-4.1a1.67,1.67,0,1,0,1.66,1.67A1.63,1.63,0,0,0,537.52,39.19Zm0-3.81A1.45,1.45,0,0,0,536,36.91a1.49,1.49,0,1,0,3,0A1.46,1.46,0,0,0,537.52,35.37Z"/><path class="cls-5" d="M543.81,43.29a2.27,2.27,0,0,1-2.37-2.46,4.22,4.22,0,0,1,.54-1.92l2.1-4.23H545l-1.91,3.84a2.15,2.15,0,0,1,.9-.18,2.22,2.22,0,0,1,2.22,2.42A2.33,2.33,0,0,1,543.81,43.29Zm0-4.22a1.52,1.52,0,0,0-1.5,1.73,1.52,1.52,0,1,0,3,0A1.54,1.54,0,0,0,543.8,39.07Z"/><path class="cls-5" d="M553.24,42.42a3,3,0,0,1-2.16.79h-2.93V34.68h2.93a3,3,0,0,1,2.16.79c.89.89.84,2.2.84,3.38S554.13,41.54,553.24,42.42Zm-.64-6.31a2.22,2.22,0,0,0-1.68-.62h-1.86V42.4h1.86a2.22,2.22,0,0,0,1.68-.62c.59-.61.56-1.88.56-2.93S553.19,36.73,552.6,36.12Z"/></svg>