<svg id="Layer_1" data-name="Layer 1" xmlns="http://www.w3.org/2000/svg" viewBox="0 0 139.06 71.16"><defs><style>.cls-1{fill:#231f20;}</style></defs><title>Artboard 5</title><path class="cls-1" d="M5.05,30.11A17,17,0,0,1,0,17.51,17,17,0,0,1,5.06,5.05,16.94,16.94,0,0,1,17.55,0,19,19,0,0,1,30.47,4.69L25.78,9.82A13,13,0,0,0,17.55,7a10.32,10.32,0,0,0-7.63,3A10.22,10.22,0,0,0,7,17.46,10.54,10.54,0,0,0,10,25.24a10.38,10.38,0,0,0,7.64,2.88,12.6,12.6,0,0,0,8.18-2.79l4.69,5.13a19,19,0,0,1-12.91,4.69A17.1,17.1,0,0,1,5.05,30.11Z"/><path class="cls-1" d="M35.19,71.14,49.25,36h7l14,35.13-7.48,0-2.11-5.39H44.8l-2.11,5.39ZM53,45.36,47.61,58.72H58.16Z"/><path class="cls-1" d="M83.67,36V64.59h18.75v6.56H76.64V36Z"/><path class="cls-1" d="M120.31,36V64.59h18.75v6.56H113.28V36Z"/><circle class="cls-1" cx="52.75" cy="26.16" r="4.5"/><circle class="cls-1" cx="98.92" cy="50.55" r="4.5"/><circle class="cls-1" cx="134.56" cy="25.98" r="4.5"/></svg>