<svg id="Layer_1" data-name="Layer 1" xmlns="http://www.w3.org/2000/svg" viewBox="0 0 668.42 301.51"><defs><style>.cls-1{fill:#231f20;}.cls-2{fill:#48bdac;}.cls-3{fill:#fdb737;}.cls-4{fill:#ef3f29;}.cls-5{fill:#46b86d;}</style></defs><title>Artboard 4</title><circle class="cls-1" cx="164.88" cy="24.13" r="1.35"/><circle class="cls-1" cx="215.23" cy="24.13" r="1.35"/><path class="cls-1" d="M215.22,50.35a1.5,1.5,0,0,1-1.5-1.5V31.72a1.5,1.5,0,0,1,3,0V48.85A1.5,1.5,0,0,1,215.22,50.35Z"/><path class="cls-1" d="M202.76,60.13a1.5,1.5,0,0,1-1.5-1.5V31.72a1.5,1.5,0,0,1,3,0V58.63A1.5,1.5,0,0,1,202.76,60.13Z"/><path class="cls-1" d="M177.7,60.27a1.5,1.5,0,0,1-1.5-1.5V49a1.5,1.5,0,0,1,3,0v9.72A1.5,1.5,0,0,1,177.7,60.27Z"/><path class="cls-1" d="M226.93,50.4a1.5,1.5,0,0,1-1.5-1.5V39.68a1.5,1.5,0,0,1,3,0V48.9A1.5,1.5,0,0,1,226.93,50.4Z"/><path class="cls-1" d="M164.9,60.27a1.5,1.5,0,0,1-1.5-1.5V32a1.5,1.5,0,0,1,3,0V58.77A1.5,1.5,0,0,1,164.9,60.27Z"/><circle class="cls-1" cx="215.22" cy="58.19" r="2.23"/><path class="cls-1" d="M250,51a1.5,1.5,0,0,1-1.5-1.5V39.68a1.5,1.5,0,0,1,3,0v9.83A1.5,1.5,0,0,1,250,51Z"/><circle class="cls-1" cx="250.04" cy="31.72" r="1.63"/><circle class="cls-1" cx="250.12" cy="58.19" r="2.23"/><circle class="cls-1" cx="250.04" cy="24.13" r="1.35"/><circle class="cls-1" cx="238.59" cy="58.19" r="2.23"/><circle class="cls-1" cx="227.02" cy="58.19" r="2.23"/><circle class="cls-1" cx="190.06" cy="58.19" r="2.23"/><circle class="cls-1" cx="177.52" cy="41.52" r="1.84"/><circle class="cls-1" cx="190.06" cy="49.87" r="1.84"/><path class="cls-1" d="M348.08,51a1.5,1.5,0,0,1-1.5-1.5V31.75a1.5,1.5,0,1,1,3,0V49.52A1.5,1.5,0,0,1,348.08,51Z"/><circle class="cls-1" cx="348.08" cy="58.22" r="2.23"/><circle class="cls-1" cx="324.78" cy="58.22" r="2.23"/><circle class="cls-1" cx="324.78" cy="49.51" r="1.99"/><path class="cls-1" d="M322.94,40.93a1.84,1.84,0,1,1,1.84,1.84,1.84,1.84,0,0,1-1.84-1.84"/><path class="cls-1" d="M336.25,60.32a1.5,1.5,0,0,1-1.5-1.5V40.55a1.5,1.5,0,0,1,3,0V58.82A1.5,1.5,0,0,1,336.25,60.32Z"/><path class="cls-1" d="M359.38,51.14a1.5,1.5,0,0,1-1.5-1.5V39.8a1.5,1.5,0,0,1,3,0v9.83A1.5,1.5,0,0,1,359.38,51.14Z"/><circle class="cls-1" cx="359.38" cy="58.22" r="2.23"/><circle class="cls-1" cx="274.26" cy="24.13" r="1.35"/><path class="cls-1" d="M274.26,60.44a1.5,1.5,0,0,1-1.5-1.5V39.68a1.5,1.5,0,0,1,3,0V58.94A1.5,1.5,0,0,1,274.26,60.44Z"/><path class="cls-1" d="M286.85,60.38a1.5,1.5,0,0,1-1.5-1.5V49.66a1.5,1.5,0,0,1,3,0v9.22A1.5,1.5,0,0,1,286.85,60.38Z"/><circle class="cls-1" cx="286.62" cy="40.93" r="1.84"/><path class="cls-1" d="M312.14,51.51a1.5,1.5,0,0,1-1.5-1.5V39.68a1.5,1.5,0,0,1,3,0V50A1.5,1.5,0,0,1,312.14,51.51Z"/><circle class="cls-1" cx="312.14" cy="31.72" r="1.63"/><circle class="cls-1" cx="312.14" cy="58.22" r="2.23"/><circle class="cls-1" cx="312.14" cy="24.24" r="1.35"/><path class="cls-1" d="M299.49,51.51A1.5,1.5,0,0,1,298,50V39.68a1.5,1.5,0,0,1,3,0V50A1.5,1.5,0,0,1,299.49,51.51Z"/><circle class="cls-1" cx="299.49" cy="58.22" r="2.23"/><circle class="cls-1" cx="274.26" cy="31.72" r="1.63"/><circle class="cls-1" cx="261.97" cy="58.19" r="2.23"/><circle class="cls-1" cx="261.97" cy="49.51" r="1.99"/><path class="cls-1" d="M260.29,40.93a1.84,1.84,0,1,1,1.84,1.84,1.84,1.84,0,0,1-1.84-1.84"/><circle class="cls-1" cx="348.08" cy="24.24" r="1.35"/><path class="cls-1" d="M396.66,47.66a1.84,1.84,0,1,1-1.84,1.84,1.84,1.84,0,0,1,1.84-1.84"/><path class="cls-1" d="M482.49,60.08a1.5,1.5,0,0,1-1.5-1.5V24.13a1.5,1.5,0,1,1,3,0V58.58A1.5,1.5,0,0,1,482.49,60.08Z"/><path class="cls-1" d="M459.12,60.16a1.5,1.5,0,0,1-1.5-1.5V41.23a1.5,1.5,0,0,1,3,0V58.66A1.5,1.5,0,0,1,459.12,60.16Z"/><path class="cls-1" d="M447,42.47a1.5,1.5,0,0,1-1.5-1.5v-7.3a1.5,1.5,0,0,1,3,0V41A1.5,1.5,0,0,1,447,42.47Z"/><path class="cls-1" d="M408.78,60.15a1.5,1.5,0,0,1-1.5-1.5V41.24a1.5,1.5,0,0,1,3,0V58.65A1.5,1.5,0,0,1,408.78,60.15Z"/><path class="cls-1" d="M434,60.16a1.5,1.5,0,0,1-1.5-1.5V41.76a1.5,1.5,0,0,1,3,0V58.66A1.5,1.5,0,0,1,434,60.16Z"/><circle class="cls-1" cx="421.79" cy="58.22" r="2.23"/><path class="cls-1" d="M470.78,60.08a1.5,1.5,0,0,1-1.5-1.5V41.31a1.5,1.5,0,1,1,3,0V58.58A1.5,1.5,0,0,1,470.78,60.08Z"/><circle class="cls-1" cx="447.05" cy="58.22" r="2.23"/><circle class="cls-1" cx="447.05" cy="49.02" r="1.84"/><circle class="cls-1" cx="433.96" cy="33.67" r="1.63"/><circle class="cls-1" cx="421.79" cy="49.69" r="1.84"/><circle class="cls-1" cx="396.66" cy="58.22" r="2.23"/><circle class="cls-1" cx="370.8" cy="58.22" r="2.23"/><circle class="cls-1" cx="370.8" cy="49.51" r="1.99"/><path class="cls-1" d="M369,40.55a1.84,1.84,0,1,1,1.84,1.84A1.84,1.84,0,0,1,369,40.55"/><circle class="cls-1" cx="383.76" cy="58.22" r="2.23"/><path class="cls-1" d="M494,60.08a1.5,1.5,0,0,1-1.5-1.5V48.9a1.5,1.5,0,0,1,3,0v9.68A1.5,1.5,0,0,1,494,60.08Z"/><path class="cls-1" d="M493.81,42.39a1.84,1.84,0,1,1,1.84-1.84,1.84,1.84,0,0,1-1.84,1.84"/><path class="cls-1" d="M493.94,32.87a1.5,1.5,0,0,1-1.5-1.5V24.13a1.5,1.5,0,0,1,3,0v7.24A1.5,1.5,0,0,1,493.94,32.87Z"/><circle class="cls-1" cx="493.81" cy="15.08" r="1.35"/><circle class="cls-1" cx="494.87" cy="123.01" r="1.35"/><circle class="cls-1" cx="444.52" cy="123.01" r="1.35"/><path class="cls-1" d="M444.53,116.92a1.5,1.5,0,0,1-1.5-1.5V98.29a1.5,1.5,0,0,1,3,0v17.13A1.5,1.5,0,0,1,444.53,116.92Z"/><path class="cls-1" d="M457,116.92a1.5,1.5,0,0,1-1.5-1.5V88.51a1.5,1.5,0,1,1,3,0v26.91A1.5,1.5,0,0,1,457,116.92Z"/><path class="cls-1" d="M482,99.59a1.5,1.5,0,0,1-1.5-1.5V88.37a1.5,1.5,0,0,1,3,0v9.72A1.5,1.5,0,0,1,482,99.59Z"/><path class="cls-1" d="M432.82,109a1.5,1.5,0,0,1-1.5-1.5V98.24a1.5,1.5,0,0,1,3,0v9.22A1.5,1.5,0,0,1,432.82,109Z"/><path class="cls-1" d="M494.84,116.65a1.5,1.5,0,0,1-1.5-1.5V88.38a1.5,1.5,0,1,1,3,0v26.78A1.5,1.5,0,0,1,494.84,116.65Z"/><circle class="cls-1" cx="444.53" cy="88.96" r="2.23"/><path class="cls-1" d="M409.75,109a1.5,1.5,0,0,1-1.5-1.5V97.64a1.5,1.5,0,0,1,3,0v9.83A1.5,1.5,0,0,1,409.75,109Z"/><circle class="cls-1" cx="409.71" cy="115.42" r="1.63"/><circle class="cls-1" cx="409.63" cy="88.96" r="2.23"/><circle class="cls-1" cx="409.71" cy="123.01" r="1.35"/><circle class="cls-1" cx="421.16" cy="88.96" r="2.23"/><circle class="cls-1" cx="432.72" cy="88.96" r="2.23"/><circle class="cls-1" cx="469.69" cy="88.96" r="2.23"/><circle class="cls-1" cx="482.23" cy="105.62" r="1.84"/><circle class="cls-1" cx="469.69" cy="97.27" r="1.84"/><path class="cls-1" d="M311.67,116.9a1.5,1.5,0,0,1-1.5-1.5V97.62a1.5,1.5,0,0,1,3,0V115.4A1.5,1.5,0,0,1,311.67,116.9Z"/><circle class="cls-1" cx="311.67" cy="88.92" r="2.23"/><circle class="cls-1" cx="334.97" cy="88.92" r="2.23"/><circle class="cls-1" cx="334.97" cy="97.64" r="1.99"/><path class="cls-1" d="M336.81,106.21a1.84,1.84,0,1,1-1.84-1.84,1.84,1.84,0,0,1,1.84,1.84"/><path class="cls-1" d="M323.5,108.09a1.5,1.5,0,0,1-1.5-1.5V88.32a1.5,1.5,0,1,1,3,0v18.28A1.5,1.5,0,0,1,323.5,108.09Z"/><path class="cls-1" d="M300.37,108.84a1.5,1.5,0,0,1-1.5-1.5V97.5a1.5,1.5,0,0,1,3,0v9.83A1.5,1.5,0,0,1,300.37,108.84Z"/><circle class="cls-1" cx="300.37" cy="88.92" r="2.23"/><circle class="cls-1" cx="385.49" cy="123.01" r="1.35"/><path class="cls-1" d="M385.49,109a1.5,1.5,0,0,1-1.5-1.5V88.2a1.5,1.5,0,0,1,3,0v19.26A1.5,1.5,0,0,1,385.49,109Z"/><path class="cls-1" d="M372.9,99a1.5,1.5,0,0,1-1.5-1.5V88.26a1.5,1.5,0,1,1,3,0v9.22A1.5,1.5,0,0,1,372.9,99Z"/><circle class="cls-1" cx="373.13" cy="106.21" r="1.84"/><path class="cls-1" d="M347.61,109a1.5,1.5,0,0,1-1.5-1.5V97.13a1.5,1.5,0,0,1,3,0v10.33A1.5,1.5,0,0,1,347.61,109Z"/><circle class="cls-1" cx="347.61" cy="115.42" r="1.63"/><circle class="cls-1" cx="347.61" cy="88.92" r="2.23"/><circle class="cls-1" cx="347.61" cy="122.91" r="1.35"/><path class="cls-1" d="M360.25,109a1.5,1.5,0,0,1-1.5-1.5V97.13a1.5,1.5,0,0,1,3,0v10.33A1.5,1.5,0,0,1,360.25,109Z"/><circle class="cls-1" cx="360.26" cy="88.92" r="2.23"/><circle class="cls-1" cx="385.49" cy="115.42" r="1.63"/><circle class="cls-1" cx="397.78" cy="88.96" r="2.23"/><circle class="cls-1" cx="397.78" cy="97.64" r="1.99"/><path class="cls-1" d="M399.46,106.21a1.84,1.84,0,1,1-1.84-1.84,1.84,1.84,0,0,1,1.84,1.84"/><circle class="cls-1" cx="311.67" cy="122.91" r="1.35"/><path class="cls-1" d="M263.09,99.48a1.84,1.84,0,1,1,1.84-1.84,1.84,1.84,0,0,1-1.84,1.84"/><path class="cls-1" d="M177.26,124.51a1.5,1.5,0,0,1-1.5-1.5V88.57a1.5,1.5,0,0,1,3,0V123A1.5,1.5,0,0,1,177.26,124.51Z"/><path class="cls-1" d="M200.63,107.41a1.5,1.5,0,0,1-1.5-1.5V88.49a1.5,1.5,0,0,1,3,0v17.42A1.5,1.5,0,0,1,200.63,107.41Z"/><path class="cls-1" d="M212.7,115a1.5,1.5,0,0,1-1.5-1.5v-7.3a1.5,1.5,0,0,1,3,0v7.3A1.5,1.5,0,0,1,212.7,115Z"/><path class="cls-1" d="M251,107.41a1.5,1.5,0,0,1-1.5-1.5V88.49a1.5,1.5,0,0,1,3,0v17.41A1.5,1.5,0,0,1,251,107.41Z"/><path class="cls-1" d="M225.79,106.88a1.5,1.5,0,0,1-1.5-1.5V88.49a1.5,1.5,0,0,1,3,0v16.89A1.5,1.5,0,0,1,225.79,106.88Z"/><circle class="cls-1" cx="237.96" cy="88.92" r="2.23"/><path class="cls-1" d="M189,107.33a1.5,1.5,0,0,1-1.5-1.5V88.57a1.5,1.5,0,0,1,3,0v17.27A1.5,1.5,0,0,1,189,107.33Z"/><circle class="cls-1" cx="212.7" cy="88.92" r="2.23"/><circle class="cls-1" cx="212.7" cy="98.12" r="1.84"/><circle class="cls-1" cx="225.79" cy="113.47" r="1.63"/><circle class="cls-1" cx="237.96" cy="97.46" r="1.84"/><circle class="cls-1" cx="263.09" cy="88.92" r="2.23"/><circle class="cls-1" cx="288.95" cy="88.92" r="2.23"/><circle class="cls-1" cx="288.95" cy="97.64" r="1.99"/><path class="cls-1" d="M290.79,106.59a1.84,1.84,0,1,1-1.84-1.84,1.84,1.84,0,0,1,1.84,1.84"/><circle class="cls-1" cx="275.99" cy="88.92" r="2.23"/><path class="cls-1" d="M165.73,99.75a1.5,1.5,0,0,1-1.5-1.5V88.57a1.5,1.5,0,0,1,3,0v9.68A1.5,1.5,0,0,1,165.73,99.75Z"/><path class="cls-1" d="M165.94,104.75a1.84,1.84,0,1,1-1.84,1.84,1.84,1.84,0,0,1,1.84-1.84"/><path class="cls-1" d="M165.81,124.51a1.5,1.5,0,0,1-1.5-1.5v-7.24a1.5,1.5,0,0,1,3,0V123A1.5,1.5,0,0,1,165.81,124.51Z"/><circle class="cls-1" cx="165.94" cy="132.06" r="1.35"/><path class="cls-2" d="M263.59,253.13a1.84,1.84,0,1,1,1.84-1.84,1.84,1.84,0,0,1-1.84,1.84"/><path class="cls-2" d="M177.76,278.16a1.5,1.5,0,0,1-1.5-1.5V242.21a1.5,1.5,0,0,1,3,0v34.45A1.5,1.5,0,0,1,177.76,278.16Z"/><path class="cls-2" d="M201.13,261.06a1.5,1.5,0,0,1-1.5-1.5V242.14a1.5,1.5,0,0,1,3,0v17.42A1.5,1.5,0,0,1,201.13,261.06Z"/><path class="cls-2" d="M213.2,268.62a1.5,1.5,0,0,1-1.5-1.5v-7.3a1.5,1.5,0,0,1,3,0v7.3A1.5,1.5,0,0,1,213.2,268.62Z"/><path class="cls-2" d="M251.27,261.05a1.5,1.5,0,0,1-1.5-1.5V242.14a1.5,1.5,0,0,1,3,0v17.41A1.5,1.5,0,0,1,251.27,261.05Z"/><path class="cls-2" d="M226.29,260.53a1.5,1.5,0,0,1-1.5-1.5V242.14a1.5,1.5,0,1,1,3,0V259A1.5,1.5,0,0,1,226.29,260.53Z"/><path class="cls-2" d="M238.46,240.34a2.23,2.23,0,1,1-2.23,2.23,2.23,2.23,0,0,1,2.23-2.23"/><path class="cls-2" d="M189.46,261a1.5,1.5,0,0,1-1.5-1.5V242.21a1.5,1.5,0,0,1,3,0v17.27A1.5,1.5,0,0,1,189.46,261Z"/><path class="cls-2" d="M213.2,240.34a2.23,2.23,0,1,1-2.23,2.23,2.23,2.23,0,0,1,2.23-2.23"/><circle class="cls-2" cx="213.2" cy="251.77" r="1.84"/><circle class="cls-2" cx="226.29" cy="267.12" r="1.63"/><circle class="cls-2" cx="238.46" cy="251.1" r="1.84"/><path class="cls-2" d="M263.59,240.34a2.23,2.23,0,1,1-2.23,2.23,2.23,2.23,0,0,1,2.23-2.23"/><path class="cls-2" d="M288.83,240.34a2.23,2.23,0,1,1-2.23,2.23,2.23,2.23,0,0,1,2.23-2.23"/><circle class="cls-2" cx="288.83" cy="251.28" r="1.99"/><path class="cls-2" d="M290.67,260.24a1.84,1.84,0,1,1-1.84-1.84,1.84,1.84,0,0,1,1.84,1.84"/><path class="cls-2" d="M276.49,240.34a2.23,2.23,0,1,1-2.23,2.23,2.23,2.23,0,0,1,2.23-2.23"/><path class="cls-2" d="M166.05,253.4a1.5,1.5,0,0,1-1.5-1.5v-9.68a1.5,1.5,0,0,1,3,0v9.68A1.5,1.5,0,0,1,166.05,253.4Z"/><path class="cls-2" d="M166.05,258.82a1.84,1.84,0,1,1-1.84,1.84,1.84,1.84,0,0,1,1.84-1.84"/><path class="cls-2" d="M166.05,278.16a1.5,1.5,0,0,1-1.5-1.5v-7.24a1.5,1.5,0,0,1,3,0v7.24A1.5,1.5,0,0,1,166.05,278.16Z"/><circle class="cls-2" cx="166.05" cy="285.71" r="1.35"/><path class="cls-3" d="M312.46,270.4a1.5,1.5,0,0,1-1.5-1.5V251.12a1.5,1.5,0,0,1,3,0V268.9A1.5,1.5,0,0,1,312.46,270.4Z"/><circle class="cls-3" cx="312.46" cy="242.42" r="2.23"/><circle class="cls-3" cx="335.77" cy="242.42" r="2.23"/><circle class="cls-3" cx="335.77" cy="251.14" r="1.99"/><path class="cls-3" d="M337.61,259.71a1.84,1.84,0,1,1-1.84-1.84,1.84,1.84,0,0,1,1.84,1.84"/><path class="cls-3" d="M324.29,261.59a1.5,1.5,0,0,1-1.5-1.5V241.82a1.5,1.5,0,0,1,3,0v18.28A1.5,1.5,0,0,1,324.29,261.59Z"/><path class="cls-3" d="M301.17,262.34a1.5,1.5,0,0,1-1.5-1.5V251a1.5,1.5,0,1,1,3,0v9.84A1.5,1.5,0,0,1,301.17,262.34Z"/><circle class="cls-3" cx="301.17" cy="242.42" r="2.23"/><circle class="cls-4" cx="386.29" cy="276.51" r="1.35"/><path class="cls-4" d="M386.29,262.46a1.5,1.5,0,0,1-1.5-1.5V241.7a1.5,1.5,0,0,1,3,0V261A1.5,1.5,0,0,1,386.29,262.46Z"/><path class="cls-4" d="M373.67,252.49a1.5,1.5,0,0,1-1.5-1.5v-9.22a1.5,1.5,0,1,1,3,0V251A1.5,1.5,0,0,1,373.67,252.49Z"/><circle class="cls-4" cx="373.92" cy="259.71" r="1.84"/><path class="cls-4" d="M348.41,262.46a1.5,1.5,0,0,1-1.5-1.5V250.63a1.5,1.5,0,1,1,3,0V261A1.5,1.5,0,0,1,348.41,262.46Z"/><circle class="cls-4" cx="348.41" cy="268.92" r="1.63"/><circle class="cls-4" cx="348.41" cy="242.42" r="2.23"/><circle class="cls-4" cx="348.41" cy="276.41" r="1.35"/><path class="cls-4" d="M361.05,262.46a1.5,1.5,0,0,1-1.5-1.5V250.63a1.5,1.5,0,1,1,3,0V261A1.5,1.5,0,0,1,361.05,262.46Z"/><circle class="cls-4" cx="361.05" cy="242.42" r="2.23"/><circle class="cls-4" cx="386.29" cy="268.92" r="1.63"/><circle class="cls-4" cx="398.57" cy="242.46" r="2.23"/><circle class="cls-4" cx="398.57" cy="251.14" r="1.99"/><path class="cls-4" d="M400.26,259.71a1.84,1.84,0,1,1-1.84-1.84,1.84,1.84,0,0,1,1.84,1.84"/><circle class="cls-3" cx="312.46" cy="276.41" r="1.35"/><circle class="cls-5" cx="498.33" cy="276.57" r="1.35"/><circle class="cls-5" cx="447.99" cy="276.57" r="1.35"/><path class="cls-5" d="M448,270.48a1.5,1.5,0,0,1-1.5-1.5V251.85a1.5,1.5,0,1,1,3,0V269A1.5,1.5,0,0,1,448,270.48Z"/><path class="cls-5" d="M460.45,270.48a1.5,1.5,0,0,1-1.5-1.5V242.07a1.5,1.5,0,0,1,3,0V269A1.5,1.5,0,0,1,460.45,270.48Z"/><path class="cls-5" d="M486,253.16a1.5,1.5,0,0,1-1.5-1.5v-9.72a1.5,1.5,0,0,1,3,0v9.72A1.5,1.5,0,0,1,486,253.16Z"/><path class="cls-5" d="M436.28,262.52a1.5,1.5,0,0,1-1.5-1.5V251.8a1.5,1.5,0,0,1,3,0V261A1.5,1.5,0,0,1,436.28,262.52Z"/><line class="cls-5" x1="498.31" y1="241.94" x2="498.31" y2="268.72"/><path class="cls-5" d="M498.31,270.21a1.5,1.5,0,0,1-1.5-1.5V241.94a1.5,1.5,0,1,1,3,0v26.78A1.5,1.5,0,0,1,498.31,270.21Z"/><circle class="cls-5" cx="447.99" cy="242.52" r="2.23"/><path class="cls-5" d="M413.21,262.52a1.5,1.5,0,0,1-1.5-1.5V251.2a1.5,1.5,0,0,1,3,0V261A1.5,1.5,0,0,1,413.21,262.52Z"/><circle class="cls-5" cx="413.17" cy="268.98" r="1.63"/><circle class="cls-5" cx="413.09" cy="242.52" r="2.23"/><circle class="cls-5" cx="413.17" cy="276.57" r="1.35"/><circle class="cls-5" cx="424.62" cy="242.52" r="2.23"/><circle class="cls-5" cx="436.19" cy="242.52" r="2.23"/><circle class="cls-5" cx="473.54" cy="242.52" r="2.23"/><circle class="cls-5" cx="485.99" cy="259.19" r="1.84"/><circle class="cls-5" cx="473.54" cy="250.83" r="1.84"/><path class="cls-2" d="M398.57,216.82a1.84,1.84,0,1,1-1.84,1.84,1.84,1.84,0,0,1,1.84-1.84"/><path class="cls-2" d="M486,229.23a1.5,1.5,0,0,1-1.5-1.5V193.29a1.5,1.5,0,0,1,3,0v34.45A1.5,1.5,0,0,1,486,229.23Z"/><path class="cls-2" d="M460.45,229.31a1.5,1.5,0,0,1-1.5-1.5V210.39a1.5,1.5,0,1,1,3,0v17.42A1.5,1.5,0,0,1,460.45,229.31Z"/><path class="cls-2" d="M448,211.89a1.5,1.5,0,0,1-1.5-1.5v-7.3a1.5,1.5,0,0,1,3,0v7.3A1.5,1.5,0,0,1,448,211.89Z"/><path class="cls-2" d="M413.09,229.57a1.5,1.5,0,0,1-1.5-1.5V210.66a1.5,1.5,0,0,1,3,0v17.42A1.5,1.5,0,0,1,413.09,229.57Z"/><path class="cls-2" d="M436.19,229.31a1.5,1.5,0,0,1-1.5-1.5V210.92a1.5,1.5,0,1,1,3,0v16.89A1.5,1.5,0,0,1,436.19,229.31Z"/><path class="cls-2" d="M424.62,229.54a2.23,2.23,0,1,1,2.23-2.23,2.23,2.23,0,0,1-2.23,2.23"/><path class="cls-2" d="M473.53,229.23a1.5,1.5,0,0,1-1.5-1.5V210.47a1.5,1.5,0,0,1,3,0v17.27A1.5,1.5,0,0,1,473.53,229.23Z"/><path class="cls-2" d="M448,229.54a2.23,2.23,0,1,1,2.23-2.23,2.23,2.23,0,0,1-2.23,2.23"/><circle class="cls-2" cx="447.99" cy="218.18" r="1.84"/><circle class="cls-2" cx="436.19" cy="202.83" r="1.63"/><circle class="cls-2" cx="425.01" cy="218.84" r="1.84"/><path class="cls-2" d="M398.55,229.61a2.23,2.23,0,1,1,2.23-2.23,2.23,2.23,0,0,1-2.23,2.23"/><path class="cls-2" d="M373.7,229.75a2.23,2.23,0,1,1,2.23-2.23,2.23,2.23,0,0,1-2.23,2.23"/><circle class="cls-2" cx="373.55" cy="218.66" r="1.99"/><path class="cls-2" d="M371.86,209.71a1.84,1.84,0,1,1,1.84,1.84,1.84,1.84,0,0,1-1.84-1.84"/><path class="cls-2" d="M386.29,229.61a2.23,2.23,0,1,1,2.23-2.23,2.23,2.23,0,0,1-2.23,2.23"/><path class="cls-2" d="M498.31,229.23a1.5,1.5,0,0,1-1.5-1.5v-9.68a1.5,1.5,0,0,1,3,0v9.68A1.5,1.5,0,0,1,498.31,229.23Z"/><path class="cls-2" d="M498.31,211.13a1.84,1.84,0,1,1,1.84-1.84,1.84,1.84,0,0,1-1.84,1.84"/><path class="cls-2" d="M498.31,202a1.5,1.5,0,0,1-1.5-1.5v-7.24a1.5,1.5,0,0,1,3,0v7.24A1.5,1.5,0,0,1,498.31,202Z"/><circle class="cls-2" cx="498.31" cy="184.24" r="1.35"/><path class="cls-3" d="M348.37,220.63a1.5,1.5,0,0,1-1.5-1.5V201.35a1.5,1.5,0,0,1,3,0v17.77A1.5,1.5,0,0,1,348.37,220.63Z"/><circle class="cls-3" cx="348.37" cy="228.13" r="2.23"/><circle class="cls-3" cx="324.29" cy="227.53" r="2.23"/><circle class="cls-3" cx="324.29" cy="219.31" r="1.99"/><path class="cls-3" d="M322.45,210.24a1.84,1.84,0,1,1,1.84,1.84,1.84,1.84,0,0,1-1.84-1.84"/><path class="cls-3" d="M335.76,229.63a1.5,1.5,0,0,1-1.5-1.5V209.85a1.5,1.5,0,1,1,3,0v18.28A1.5,1.5,0,0,1,335.76,229.63Z"/><path class="cls-3" d="M361.05,220.57a1.5,1.5,0,0,1-1.5-1.5v-9.83a1.5,1.5,0,0,1,3,0v9.83A1.5,1.5,0,0,1,361.05,220.57Z"/><circle class="cls-3" cx="360.97" cy="228.13" r="2.23"/><circle class="cls-4" cx="276.49" cy="193.54" r="1.35"/><path class="cls-4" d="M276.49,229.88a1.5,1.5,0,0,1-1.5-1.5V209.12a1.5,1.5,0,0,1,3,0v19.26A1.5,1.5,0,0,1,276.49,229.88Z"/><path class="cls-4" d="M288.83,229.68a1.5,1.5,0,0,1-1.5-1.5V219a1.5,1.5,0,0,1,3,0v9.22A1.5,1.5,0,0,1,288.83,229.68Z"/><circle class="cls-4" cx="288.83" cy="210.24" r="1.84"/><path class="cls-4" d="M312.46,220.81a1.5,1.5,0,0,1-1.5-1.5V209a1.5,1.5,0,1,1,3,0v10.33A1.5,1.5,0,0,1,312.46,220.81Z"/><circle class="cls-4" cx="312.46" cy="201.05" r="1.63"/><circle class="cls-4" cx="312.46" cy="227.53" r="2.23"/><circle class="cls-4" cx="312.46" cy="193.54" r="1.35"/><path class="cls-4" d="M301.17,220.81a1.5,1.5,0,0,1-1.5-1.5V209a1.5,1.5,0,0,1,3,0v10.33A1.5,1.5,0,0,1,301.17,220.81Z"/><circle class="cls-4" cx="301.09" cy="227.53" r="2.23"/><circle class="cls-4" cx="276.49" cy="201.03" r="1.63"/><circle class="cls-4" cx="263.59" cy="228.13" r="2.23"/><circle class="cls-4" cx="263.59" cy="218.99" r="1.99"/><path class="cls-4" d="M261.74,210.24a1.84,1.84,0,1,1,1.84,1.84,1.84,1.84,0,0,1-1.84-1.84"/><circle class="cls-3" cx="348.41" cy="193.54" r="1.35"/><circle class="cls-5" cx="166.05" cy="193.43" r="1.35"/><circle class="cls-5" cx="213.2" cy="193.43" r="1.35"/><path class="cls-5" d="M213.2,220a1.5,1.5,0,0,1-1.5-1.5V201.4a1.5,1.5,0,0,1,3,0v17.13A1.5,1.5,0,0,1,213.2,220Z"/><path class="cls-5" d="M201.13,229.58a1.5,1.5,0,0,1-1.5-1.5V201.16a1.5,1.5,0,0,1,3,0v26.91A1.5,1.5,0,0,1,201.13,229.58Z"/><path class="cls-5" d="M177.76,229.51a1.5,1.5,0,0,1-1.5-1.5v-9.72a1.5,1.5,0,0,1,3,0V228A1.5,1.5,0,0,1,177.76,229.51Z"/><path class="cls-5" d="M226.29,219.95a1.5,1.5,0,0,1-1.5-1.5v-9.22a1.5,1.5,0,0,1,3,0v9.22A1.5,1.5,0,0,1,226.29,219.95Z"/><line class="cls-5" x1="166.06" y1="228.01" x2="166.06" y2="201.23"/><path class="cls-5" d="M166.06,229.51a1.5,1.5,0,0,1-1.5-1.5V201.23a1.5,1.5,0,0,1,3,0V228A1.5,1.5,0,0,1,166.06,229.51Z"/><circle class="cls-5" cx="213.2" cy="227.43" r="2.23"/><path class="cls-5" d="M251.16,220.25a1.5,1.5,0,0,1-1.5-1.5v-9.83a1.5,1.5,0,0,1,3,0v9.83A1.5,1.5,0,0,1,251.16,220.25Z"/><circle class="cls-5" cx="251.2" cy="200.97" r="1.63"/><circle class="cls-5" cx="251.28" cy="227.43" r="2.23"/><circle class="cls-5" cx="251.2" cy="193.37" r="1.35"/><circle class="cls-5" cx="238.46" cy="227.43" r="2.23"/><circle class="cls-5" cx="226.29" cy="227.53" r="2.23"/><circle class="cls-5" cx="189.46" cy="227.49" r="2.23"/><circle class="cls-5" cx="177.76" cy="210.76" r="1.84"/><circle class="cls-5" cx="189.46" cy="219.12" r="1.84"/></svg>