<svg id="Layer_1" data-name="Layer 1" xmlns="http://www.w3.org/2000/svg" viewBox="0 0 162.4 80.69"><defs><style>.cls-1{fill:#231f20;}.cls-2{fill:#46b86d;}.cls-3{fill:#ef3f29;}.cls-4{fill:#fdb737;}.cls-5{fill:#48bdac;}</style></defs><title>Artboard 5</title><circle class="cls-1" cx="140.2" cy="79.34" r="1.35"/><circle class="cls-1" cx="89.86" cy="79.34" r="1.35"/><path class="cls-1" d="M89.86,73.25a1.5,1.5,0,0,1-1.5-1.5V54.62a1.5,1.5,0,1,1,3,0V71.75A1.5,1.5,0,0,1,89.86,73.25Z"/><path class="cls-1" d="M102.32,73.25a1.5,1.5,0,0,1-1.5-1.5V44.84a1.5,1.5,0,0,1,3,0V71.75A1.5,1.5,0,0,1,102.32,73.25Z"/><path class="cls-1" d="M127.73,55.92a1.5,1.5,0,0,1-1.5-1.5V44.7a1.5,1.5,0,0,1,3,0v9.72A1.5,1.5,0,0,1,127.73,55.92Z"/><path class="cls-1" d="M78.15,65.29a1.5,1.5,0,0,1-1.5-1.5V54.57a1.5,1.5,0,1,1,3,0v9.22A1.5,1.5,0,0,1,78.15,65.29Z"/><path class="cls-1" d="M140.18,73a1.5,1.5,0,0,1-1.5-1.5V44.71a1.5,1.5,0,0,1,3,0V71.48A1.5,1.5,0,0,1,140.18,73Z"/><circle class="cls-1" cx="89.86" cy="45.28" r="2.23"/><path class="cls-1" d="M55.08,65.29a1.5,1.5,0,0,1-1.5-1.5V54a1.5,1.5,0,0,1,3,0v9.83A1.5,1.5,0,0,1,55.08,65.29Z"/><circle class="cls-1" cx="55.04" cy="71.75" r="1.63"/><circle class="cls-1" cx="54.96" cy="45.28" r="2.23"/><circle class="cls-1" cx="55.04" cy="79.34" r="1.35"/><circle class="cls-1" cx="66.49" cy="45.28" r="2.23"/><circle class="cls-1" cx="78.06" cy="45.28" r="2.23"/><circle class="cls-1" cx="115.41" cy="45.28" r="2.23"/><circle class="cls-1" cx="127.73" cy="61.95" r="1.84"/><circle class="cls-1" cx="115.41" cy="53.6" r="1.84"/><path class="cls-1" d="M5.05,30.11A17,17,0,0,1,0,17.51,17,17,0,0,1,5.06,5.05,16.94,16.94,0,0,1,17.55,0,19,19,0,0,1,30.47,4.69L25.78,9.82A13,13,0,0,0,17.55,7a10.32,10.32,0,0,0-7.63,3A10.22,10.22,0,0,0,7,17.46,10.54,10.54,0,0,0,10,25.24a10.38,10.38,0,0,0,7.64,2.88,12.6,12.6,0,0,0,8.18-2.79l4.69,5.13a19,19,0,0,1-12.91,4.69A17.1,17.1,0,0,1,5.05,30.11Z"/><path class="cls-1" d="M42.4,35.16,56.46,0h7l14,35.13-7.48,0-2.11-5.39H52L49.9,35.16ZM60.17,9.38,54.82,22.74H65.37Z"/><path class="cls-1" d="M96.93,0V28.59h18.75v6.56H89.9V0Z"/><path class="cls-1" d="M134.81,0V28.59h18.75v6.56H127.78V0Z"/><circle class="cls-2" cx="159.66" cy="33.86" r="2.74"/><circle class="cls-3" cx="121.73" cy="33.86" r="2.74"/><circle class="cls-4" cx="83.8" cy="33.86" r="2.74"/><circle class="cls-5" cx="36.52" cy="33.86" r="2.74"/></svg>