<svg id="Layer_1" data-name="Layer 1" xmlns="http://www.w3.org/2000/svg" viewBox="0 0 668.42 192.74"><defs><style>.cls-1{fill:#fdb737;}.cls-2{fill:#ef3f29;}.cls-3{fill:#46b86d;}.cls-4{fill:#48bdac;}.cls-5{fill:#231f20;}</style></defs><title>Artboard 5</title><path class="cls-1" d="M101.26,158.48a1.5,1.5,0,0,1-1.5-1.5V139.21a1.5,1.5,0,0,1,3,0V157A1.5,1.5,0,0,1,101.26,158.48Z"/><circle class="cls-1" cx="101.26" cy="130.51" r="2.23"/><circle class="cls-1" cx="124.56" cy="130.51" r="2.23"/><circle class="cls-1" cx="124.56" cy="139.22" r="1.99"/><path class="cls-1" d="M126.4,147.79a1.84,1.84,0,1,1-1.84-1.84,1.84,1.84,0,0,1,1.84,1.84"/><path class="cls-1" d="M113.08,149.68a1.5,1.5,0,0,1-1.5-1.5V129.9a1.5,1.5,0,0,1,3,0v18.28A1.5,1.5,0,0,1,113.08,149.68Z"/><path class="cls-1" d="M90,150.43a1.5,1.5,0,0,1-1.5-1.5v-9.83a1.5,1.5,0,0,1,3,0v9.83A1.5,1.5,0,0,1,90,150.43Z"/><circle class="cls-1" cx="89.96" cy="130.51" r="2.23"/><circle class="cls-2" cx="175.08" cy="164.6" r="1.35"/><path class="cls-2" d="M175.08,150.55a1.5,1.5,0,0,1-1.5-1.5V129.78a1.5,1.5,0,0,1,3,0V149A1.5,1.5,0,0,1,175.08,150.55Z"/><path class="cls-2" d="M162.46,140.57a1.5,1.5,0,0,1-1.5-1.5v-9.22a1.5,1.5,0,0,1,3,0v9.22A1.5,1.5,0,0,1,162.46,140.57Z"/><circle class="cls-2" cx="162.72" cy="147.79" r="1.84"/><path class="cls-2" d="M137.2,150.55a1.5,1.5,0,0,1-1.5-1.5V138.72a1.5,1.5,0,0,1,3,0V149A1.5,1.5,0,0,1,137.2,150.55Z"/><circle class="cls-2" cx="137.2" cy="157.01" r="1.63"/><circle class="cls-2" cx="137.2" cy="130.5" r="2.23"/><circle class="cls-2" cx="137.2" cy="164.49" r="1.35"/><path class="cls-2" d="M149.85,150.55a1.5,1.5,0,0,1-1.5-1.5V138.72a1.5,1.5,0,0,1,3,0V149A1.5,1.5,0,0,1,149.85,150.55Z"/><circle class="cls-2" cx="149.85" cy="130.5" r="2.23"/><circle class="cls-2" cx="175.08" cy="157.01" r="1.63"/><circle class="cls-2" cx="187.37" cy="130.54" r="2.23"/><circle class="cls-2" cx="187.37" cy="139.22" r="1.99"/><path class="cls-2" d="M189.05,147.79a1.84,1.84,0,1,1-1.84-1.84,1.84,1.84,0,0,1,1.84,1.84"/><circle class="cls-1" cx="101.26" cy="164.49" r="1.35"/><path class="cls-1" d="M175.08,112.41a1.5,1.5,0,0,1-1.5-1.5V93.13a1.5,1.5,0,1,1,3,0v17.77A1.5,1.5,0,0,1,175.08,112.41Z"/><circle class="cls-1" cx="175.08" cy="119.57" r="2.23"/><circle class="cls-1" cx="149.85" cy="119.61" r="2.23"/><circle class="cls-1" cx="149.85" cy="111.07" r="1.99"/><path class="cls-1" d="M148,102.32a1.84,1.84,0,1,1,1.84,1.84,1.84,1.84,0,0,1-1.84-1.84"/><path class="cls-1" d="M162.46,121.71a1.5,1.5,0,0,1-1.5-1.5V101.93a1.5,1.5,0,0,1,3,0v18.28A1.5,1.5,0,0,1,162.46,121.71Z"/><path class="cls-1" d="M187.37,112.52a1.5,1.5,0,0,1-1.5-1.5v-9.84a1.5,1.5,0,1,1,3,0V111A1.5,1.5,0,0,1,187.37,112.52Z"/><circle class="cls-1" cx="187.37" cy="119.61" r="2.23"/><circle class="cls-2" cx="101.31" cy="85.51" r="1.35"/><path class="cls-2" d="M101.31,121.83a1.5,1.5,0,0,1-1.5-1.5V101.06a1.5,1.5,0,1,1,3,0v19.26A1.5,1.5,0,0,1,101.31,121.83Z"/><path class="cls-2" d="M113.23,121.76a1.5,1.5,0,0,1-1.5-1.5V111a1.5,1.5,0,0,1,3,0v9.22A1.5,1.5,0,0,1,113.23,121.76Z"/><circle class="cls-2" cx="113.23" cy="102.32" r="1.84"/><path class="cls-2" d="M137.2,113.33a1.5,1.5,0,0,1-1.5-1.5V101.5a1.5,1.5,0,0,1,3,0v10.33A1.5,1.5,0,0,1,137.2,113.33Z"/><circle class="cls-2" cx="137.48" cy="93.11" r="1.63"/><circle class="cls-2" cx="137.2" cy="119.61" r="2.23"/><circle class="cls-2" cx="137.48" cy="85.62" r="1.35"/><path class="cls-2" d="M124.56,113.33a1.5,1.5,0,0,1-1.5-1.5V101.5a1.5,1.5,0,0,1,3,0v10.33A1.5,1.5,0,0,1,124.56,113.33Z"/><circle class="cls-2" cx="124.56" cy="119.61" r="2.23"/><circle class="cls-2" cx="101.31" cy="93.11" r="1.63"/><circle class="cls-2" cx="89.85" cy="119.57" r="2.23"/><circle class="cls-2" cx="89.85" cy="110.89" r="1.99"/><path class="cls-2" d="M88.17,102.32A1.84,1.84,0,1,1,90,104.16a1.84,1.84,0,0,1-1.84-1.84"/><circle class="cls-1" cx="175.08" cy="85.51" r="1.35"/><circle class="cls-3" cx="359.87" cy="163.42" r="1.35"/><circle class="cls-3" cx="309.52" cy="163.42" r="1.35"/><path class="cls-3" d="M309.53,157.33a1.5,1.5,0,0,1-1.5-1.5V138.7a1.5,1.5,0,0,1,3,0v17.13A1.5,1.5,0,0,1,309.53,157.33Z"/><path class="cls-3" d="M322,157.33a1.5,1.5,0,0,1-1.5-1.5V128.91a1.5,1.5,0,0,1,3,0v26.91A1.5,1.5,0,0,1,322,157.33Z"/><path class="cls-3" d="M347.52,140a1.5,1.5,0,0,1-1.5-1.5v-9.72a1.5,1.5,0,1,1,3,0v9.72A1.5,1.5,0,0,1,347.52,140Z"/><path class="cls-3" d="M297.81,149.37a1.5,1.5,0,0,1-1.5-1.5v-9.22a1.5,1.5,0,0,1,3,0v9.22A1.5,1.5,0,0,1,297.81,149.37Z"/><line class="cls-3" x1="359.84" y1="128.78" x2="359.84" y2="155.56"/><path class="cls-3" d="M359.84,157.06a1.5,1.5,0,0,1-1.5-1.5V128.78a1.5,1.5,0,0,1,3,0v26.78A1.5,1.5,0,0,1,359.84,157.06Z"/><circle class="cls-3" cx="309.53" cy="129.36" r="2.23"/><path class="cls-3" d="M274.75,149.37a1.5,1.5,0,0,1-1.5-1.5V138a1.5,1.5,0,0,1,3,0v9.83A1.5,1.5,0,0,1,274.75,149.37Z"/><circle class="cls-3" cx="274.7" cy="155.83" r="1.63"/><circle class="cls-3" cx="274.62" cy="129.36" r="2.23"/><circle class="cls-3" cx="274.7" cy="163.42" r="1.35"/><circle class="cls-3" cx="286.16" cy="129.36" r="2.23"/><circle class="cls-3" cx="297.72" cy="129.36" r="2.23"/><circle class="cls-3" cx="335.07" cy="129.36" r="2.23"/><circle class="cls-3" cx="347.52" cy="146.03" r="1.84"/><circle class="cls-3" cx="335.07" cy="137.68" r="1.84"/><circle class="cls-3" cx="274.78" cy="84.03" r="1.35"/><circle class="cls-3" cx="321.98" cy="84.03" r="1.35"/><path class="cls-3" d="M322,110.26a1.5,1.5,0,0,1-1.5-1.5V91.63a1.5,1.5,0,0,1,3,0v17.13A1.5,1.5,0,0,1,322,110.26Z"/><path class="cls-3" d="M309.53,120a1.5,1.5,0,0,1-1.5-1.5V91.63a1.5,1.5,0,0,1,3,0v26.91A1.5,1.5,0,0,1,309.53,120Z"/><path class="cls-3" d="M286.16,120.17a1.5,1.5,0,0,1-1.5-1.5V109a1.5,1.5,0,1,1,3,0v9.72A1.5,1.5,0,0,1,286.16,120.17Z"/><path class="cls-3" d="M335.07,110.31a1.5,1.5,0,0,1-1.5-1.5V99.58a1.5,1.5,0,1,1,3,0v9.22A1.5,1.5,0,0,1,335.07,110.31Z"/><line class="cls-3" x1="274.75" y1="118.67" x2="274.75" y2="91.89"/><path class="cls-3" d="M274.75,120.17a1.5,1.5,0,0,1-1.5-1.5V91.89a1.5,1.5,0,1,1,3,0v26.78A1.5,1.5,0,0,1,274.75,120.17Z"/><circle class="cls-3" cx="321.98" cy="118.54" r="2.23"/><path class="cls-3" d="M359.84,110.91a1.5,1.5,0,0,1-1.5-1.5V99.58a1.5,1.5,0,1,1,3,0v9.83A1.5,1.5,0,0,1,359.84,110.91Z"/><circle class="cls-3" cx="359.84" cy="91.51" r="1.63"/><circle class="cls-3" cx="359.84" cy="118.09" r="2.23"/><circle class="cls-3" cx="359.94" cy="84.09" r="1.35"/><circle class="cls-3" cx="347.52" cy="118.09" r="2.23"/><circle class="cls-3" cx="335.07" cy="118.09" r="2.23"/><circle class="cls-3" cx="297.72" cy="118.09" r="2.23"/><circle class="cls-3" cx="286.16" cy="101.42" r="1.84"/><circle class="cls-3" cx="297.72" cy="109.78" r="1.84"/><path class="cls-4" d="M544.72,135.46a1.84,1.84,0,1,1,1.84-1.84,1.84,1.84,0,0,1-1.84,1.84"/><path class="cls-4" d="M458.89,160.49a1.5,1.5,0,0,1-1.5-1.5V124.54a1.5,1.5,0,1,1,3,0V159A1.5,1.5,0,0,1,458.89,160.49Z"/><path class="cls-4" d="M482.26,143.39a1.5,1.5,0,0,1-1.5-1.5V124.47a1.5,1.5,0,1,1,3,0v17.42A1.5,1.5,0,0,1,482.26,143.39Z"/><path class="cls-4" d="M494.33,151a1.5,1.5,0,0,1-1.5-1.5v-7.3a1.5,1.5,0,1,1,3,0v7.3A1.5,1.5,0,0,1,494.33,151Z"/><path class="cls-4" d="M532.4,143.39a1.5,1.5,0,0,1-1.5-1.5V124.47a1.5,1.5,0,0,1,3,0v17.42A1.5,1.5,0,0,1,532.4,143.39Z"/><path class="cls-4" d="M507.42,142.86a1.5,1.5,0,0,1-1.5-1.5V124.47a1.5,1.5,0,0,1,3,0v16.89A1.5,1.5,0,0,1,507.42,142.86Z"/><path class="cls-4" d="M519.59,122.67a2.23,2.23,0,1,1-2.23,2.23,2.23,2.23,0,0,1,2.23-2.23"/><path class="cls-4" d="M470.6,143.31a1.5,1.5,0,0,1-1.5-1.5V124.54a1.5,1.5,0,0,1,3,0v17.27A1.5,1.5,0,0,1,470.6,143.31Z"/><path class="cls-4" d="M494.33,122.67a2.23,2.23,0,1,1-2.23,2.23,2.23,2.23,0,0,1,2.23-2.23"/><circle class="cls-4" cx="494.33" cy="134.1" r="1.84"/><circle class="cls-4" cx="507.42" cy="149.45" r="1.63"/><circle class="cls-4" cx="519.59" cy="133.43" r="1.84"/><path class="cls-4" d="M544.72,122.67a2.23,2.23,0,1,1-2.23,2.23,2.23,2.23,0,0,1,2.23-2.23"/><path class="cls-4" d="M570,122.67a2.23,2.23,0,1,1-2.23,2.23,2.23,2.23,0,0,1,2.23-2.23"/><circle class="cls-4" cx="569.96" cy="133.62" r="1.99"/><path class="cls-4" d="M571.8,142.57a1.84,1.84,0,1,1-1.84-1.84,1.84,1.84,0,0,1,1.84,1.84"/><path class="cls-4" d="M557.62,122.67a2.23,2.23,0,1,1-2.23,2.23,2.23,2.23,0,0,1,2.23-2.23"/><path class="cls-4" d="M447.19,135.73a1.5,1.5,0,0,1-1.5-1.5v-9.68a1.5,1.5,0,1,1,3,0v9.68A1.5,1.5,0,0,1,447.19,135.73Z"/><path class="cls-4" d="M447.19,141.15a1.84,1.84,0,1,1-1.84,1.84,1.84,1.84,0,0,1,1.84-1.84"/><path class="cls-4" d="M447.19,160.49a1.5,1.5,0,0,1-1.5-1.5v-7.24a1.5,1.5,0,0,1,3,0V159A1.5,1.5,0,0,1,447.19,160.49Z"/><circle class="cls-4" cx="447.19" cy="168.04" r="1.35"/><path class="cls-4" d="M470.59,103.9a1.84,1.84,0,1,1-1.84,1.84,1.84,1.84,0,0,1,1.84-1.84"/><path class="cls-4" d="M557.62,116.13a1.5,1.5,0,0,1-1.5-1.5V80.19a1.5,1.5,0,0,1,3,0v34.45A1.5,1.5,0,0,1,557.62,116.13Z"/><path class="cls-4" d="M532.7,116.48a1.5,1.5,0,0,1-1.5-1.5V97.55a1.5,1.5,0,1,1,3,0V115A1.5,1.5,0,0,1,532.7,116.48Z"/><path class="cls-4" d="M519.59,98.52a1.5,1.5,0,0,1-1.5-1.5v-7.3a1.5,1.5,0,0,1,3,0V97A1.5,1.5,0,0,1,519.59,98.52Z"/><path class="cls-4" d="M482.26,116.47a1.5,1.5,0,0,1-1.5-1.5V97.56a1.5,1.5,0,1,1,3,0V115A1.5,1.5,0,0,1,482.26,116.47Z"/><path class="cls-4" d="M507.42,116.21a1.5,1.5,0,0,1-1.5-1.5V97.82a1.5,1.5,0,0,1,3,0v16.89A1.5,1.5,0,0,1,507.42,116.21Z"/><path class="cls-4" d="M494.33,116.77a2.23,2.23,0,1,1,2.23-2.23,2.23,2.23,0,0,1-2.23,2.23"/><path class="cls-4" d="M544.72,116.59a1.5,1.5,0,0,1-1.5-1.5V97.82a1.5,1.5,0,1,1,3,0v17.27A1.5,1.5,0,0,1,544.72,116.59Z"/><path class="cls-4" d="M519.59,116.51a2.23,2.23,0,1,1,2.23-2.23,2.23,2.23,0,0,1-2.23,2.23"/><circle class="cls-4" cx="519.59" cy="105.08" r="1.84"/><circle class="cls-4" cx="507.42" cy="89.73" r="1.63"/><circle class="cls-4" cx="494.33" cy="106" r="1.84"/><path class="cls-4" d="M470.59,116.51a2.23,2.23,0,1,1,2.23-2.23,2.23,2.23,0,0,1-2.23,2.23"/><path class="cls-4" d="M447.57,116.51a2.23,2.23,0,1,1,2.23-2.23,2.23,2.23,0,0,1-2.23,2.23"/><circle class="cls-4" cx="447.57" cy="105.56" r="1.99"/><path class="cls-4" d="M445.73,96.61a1.84,1.84,0,1,1,1.84,1.84,1.84,1.84,0,0,1-1.84-1.84"/><path class="cls-4" d="M458.89,116.51a2.23,2.23,0,1,1,2.23-2.23,2.23,2.23,0,0,1-2.23,2.23"/><path class="cls-4" d="M570,116.13a1.5,1.5,0,0,1-1.5-1.5V105a1.5,1.5,0,1,1,3,0v9.68A1.5,1.5,0,0,1,570,116.13Z"/><path class="cls-4" d="M570,98a1.84,1.84,0,1,1,1.84-1.84A1.84,1.84,0,0,1,570,98"/><path class="cls-4" d="M570,88.92a1.5,1.5,0,0,1-1.5-1.5V80.19a1.5,1.5,0,0,1,3,0v7.24A1.5,1.5,0,0,1,570,88.92Z"/><circle class="cls-4" cx="569.96" cy="71.14" r="1.35"/><path class="cls-5" d="M277.75,35.83V27.29h.91V35H283v.82Z"/><path class="cls-5" d="M285,33.11c0,1.29.61,2,1.74,2a1.94,1.94,0,0,0,1.55-.67l.59.52a2.7,2.7,0,0,1-2.16.91c-1.56,0-2.58-.94-2.58-3,0-1.91.92-3,2.42-3S289,31,289,32.71v.4Zm2.94-1.63a1.52,1.52,0,0,0-2.76,0,2.48,2.48,0,0,0-.18,1h3.12A2.48,2.48,0,0,0,287.95,31.47Z"/><path class="cls-5" d="M294.18,35.83v-.56a2.07,2.07,0,0,1-1.7.63,2.1,2.1,0,0,1-1.67-.54,1.7,1.7,0,0,1-.44-1.2c0-1,.72-1.7,2-1.7h1.78v-.56c0-.86-.43-1.29-1.51-1.29a1.55,1.55,0,0,0-1.49.67l-.59-.54a2.29,2.29,0,0,1,2.09-.87c1.58,0,2.36.68,2.36,2v4Zm0-2.72h-1.66c-.89,0-1.32.36-1.32,1s.42,1,1.36,1a1.73,1.73,0,0,0,1.32-.4,1.36,1.36,0,0,0,.3-1Z"/><path class="cls-5" d="M300.44,31.05a1.23,1.23,0,0,0-1-.43A1.44,1.44,0,0,0,298,32.21v3.62h-.86v-5.9H298v.72a2,2,0,0,1,1.66-.79,1.82,1.82,0,0,1,1.42.55Z"/><path class="cls-5" d="M306,35.83V32.19a1.46,1.46,0,1,0-2.91,0v3.63h-.86v-5.9h.86v.65a2.13,2.13,0,0,1,1.66-.72,2.07,2.07,0,0,1,1.51.55,2.18,2.18,0,0,1,.61,1.64v3.78Z"/><path class="cls-5" d="M308.89,28.25v-1h1v1Zm0,7.58v-5.9h.86v5.9Z"/><path class="cls-5" d="M315.75,35.83V32.19a1.46,1.46,0,1,0-2.92,0v3.63H312v-5.9h.86v.65a2.13,2.13,0,0,1,1.66-.72,2.07,2.07,0,0,1,1.51.55,2.18,2.18,0,0,1,.61,1.64v3.78Z"/><path class="cls-5" d="M320.62,38.54a2.6,2.6,0,0,1-2-.79l.56-.55a1.82,1.82,0,0,0,1.42.59c1.14,0,1.62-.8,1.62-1.81V35a1.9,1.9,0,0,1-1.66.77,2,2,0,0,1-1.43-.53,3.39,3.39,0,0,1-.72-2.46,3.39,3.39,0,0,1,.72-2.46,2,2,0,0,1,1.44-.52,1.86,1.86,0,0,1,1.66.77v-.7h.85V36A2.35,2.35,0,0,1,320.62,38.54Zm.13-7.92c-1.28,0-1.48,1.1-1.48,2.21s.19,2.21,1.48,2.21,1.46-1.1,1.46-2.21S322,30.62,320.75,30.62Z"/><path class="cls-5" d="M93.53,35.83l-.68-1.93H89.12l-.68,1.93h-1l3.14-8.54h.77l3.13,8.54ZM91,28.6l-1.61,4.51h3.19Z"/><path class="cls-5" d="M99,31.06a1.23,1.23,0,0,0-1-.43,1.44,1.44,0,0,0-1.42,1.58v3.62h-.86v-5.9h.86v.72a2,2,0,0,1,1.65-.79,1.82,1.82,0,0,1,1.42.55Z"/><path class="cls-5" d="M102.44,35.83a1.45,1.45,0,0,1-1.51-1.58V30.62h-.74V30h.74V28.12h.86V30H103v.66h-1.26v3.6c0,.54.25.86.8.86H103v.74Z"/><path class="cls-5" d="M106.62,35.9A3.26,3.26,0,0,1,104.2,35l.58-.58a2.41,2.41,0,0,0,1.83.68c1,0,1.57-.35,1.57-1,0-.52-.3-.8-1-.86l-1-.08c-1.15-.1-1.76-.61-1.76-1.58s.91-1.73,2.17-1.73a3.34,3.34,0,0,1,2.12.64l-.56.56a2.52,2.52,0,0,0-1.57-.47c-.86,0-1.32.37-1.32,1s.29.8,1,.86l.95.08c1,.1,1.74.49,1.74,1.6S108.05,35.9,106.62,35.9Z"/><path class="cls-5" d="M113.86,35.83V27.29h.91V35h4.37v.82Z"/><path class="cls-5" d="M123.93,35.83v-.56a2.07,2.07,0,0,1-1.7.64,2.1,2.1,0,0,1-1.67-.54,1.7,1.7,0,0,1-.44-1.2c0-1,.72-1.7,2-1.7h1.78V31.9c0-.86-.43-1.3-1.51-1.3a1.55,1.55,0,0,0-1.49.67l-.59-.54a2.29,2.29,0,0,1,2.09-.87c1.58,0,2.36.68,2.36,2v4Zm0-2.72h-1.66c-.89,0-1.32.36-1.32,1s.42,1,1.36,1a1.73,1.73,0,0,0,1.32-.4,1.36,1.36,0,0,0,.3-1Z"/><path class="cls-5" d="M130.67,35.83V32.19a1.37,1.37,0,0,0-1.45-1.57,1.39,1.39,0,0,0-1.46,1.57v3.63h-.86v-5.9h.86v.65a2.13,2.13,0,0,1,1.65-.72,2.07,2.07,0,0,1,1.51.55,2.18,2.18,0,0,1,.61,1.64v3.78Z"/><path class="cls-5" d="M137.16,35.83v-.71a1.91,1.91,0,0,1-1.68.78,2.06,2.06,0,0,1-1.44-.52,3.53,3.53,0,0,1-.72-2.51,3.52,3.52,0,0,1,.72-2.51,2.06,2.06,0,0,1,1.44-.52,1.9,1.9,0,0,1,1.67.76V27.29H138v8.54Zm-1.49-5.21c-1.28,0-1.49,1.1-1.49,2.25s.2,2.25,1.49,2.25,1.48-1.1,1.48-2.25S137,30.62,135.68,30.62Z"/><path class="cls-5" d="M142,35.9a3.26,3.26,0,0,1-2.42-.85l.58-.58a2.41,2.41,0,0,0,1.83.68c1,0,1.57-.35,1.57-1,0-.52-.3-.8-1-.86l-1-.08c-1.15-.1-1.76-.61-1.76-1.58s.91-1.73,2.17-1.73a3.34,3.34,0,0,1,2.12.64l-.56.56a2.52,2.52,0,0,0-1.57-.47c-.86,0-1.32.37-1.32,1s.29.8,1,.86l.95.08c1,.1,1.74.49,1.74,1.6S143.46,35.9,142,35.9Z"/><path class="cls-5" d="M446.63,35.9a3,3,0,0,1-2.18-.89c-.8-.8-.8-1.64-.8-3.45s0-2.65.8-3.45a3,3,0,0,1,2.18-.89,2.88,2.88,0,0,1,3,2.54h-.94a2,2,0,0,0-2-1.73,2.06,2.06,0,0,0-1.48.6c-.54.55-.6,1.14-.6,2.93s.06,2.37.6,2.93a2.09,2.09,0,0,0,3.53-1.13h.91A2.88,2.88,0,0,1,446.63,35.9Z"/><path class="cls-5" d="M455.25,35.23a2.47,2.47,0,0,1-3.38,0,3.17,3.17,0,0,1-.72-2.35,3.17,3.17,0,0,1,.72-2.35,2.47,2.47,0,0,1,3.38,0,3.17,3.17,0,0,1,.72,2.35A3.17,3.17,0,0,1,455.25,35.23Zm-.61-4.17a1.51,1.51,0,0,0-1.08-.43,1.48,1.48,0,0,0-1.07.43,2.58,2.58,0,0,0-.48,1.82,2.57,2.57,0,0,0,.48,1.82,1.48,1.48,0,0,0,1.07.43,1.51,1.51,0,0,0,1.08-.43,2.57,2.57,0,0,0,.47-1.82A2.57,2.57,0,0,0,454.63,31.05Z"/><path class="cls-5" d="M465.39,35.83V32.19a1.46,1.46,0,1,0-2.93-.1v3.73h-.86V32.19a1.37,1.37,0,0,0-1.45-1.57,1.4,1.4,0,0,0-1.47,1.57v3.63h-.86v-5.9h.86v.65a2.15,2.15,0,0,1,1.67-.72,1.94,1.94,0,0,1,1.81,1,2.26,2.26,0,0,1,1.94-1,2.15,2.15,0,0,1,1.52.55,2.19,2.19,0,0,1,.64,1.64v3.78Z"/><path class="cls-5" d="M475.94,35.83V32.19a1.46,1.46,0,1,0-2.93-.1v3.73h-.86V32.19a1.37,1.37,0,0,0-1.45-1.57,1.4,1.4,0,0,0-1.47,1.57v3.63h-.86v-5.9h.86v.65a2.15,2.15,0,0,1,1.67-.72,1.94,1.94,0,0,1,1.81,1,2.26,2.26,0,0,1,1.94-1,2.15,2.15,0,0,1,1.52.55,2.19,2.19,0,0,1,.64,1.64v3.78Z"/><path class="cls-5" d="M482.64,35.83v-.66a2.16,2.16,0,0,1-1.67.73,2.1,2.1,0,0,1-1.52-.55,2.2,2.2,0,0,1-.6-1.65V29.93h.86v3.63c0,1,.55,1.57,1.44,1.57a1.4,1.4,0,0,0,1.48-1.57V29.93h.86v5.9Z"/><path class="cls-5" d="M489.43,35.83V32.19a1.46,1.46,0,1,0-2.91,0v3.63h-.86v-5.9h.86v.65a2.12,2.12,0,0,1,1.66-.72,2.06,2.06,0,0,1,1.51.55A2.18,2.18,0,0,1,490.3,32v3.78Z"/><path class="cls-5" d="M492.35,28.25v-1h1v1Zm0,7.58v-5.9h.86v5.9Z"/><path class="cls-5" d="M497.09,35.83a1.45,1.45,0,0,1-1.51-1.58V30.62h-.74V30h.74V28.12h.86V30h1.26v.66h-1.26v3.6c0,.54.25.86.8.86h.46v.74Z"/><path class="cls-5" d="M499.37,28.25v-1h1v1Zm0,7.58v-5.9h.86v5.9Z"/><path class="cls-5" d="M503,33.11c0,1.29.61,2,1.74,2a1.94,1.94,0,0,0,1.55-.67l.59.52a2.7,2.7,0,0,1-2.16.91c-1.56,0-2.58-.94-2.58-3,0-1.91.92-3,2.42-3S507,31,507,32.71v.4Zm2.94-1.63a1.52,1.52,0,0,0-2.76,0,2.47,2.47,0,0,0-.18,1h3.12A2.49,2.49,0,0,0,505.93,31.47Z"/><path class="cls-5" d="M510.67,35.9a3.25,3.25,0,0,1-2.42-.85l.58-.58a2.42,2.42,0,0,0,1.83.68c1,0,1.57-.35,1.57-1,0-.52-.3-.8-1-.86l-1-.08c-1.15-.1-1.76-.61-1.76-1.58s.91-1.73,2.17-1.73a3.33,3.33,0,0,1,2.12.64l-.56.56a2.51,2.51,0,0,0-1.57-.47c-.86,0-1.32.37-1.32,1s.29.8,1,.86l.95.08c1,.1,1.74.49,1.74,1.59S512.1,35.9,510.67,35.9Z"/></svg>