<svg id="Layer_1" data-name="Layer 1" xmlns="http://www.w3.org/2000/svg" viewBox="0 0 176.31 62.52"><defs><style>.cls-1{fill:#231f20;}</style></defs><title>Artboard 4</title><path class="cls-1" d="M5.05,41.42A17,17,0,0,1,0,28.82,17.27,17.27,0,0,1,17.55,11.32,19,19,0,0,1,30.47,16l-4.69,5.13a13,13,0,0,0-8.23-2.81A10,10,0,0,0,7,28.78,10.54,10.54,0,0,0,10,36.56a10.38,10.38,0,0,0,7.64,2.88,12.6,12.6,0,0,0,8.18-2.79l4.69,5.13a19,19,0,0,1-12.91,4.69A17.1,17.1,0,0,1,5.05,41.42Z"/><path class="cls-1" d="M46.34,46.46,60.4,11.3h7l14,35.13-7.48,0-2.11-5.39H55.95l-2.11,5.39ZM64.1,20.67,58.76,34H69.31Z"/><path class="cls-1" d="M108.6,11.32V39.91h18.75v6.56H101.57V11.32Z"/><path class="cls-1" d="M157.56,11.32V39.91h18.75v6.56H150.53V11.32Z"/><circle class="cls-1" cx="38.4" cy="28.89" r="4.5"/><circle class="cls-1" cx="88.84" cy="27.38" r="4.5"/><circle class="cls-1" cx="140.63" cy="27.38" r="4.5"/><circle class="cls-1" cx="46.77" cy="16.58" r="3.87"/><circle class="cls-1" cx="56.44" cy="8.56" r="2.74"/><circle class="cls-1" cx="63.9" cy="1.86" r="1.86"/><circle class="cls-1" cx="72.91" cy="8.56" r="2.74"/><circle class="cls-1" cx="81.47" cy="16.58" r="3.87"/><circle class="cls-1" cx="105.47" cy="60.67" r="1.86"/><circle class="cls-1" cx="98.83" cy="54.22" r="2.74"/><circle class="cls-1" cx="92.72" cy="42.58" r="3.87"/><circle class="cls-1" cx="114.6" cy="58.81" r="2.74"/><circle class="cls-1" cx="125.75" cy="54.22" r="3.87"/><circle class="cls-1" cx="137.41" cy="42.58" r="4.5"/></svg>