<?xml version="1.0" standalone="no"?>
<!DOCTYPE svg PUBLIC "-//W3C//DTD SVG 20010904//EN"
 "http://www.w3.org/TR/2001/REC-SVG-20010904/DTD/svg10.dtd">
<svg version="1.0" xmlns="http://www.w3.org/2000/svg"
 width="260.000000pt" height="260.000000pt" viewBox="0 0 260.000000 260.000000"
 preserveAspectRatio="xMidYMid meet">
<metadata>
Created by potrace 1.11, written by Peter Selinger 2001-2013
</metadata>
<g transform="translate(0.000000,260.000000) scale(0.100000,-0.100000)"
fill="#000000" stroke="none">
<path d="M1135 2469 c-252 -37 -482 -153 -666 -338 -466 -465 -466 -1197 0
-1662 465 -466 1197 -466 1662 0 400 399 463 1003 155 1476 -76 117 -224 265
-341 341 -240 156 -536 223 -810 183z m587 -627 l82 -42 23 22 c12 11 25 29
29 40 3 10 14 18 24 18 18 0 18 -3 -4 -67 -13 -38 -36 -116 -51 -175 -23 -89
-31 -108 -47 -108 -16 0 -18 6 -12 68 8 86 -6 134 -54 184 -67 71 -225 95
-324 51 -173 -78 -320 -361 -358 -690 -21 -175 16 -310 93 -346 76 -37 162
-27 198 23 23 31 89 270 89 322 0 35 -4 41 -35 54 -19 7 -48 14 -65 14 -20 0
-30 5 -30 15 0 13 39 15 290 15 241 0 288 -2 284 -14 -3 -7 -19 -17 -36 -22
-17 -5 -39 -20 -49 -34 -11 -14 -42 -114 -71 -222 -43 -166 -55 -198 -70 -198
-13 0 -18 8 -18 28 0 15 -7 38 -16 51 -14 20 -23 23 -58 19 -23 -3 -80 -22
-126 -43 -111 -50 -170 -65 -260 -65 -153 0 -289 47 -366 127 -59 60 -84 131
-84 237 0 345 297 698 649 771 40 9 110 13 179 11 110 -2 114 -3 194 -44z"/>
</g>
</svg>
