<svg id="Layer_1" data-name="Layer 1" xmlns="http://www.w3.org/2000/svg" viewBox="0 0 600 38.43"><defs><style>.cls-1{fill:#e8e8e8;}.cls-2{fill:#2b9c49;}.cls-3{fill:#f47821;}</style></defs><title>Artboard 8</title><path class="cls-1" d="M469.49,38.21c-1.58,0-2.95,0-4,0H441l16.71-19L441,2c8.6,0,19.5,0,28.3.05L484.4,19.83Z"/><path class="cls-1" d="M255.89,38.37l17.19-19.55L255.88,1.13l34.93.16L308,18.94l-17,19.39Z"/><polygon class="cls-2" points="137.33 18.24 119.88 38.08 85.22 37.92 102.54 18.24 85.16 0.38 120.1 0.53 137.33 18.24"/><polygon class="cls-2" points="22.43 37.64 0 37.54 0 0 22.58 0.1 39.84 17.84 22.43 37.64"/><path class="cls-2" d="M599.53,12.45l-96.52,3A28.67,28.67,0,0,0,500.75,11l98.65-4.5Z"/><polygon class="cls-3" points="54.66 37.78 22.43 37.64 39.84 17.84 22.58 0.1 54.65 0.24 71.99 18.07 54.66 37.78"/><path class="cls-2" d="M503,15.42a12.19,12.19,0,0,1,1,5v0a16.8,16.8,0,0,1-1,4.33,25.25,25.25,0,0,1-2.71,5.39h0A14.43,14.43,0,0,1,493.6,36c-5.31,1.93-16.87,2.22-24.11,2.24L484.4,19.83,469.34,2.09c5.66,0,10.46.13,13.22.26,11,.51,18,8.35,18,8.39l.16.25A28.67,28.67,0,0,1,503,15.42Z"/><polygon class="cls-1" points="206.15 18.66 188.8 38.38 155.09 38.24 172.54 18.38 155.32 0.69 188.81 0.84 206.15 18.66"/><path class="cls-2" d="M290.94,38.33l17-19.39L290.8,1.29l32.71.14,17,17.52-17,19.35Z"/><path class="cls-2" d="M600,33.55l-99.7-3.36A25.25,25.25,0,0,0,503,24.79l96.82,1Z"/><path class="cls-2" d="M198.15,38.43l-9.34,0,17.35-19.72L188.81.84,222.26,1l17.35,17.84L222.4,38.4Z"/><path class="cls-1" d="M504,20.43a12.19,12.19,0,0,0-1-5l96.52-3,.15,6.77L504,20.46h0Z"/><path class="cls-3" d="M255.89,38.37l-33.49,0,17.22-19.58L222.26,1l33.61.15,17.2,17.69Z"/><path class="cls-3" d="M323.54,38.3l17-19.35-17-17.52,7,0,23.6.16L371,19,354,38.28Z"/><path class="cls-2" d="M383.45,38.25,400.21,19.2,383.27,1.81l29.3.2,16.83,17.3L412.77,38.23Z"/><polygon class="cls-1" points="102.54 18.24 85.22 37.92 54.66 37.78 71.99 18.07 54.65 0.24 85.16 0.38 102.54 18.24"/><path class="cls-3" d="M412.77,38.23l16.64-18.92L412.57,2l14,.09c.17,0,6.27,0,14.47-.06L457.74,19.2,441,38.21Z"/><path class="cls-3" d="M599.82,25.82l-96.82-1a16.8,16.8,0,0,0,1-4.33h0l95.63-1.24Z"/><path class="cls-1" d="M354,38.28,371,19,354.13,1.62l29.15.19L400.21,19.2,383.45,38.25Z"/><polygon class="cls-3" points="172.54 18.38 155.09 38.24 119.88 38.08 137.33 18.24 120.1 0.53 155.32 0.69 172.54 18.38"/></svg>