<svg id="Layer_1" data-name="Layer 1" xmlns="http://www.w3.org/2000/svg" viewBox="0 0 600 39.16"><defs><style>.cls-1{fill:#fae100;}.cls-2{fill:#e02c27;}</style></defs><title>Artboard 10</title><path class="cls-1" d="M241.32,39.11,226.84,25.74l8-5.55-8-5.22L241.37,1.08h0l32.88.14h1.21L261,15.06l7.92,5.2L261,25.79l14.4,13.29Z"/><path class="cls-1" d="M450.3,38.78l-14-13,7.69-5.37-7.69-5L450.23,2c12.43,0,26.29.05,32.14.3v0L468.61,15.5l7.53,4.94-7.53,5.25L482.37,38.4v.14c-6.87.49-14.28.41-17.49.4H450.3Z"/><polygon class="cls-2" points="142.09 38.76 127.54 25.32 135.5 19.76 127.54 14.54 142.08 0.63 173.38 0.77 174.7 0.78 160.06 14.77 168.08 20.03 160.06 25.63 174.59 39.05 142.09 38.91 142.09 38.76"/><polygon class="cls-2" points="42.27 19.45 34.27 25.03 48.85 38.49 19.54 38.36 5.03 24.95 13.08 19.33 5.03 14.05 19.63 0.09 48.89 0.22 34.27 14.19 42.27 19.45"/><path class="cls-2" d="M482.37,38.4,468.61,25.69l7.53-5.25-7.53-4.94L482.37,2.34v0l.29,0A28,28,0,0,1,501,10.9a28.37,28.37,0,0,1,2.5,4.88h0a12.36,12.36,0,0,1,1,5,17.11,17.11,0,0,1-1,4.34,25.12,25.12,0,0,1-2.5,5.16,15.06,15.06,0,0,1-7.17,6.35c-2.68,1-6.93,1.54-11.42,1.86Z"/><path class="cls-2" d="M415.05,38.78l-14-13,7.69-5.37-7.69-5L415,2l11.68.08S437.73,2,450.23,2l-14,13.37,7.69,5-7.69,5.37,14,13v.17l-35.25,0Z"/><path class="cls-1" d="M503.47,25.16l96.53,1v7.48l-99-3.34A25.12,25.12,0,0,0,503.47,25.16Z"/><path class="cls-2" d="M600,26.18l-96.53-1a17.11,17.11,0,0,0,1-4.34L600,19.58Z"/><polygon class="cls-1" points="110.12 38.76 95.53 25.28 103.52 19.7 95.53 14.45 110.13 0.49 119.12 0.53 142.08 0.63 127.54 14.54 135.5 19.76 127.54 25.32 142.09 38.76 142.09 38.91 110.12 38.76"/><path class="cls-1" d="M600,19.58l-95.52,1.24a12.36,12.36,0,0,0-1-5l96.53-3Z"/><path class="cls-1" d="M379.81,38.78l-14-13,7.69-5.37-7.69-5L379.81,2V1.79L415,2,401,15.4l7.69,5L401,25.81l14,13V39l-35.24,0Z"/><polygon class="cls-1" points="48.85 38.49 34.27 25.03 42.27 19.45 34.27 14.19 48.89 0.22 76.55 0.34 76.55 0.49 62.01 14.4 69.97 19.62 62.01 25.18 76.55 38.61 48.85 38.49"/><path class="cls-2" d="M275.39,39.08,261,25.79l7.92-5.53L261,15.06,275.46,1.22,310,1.37,295.57,15.15l7.89,5.19-7.89,5.51,14.31,13.21Z"/><path class="cls-2" d="M344.72,39,330.52,25.9l7.85-5.48-7.85-5.16L344.86,1.56l34.95.23V2l-14,13.43,7.69,5-7.69,5.37,14,13V39Z"/><polygon class="cls-2" points="76.55 38.61 62.01 25.18 69.97 19.62 62.01 14.4 76.55 0.49 76.55 0.34 110.13 0.49 95.53 14.45 103.52 19.7 95.53 25.28 110.12 38.76 76.55 38.61"/><path class="cls-2" d="M600,12.81l-96.53,3h0A28.37,28.37,0,0,0,501,10.9l99-4.75Z"/><path class="cls-1" d="M309.87,39.06,295.57,25.84l7.89-5.51-7.89-5.19L310,1.37l20.73.09,14.15.1L330.52,15.27l7.85,5.16-7.85,5.48L344.72,39Z"/><path class="cls-1" d="M174.59,39,160.06,25.63l8-5.6-8-5.26L174.7.78l33.07.14h0L193.18,14.87l8,5.24-8,5.58,14.57,13.45-9.35,0Z"/><path class="cls-2" d="M207.75,39.14,193.18,25.69l8-5.58-8-5.24L207.77.93h1.56l32,.14h0L226.84,15l8,5.22-8,5.55,14.48,13.37Z"/><polygon class="cls-1" points="19.54 38.36 0 38.27 0 0 19.63 0.09 5.03 14.05 13.08 19.33 5.03 24.95 19.54 38.36"/></svg>