<svg id="Layer_1" data-name="Layer 1" xmlns="http://www.w3.org/2000/svg" viewBox="0 0 27.05 14.76"><defs><style>.cls-1{fill:#231f20;}</style></defs><title>Artboard 4</title><path class="cls-1" d="M16.19,5.76C17.42-3.76-3.32-.37.46,10.14c1.43,4,7.13,5.39,10.73,3.86a8.91,8.91,0,0,0,5-10.35A.63.63,0,0,0,15,4c1.82,6.84-6.7,12.57-12.16,7.47-3.19-3-.67-7.63,2.65-9.16a10.71,10.71,0,0,1,4.38-1c2.57,0,5.5,1.47,5.11,4.45-.1.8,1.15.79,1.25,0Z"/><path class="cls-1" d="M12.44,2.79c-7.9,6.08,9.45,18.14,14.09,8.13C28.31,7.06,25.28,2,21.57.56A8.92,8.92,0,0,0,10.83,4.39.63.63,0,0,0,11.91,5,7.4,7.4,0,0,1,25,5.49c1.95,4-.52,8-4.93,8-3.51,0-12.19-5.61-7-9.61.63-.48,0-1.57-.63-1.08Z"/></svg>