<svg id="Layer_1" data-name="Layer 1" xmlns="http://www.w3.org/2000/svg" viewBox="0 0 51.22 9.59"><defs><style>.cls-1{fill:#231f20;}</style></defs><title>Artboard 3</title><path class="cls-1" d="M.6,4l13.26-.48,5.68-.21,3.79-.14q2.43-1,1.75.5c.77-.24.44-1.45-.33-1.21C19.82,4,28.69,8.73,28.62,3.93c0-2.57-3.74-2-5.28-2-7.58.2-15.16.55-22.74.82C-.2,2.79-.2,4,.6,4Z"/><path class="cls-1" d="M26.09,3.67Q38.39,3,50.62,1.54c.79-.1.8-1.35,0-1.25Q38.39,1.77,26.09,2.42c-.8,0-.81,1.29,0,1.25Z"/><path class="cls-1" d="M1.11,9.49A102.26,102.26,0,0,0,25.35,7.69c.79-.15.45-1.36-.33-1.21A100.76,100.76,0,0,1,1.11,8.24c-.8,0-.8,1.21,0,1.25Z"/><path class="cls-1" d="M25.6,8.24c6,0,12,.29,18,.13,2.92-.08,5.54-.44,7.51-2.77.52-.61-.36-1.5-.88-.88C47.36,8,42,7.12,38.12,7.09L25.6,7a.63.63,0,0,0,0,1.25Z"/><path class="cls-1" d="M23.36,3.69c-1.64-.9-3.49,1.51-2.15,2.84a.63.63,0,0,0,.88-.88c-.32-.32.24-1.09.64-.88.71.39,1.34-.69.63-1.08Z"/><path class="cls-1" d="M28,4.15A2.61,2.61,0,0,1,26.82,6.7c-.69.42-.06,1.5.63,1.08A3.84,3.84,0,0,0,29.3,4.15c-.08-.79-1.33-.8-1.25,0Z"/><path class="cls-1" d="M28.6,6.86A2.57,2.57,0,0,0,30.49,3c-.46-.65-1.54,0-1.08.63a1.32,1.32,0,0,1-.81,2c-.79.08-.8,1.33,0,1.25Z"/><path class="cls-1" d="M22.57,3.16a2,2,0,0,1,3.06-1.27c.65.48,1.27-.6.63-1.08a3.22,3.22,0,0,0-4.94,2.35c-.07.8,1.18.8,1.25,0Z"/><path class="cls-1" d="M29.11,2.65A2.61,2.61,0,0,0,25.93.07c-.78.19-.45,1.4.33,1.21a1.35,1.35,0,0,1,1.6,1.38c0,.8,1.21.8,1.25,0Z"/><path class="cls-1" d="M20.75,7a6,6,0,0,0,5.19,0c.73-.34.09-1.42-.63-1.08a4.62,4.62,0,0,1-3.93,0c-.72-.34-1.36.74-.63,1.08Z"/><path class="cls-1" d="M24.24,4.91C24.16,6,24.17,7.26,25.09,8a1.81,1.81,0,0,0,2.51-.1c.5-.62-.38-1.51-.88-.88a.64.64,0,0,1-1-.13,3,3,0,0,1-.24-2c.06-.8-1.19-.8-1.25,0Z"/></svg>