<svg id="Layer_1" data-name="Layer 1" xmlns="http://www.w3.org/2000/svg" viewBox="0 0 600 38.43"><defs><style>.cls-1{fill:#1d61ad;}.cls-2{fill:#e8e8e8;}</style></defs><title>Artboard 9</title><path class="cls-1" d="M383.45,38.26l-29.45,0L371,19,354.13,1.63l29.16.19L400.21,19.2Z"/><path class="cls-1" d="M323.54,38.32l-32.6,0,17-19.4L290.81,1.3l32.7.14,17,17.52Z"/><polygon class="cls-1" points="54.64 0.24 72 18.08 54.66 37.79 53.67 37.78 70.97 18.1 53.58 0.24 54.64 0.24"/><polygon class="cls-2" points="22.42 37.65 0 37.55 0 0 22.58 0.1 39.84 17.84 22.42 37.65"/><path class="cls-2" d="M412.76,38.24l-29.31,0L400.21,19.2,383.29,1.82l29.28.2,16.83,17.29Z"/><polygon class="cls-1" points="119.89 38.08 85.24 37.93 102.54 18.24 85.16 0.38 120.1 0.54 137.34 18.24 119.89 38.08"/><polygon class="cls-1" points="188.82 38.39 155.09 38.24 172.55 18.39 155.32 0.69 188.8 0.84 206.15 18.67 188.82 38.39"/><path class="cls-1" d="M599.54,12.46l-96.53,3A29.14,29.14,0,0,0,500.75,11l98.65-4.5Z"/><path class="cls-2" d="M600,33.55l-99.71-3.36A25.43,25.43,0,0,0,503,24.8l96.83,1Z"/><polygon class="cls-1" points="53.67 37.78 22.42 37.65 39.84 17.84 22.58 0.1 53.58 0.24 70.97 18.1 53.67 37.78"/><path class="cls-2" d="M222.4,38.4l-24.25,0-9.33,0,17.33-19.72L188.8.84,222.26,1l17.35,17.83Z"/><path class="cls-1" d="M255.9,38.37l-33.5,0,17.22-19.58L222.26,1l33.61.15,17.21,17.68Z"/><path class="cls-2" d="M354,38.29l-30.45,0,17-19.36-17-17.52,7,0,23.6.16L371,19Z"/><path class="cls-1" d="M500.29,30.19A14.48,14.48,0,0,1,493.6,36c-5.31,1.93-16.87,2.22-24.11,2.24L484.4,19.83,469.34,2.1c5.66,0,10.46.13,13.22.26,11,.51,18,8.35,18,8.39l.16.24A29.14,29.14,0,0,1,503,15.42a12.16,12.16,0,0,1,1,5v0a17.1,17.1,0,0,1-1,4.34A25.43,25.43,0,0,1,500.29,30.19Z"/><polygon class="cls-2" points="155.09 38.24 119.89 38.08 137.34 18.24 120.1 0.54 155.32 0.69 172.55 18.39 155.09 38.24"/><path class="cls-2" d="M504,20.46h0v0a12.16,12.16,0,0,0-1-5l96.53-3,.15,6.76Z"/><path class="cls-1" d="M599.83,25.83,503,24.8a17.1,17.1,0,0,0,1-4.34h0l95.64-1.24Z"/><path class="cls-2" d="M290.94,38.34l-35,0,17.19-19.56L255.88,1.14l34.93.16L308,18.94Z"/><polygon class="cls-2" points="85.24 37.93 54.66 37.79 72 18.08 54.64 0.24 85.16 0.38 102.54 18.24 85.24 37.93"/><path class="cls-2" d="M469.49,38.21c-1.58,0-2.95,0-4,0H441l16.71-19L441,2c8.6,0,19.5,0,28.3.05L484.4,19.83Z"/><path class="cls-1" d="M457.74,19.2,441,38.21l-28.27,0,16.64-18.94L412.57,2l14,.09c.17,0,6.27,0,14.48-.06Z"/></svg>