<svg id="Layer_1" data-name="Layer 1" xmlns="http://www.w3.org/2000/svg" viewBox="0 0 600 39.16"><defs><style>.cls-1{fill:#d1202d;}.cls-2{fill:#e5e5e5;}.cls-3{fill:#293476;}</style></defs><title>Artboard 11</title><polygon class="cls-1" points="5.03 24.95 19.56 38.36 0 38.28 0 0 19.64 0.09 5.03 14.06 13.08 19.34 5.03 24.95"/><polygon class="cls-2" points="174.7 0.78 160.06 14.78 168.08 20.04 160.06 25.63 174.59 39.05 142.09 38.91 142.09 38.76 127.54 25.33 135.5 19.77 127.54 14.54 142.09 0.63 173.38 0.77 174.7 0.78 174.7 0.78"/><path class="cls-1" d="M373.45,20.45l-7.69-5L379.81,2V1.79L415,2,401,15.4l7.69,5L401,25.81l14,13V39l-35.25,0v-.22l-14-13Z"/><polygon class="cls-3" points="127.54 14.54 135.5 19.77 127.54 25.33 142.09 38.76 142.09 38.91 110.12 38.76 95.53 25.29 103.52 19.7 95.53 14.46 110.13 0.49 119.12 0.53 142.09 0.63 127.54 14.54"/><path class="cls-2" d="M443.95,20.45l-7.69-5L450.24,2c12.43,0,26.28.05,32.13.3v0L468.62,15.5l7.53,4.94-7.53,5.26,13.76,12.7v.14c-6.86.48-14.28.41-17.49.39H450.3v-.17l-14-13Z"/><path class="cls-1" d="M268.91,20.26,261,15.06,275.46,1.23,310,1.38,295.57,15.16l7.89,5.18-7.89,5.51L309.87,39l-34.48,0L261,25.79Z"/><polygon class="cls-3" points="48.85 38.5 19.56 38.36 5.03 24.95 13.08 19.34 5.03 14.06 19.64 0.09 48.89 0.22 34.27 14.19 42.27 19.45 34.27 25.03 48.85 38.5"/><path class="cls-3" d="M436.26,15.4l7.69,5-7.69,5.37,14,13v.17l-35.24,0v-.19l-14-13,7.69-5.37-7.69-5L415,2l11.67.08S437.73,2,450.24,2Z"/><polygon class="cls-2" points="62.02 14.4 69.97 19.63 62.02 25.18 76.56 38.62 48.85 38.5 34.27 25.03 42.27 19.45 34.27 14.19 48.89 0.22 76.56 0.34 76.56 0.49 62.02 14.4"/><path class="cls-1" d="M193.18,14.87l8,5.25-8,5.57,14.57,13.45-9.35,0L174.59,39,160.06,25.63l8-5.59-8-5.26L174.7.78h0l33.07.14h0Z"/><path class="cls-2" d="M504.48,20.82a12.42,12.42,0,0,0-1-5l96.53-3v6.77Z"/><path class="cls-3" d="M330.52,15.28l7.85,5.16-7.85,5.48L344.72,39l-34.84,0-14.31-13.2,7.89-5.51-7.89-5.18L310,1.38l20.72.09,14.15.09h0Z"/><path class="cls-1" d="M476.15,20.44l-7.53-4.94L482.37,2.35v0l.29,0A27.93,27.93,0,0,1,501,10.9a28.71,28.71,0,0,1,2.51,4.88,12.42,12.42,0,0,1,1,5,17,17,0,0,1-1,4.34,25.87,25.87,0,0,1-2.5,5.16,15.09,15.09,0,0,1-7.18,6.36c-2.68,1-6.93,1.54-11.42,1.86V38.4L468.62,25.7Z"/><polygon class="cls-1" points="95.53 14.46 103.52 19.7 95.53 25.29 110.12 38.76 76.56 38.62 62.02 25.18 69.97 19.63 62.02 14.4 76.56 0.49 76.56 0.34 110.13 0.49 95.53 14.46"/><path class="cls-2" d="M261,15.06l7.93,5.2L261,25.79l14.4,13.29-34.06,0L226.84,25.74l8-5.55-8-5.22L241.37,1.08h0l32.88.15h1.21Z"/><path class="cls-1" d="M600,26.19v7.47l-99-3.34a25.87,25.87,0,0,0,2.5-5.16Z"/><path class="cls-2" d="M338.37,20.43l-7.85-5.16L344.86,1.57h0l34.95.23V2l-14,13.42,7.69,5-7.69,5.37,14,13V39l-35.09,0-14.2-13.11Z"/><path class="cls-1" d="M600,12.81l-96.53,3A28.71,28.71,0,0,0,501,10.9l99-4.75Z"/><path class="cls-3" d="M226.84,15l8,5.22-8,5.55,14.49,13.37-33.58,0L193.18,25.69l8-5.57-8-5.25L207.77.93h1.57l32,.14h0Z"/><path class="cls-3" d="M504.48,20.82,600,19.58v6.61l-96.53-1A17,17,0,0,0,504.48,20.82Z"/></svg>