<svg id="Layer_1" data-name="Layer 1" xmlns="http://www.w3.org/2000/svg" viewBox="0 0 50.02 27.05"><defs><style>.cls-1{fill:#231f20;}</style></defs><title>Artboard 2</title><path class="cls-1" d="M7,22.89c3.79-3,7.65-6.1,12-8.26,4.7-2.32,9.26-2.57,14.37-3.16,6.91-.8,10.74-4.73,14.7-10.12C48.52.7,47.44.07,47,.72c-3.06,4.17-6.17,8-11.47,9.19-3.88.88-7.88.5-11.74,1.55C17,13.29,11.44,17.74,6.08,22c-.63.5.26,1.38.88.88Z"/><path class="cls-1" d="M4.21,20.12C10.09,12.29,20.12,8.48,29.47,7.05c5-.77,10-1.65,12-6.89.29-.75-.92-1.07-1.21-.33-2.1,5.39-7.85,5.41-12.64,6.22a45,45,0,0,0-10,2.82C12.14,11.2,6.79,14.61,3.13,19.49c-.48.64.6,1.27,1.08.63Z"/><path class="cls-1" d="M5.56,8A61.68,61.68,0,0,0,27.91,19.58c4.94,1.35,12.29,3.52,16-1.33.49-.64-.6-1.27-1.08-.63-3.91,5.17-14.5,1-19.32-.77a60.69,60.69,0,0,1-17-9.76c-.62-.5-1.51.38-.88.88Z"/><path class="cls-1" d="M9.83,6.95c5.19,3.64,10.35,5,16.11,7.21,4.86,1.9,8.58,3.11,13.77,1.41.76-.25.44-1.46-.33-1.21-5.84,1.91-9.6-.47-14.92-2a45.93,45.93,0,0,1-14-6.47c-.66-.46-1.28.62-.63,1.08Z"/><path class="cls-1" d="M1.7,11.44c10.69,6.88,21.83,13.68,34.92,13.9a.63.63,0,0,0,0-1.25c-12.85-.22-23.8-7-34.28-13.73C1.65,9.92,1,11,1.7,11.44Z"/><path class="cls-1" d="M13.57,27.36a35.62,35.62,0,0,1,9.24-9C27.24,15.59,31,15.86,36,15.53A14.37,14.37,0,0,0,48,8.3a.63.63,0,0,0-1.08-.63c-5.36,8.95-14.11,4.69-22,8.19-5.14,2.27-9,6.47-12.37,10.87-.49.64.6,1.26,1.08.63Z"/></svg>